<svg width="32" height="32" viewBox="0 0 32 32" fill="none" xmlns="http://www.w3.org/2000/svg">
<path d="M0 16C0 7.16344 7.16344 0 16 0C24.8366 0 32 7.16344 32 16C32 24.8366 24.8366 32 16 32C7.16344 32 0 24.8366 0 16Z" fill="#EDF5FF"/>
<path d="M15.1113 10.2232C15.1113 8.9959 16.1063 8.00098 17.3336 8.00098H22.6669C23.8942 8.00098 24.8891 8.9959 24.8891 10.2232V12.8899C24.8891 14.1172 23.8942 15.1121 22.6669 15.1121H18.3303C18.2124 15.1121 18.0994 15.1589 18.016 15.2423L17.3875 15.8708C16.5475 16.7108 15.1113 16.1159 15.1113 14.928V10.2232Z" fill="#458CFF"/>
<path d="M9.778 15.1121C9.778 14.1302 10.5739 13.3343 11.5558 13.3343H14.2224V11.5565H11.5558C9.59209 11.5565 8.00022 13.1484 8.00022 15.1121V16.8899H7.11133V18.6676H8.00022V20.4454C8.00022 22.4091 9.59209 24.001 11.5558 24.001H20.4447C22.4083 24.001 24.0002 22.4091 24.0002 20.4454V18.6676H24.8891V16.8899H24.0002V16.001H22.2224V20.4454C22.2224 21.4273 21.4265 22.2232 20.4447 22.2232H11.5558C10.5739 22.2232 9.778 21.4273 9.778 20.4454V15.1121Z" fill="#458CFF"/>
<path d="M17.778 17.3343C17.778 17.0889 17.977 16.8899 18.2224 16.8899H19.1113C19.3568 16.8899 19.5558 17.0889 19.5558 17.3343V18.2232C19.5558 18.4687 19.3568 18.6676 19.1113 18.6676H18.2224C17.977 18.6676 17.778 18.4687 17.778 18.2232V17.3343Z" fill="#458CFF"/>
<path d="M12.8891 16.8899C12.6436 16.8899 12.4447 17.0889 12.4447 17.3343V18.2232C12.4447 18.4687 12.6436 18.6676 12.8891 18.6676H13.778C14.0235 18.6676 14.2224 18.4687 14.2224 18.2232V17.3343C14.2224 17.0889 14.0235 16.8899 13.778 16.8899H12.8891Z" fill="#458CFF"/>
</svg>
