<svg width="40" height="40" viewBox="0 0 40 40" fill="none" xmlns="http://www.w3.org/2000/svg">
<path d="M0 20C0 8.95431 8.95431 0 20 0C31.0457 0 40 8.95431 40 20C40 31.0457 31.0457 40 20 40C8.95431 40 0 31.0457 0 20Z" fill="#E3FCF0"/>
<path d="M19 13.9999C19 12.8954 18.1046 11.9999 17 11.9999V9.99994C18.1947 9.99994 19.2671 10.5237 20 11.3541C20.7329 10.5237 21.8053 9.99994 23 9.99994V11.9999C21.8954 11.9999 21 12.8954 21 13.9999V14.5229L22.2565 14.0203C24.0794 13.2912 26.1619 13.9928 27.172 15.6763L28.0919 17.2094C28.7351 18.2814 28.8401 19.5923 28.3759 20.753L26.0661 26.5275C25.2364 28.6016 22.8113 29.5236 20.8132 28.5246C20.3013 28.2686 19.6988 28.2686 19.1869 28.5246C17.1888 29.5236 14.7637 28.6016 13.934 26.5275L11.6242 20.753C11.16 19.5923 11.265 18.2814 11.9082 17.2094L12.8281 15.6763C13.8382 13.9928 15.9208 13.2912 17.7436 14.0203L19 14.5229V13.9999Z" fill="#34D399"/>
</svg>
