<svg width="32" height="32" viewBox="0 0 32 32" fill="none" xmlns="http://www.w3.org/2000/svg">
<path d="M0 16C0 7.16344 7.16344 0 16 0C24.8366 0 32 7.16344 32 16C32 24.8366 24.8366 32 16 32C7.16344 32 0 24.8366 0 16Z" fill="#FFF1F3"/>
<path fill-rule="evenodd" clip-rule="evenodd" d="M18.9141 9.72312C17.4986 7.70101 14.5039 7.70102 13.0884 9.72312L10.0703 14.0347C9.30216 15.1321 8.89014 16.4392 8.89014 17.7786C8.89014 18.7125 9.07407 19.6372 9.43144 20.5C9.7888 21.3627 10.3126 22.1466 10.9729 22.807C11.6333 23.4673 12.4172 23.9911 13.2799 24.3485C14.1427 24.7058 15.0674 24.8898 16.0012 24.8898C16.9351 24.8898 17.8598 24.7058 18.7226 24.3485C19.5853 23.9911 20.3692 23.4673 21.0296 22.807C21.6899 22.1466 22.2137 21.3627 22.5711 20.5C22.9284 19.6372 23.1124 18.7125 23.1124 17.7786C23.1124 16.4392 22.7003 15.1321 21.9322 14.0347L18.9141 9.72312ZM15.1124 16.8898V15.112H16.8901V16.8898H18.6679V18.6675H16.8901V20.4453H15.1124V18.6675H13.3346V16.8898H15.1124Z" fill="#DA1E2E"/>
</svg>
