<svg width="40" height="40" viewBox="0 0 40 40" fill="none" xmlns="http://www.w3.org/2000/svg">
<path d="M0 20C0 8.95431 8.95431 0 20 0C31.0457 0 40 8.95431 40 20C40 31.0457 31.0457 40 20 40C8.95431 40 0 31.0457 0 20Z" fill="#FFFAE5"/>
<path d="M17 21.0001C17 19.3433 18.3431 18.0001 20 18.0001C21.6569 18.0001 23 19.3433 23 21.0001C23 22.657 21.6569 24.0001 20 24.0001C18.3431 24.0001 17 22.657 17 21.0001Z" fill="#FBBF24"/>
<path fill-rule="evenodd" clip-rule="evenodd" d="M16.2773 12.7813C17.0192 11.6685 18.2681 11.0001 19.6055 11.0001H20.3944C21.7319 11.0001 22.9808 11.6685 23.7226 12.7813L23.9414 13.1095C24.3124 13.6659 24.9368 14.0001 25.6055 14.0001H26C28.2091 14.0001 30 15.791 30 18.0001V25.0001C30 27.2093 28.2091 29.0001 26 29.0001H14C11.7909 29.0001 10 27.2093 10 25.0001V18.0001C10 15.791 11.7909 14.0001 14 14.0001H14.3944C15.0632 14.0001 15.6876 13.6659 16.0585 13.1095L16.2773 12.7813ZM20 16.0001C17.2386 16.0001 15 18.2387 15 21.0001C15 23.7615 17.2386 26.0001 20 26.0001C22.7614 26.0001 25 23.7615 25 21.0001C25 18.2387 22.7614 16.0001 20 16.0001Z" fill="#FBBF24"/>
</svg>
