<svg width="40" height="40" viewBox="0 0 40 40" fill="none" xmlns="http://www.w3.org/2000/svg">
<path d="M0 20C0 8.95431 8.95431 0 20 0C31.0457 0 40 8.95431 40 20C40 31.0457 31.0457 40 20 40C8.95431 40 0 31.0457 0 20Z" fill="#D9FBFB"/>
<path d="M13 14C13 11.7909 14.7909 10 17 10H23C25.2091 10 27 11.7909 27 14V17.5H25V14C25 12.8954 24.1046 12 23 12H17C15.8954 12 15 12.8954 15 14V17.5H13V14Z" fill="#08B4BD"/>
<path d="M15 22.5V26C15 27.1046 15.8954 28 17 28H23C24.1046 28 25 27.1046 25 26V22.5H27V26C27 28.2091 25.2091 30 23 30H17C14.7909 30 13 28.2091 13 26V22.5H15Z" fill="#08B4BD"/>
<path d="M14.9246 21H10V19H14.9246C16.5206 19 17.9429 19.9453 18.5778 21.3704L20.437 14.7304C20.5579 14.2985 20.9516 14 21.4 14C21.8484 14 22.2421 14.2985 22.363 14.7304L23.1495 17.5393C23.3913 18.4029 24.1785 19 25.0754 19H30V21H25.0754C23.4794 21 22.0571 20.0547 21.4222 18.6296L19.563 25.2696C19.4421 25.7015 19.0484 26 18.6 26C18.1516 26 17.7579 25.7015 17.637 25.2696L16.8505 22.4607C16.6087 21.5971 15.8215 21 14.9246 21Z" fill="#08B4BD"/>
</svg>
