<svg width="40" height="40" viewBox="0 0 40 40" fill="none" xmlns="http://www.w3.org/2000/svg">
<path d="M0 20C0 8.95431 8.95431 0 20 0C31.0457 0 40 8.95431 40 20C40 31.0457 31.0457 40 20 40C8.95431 40 0 31.0457 0 20Z" fill="#E5F9FF"/>
<path d="M19.6467 11.2324C20.623 12.2087 20.623 13.7916 19.6467 14.7679L17.9144 16.5002L23.5001 22.086L25.2325 20.3537C26.2088 19.3774 27.7917 19.3774 28.768 20.3537L29.6467 21.2324C30.623 22.2087 30.623 23.7916 29.6467 24.7679L27.9144 26.5002L28.7071 27.2929L27.2929 28.7071L26.5002 27.9144L24.768 29.6466C23.7917 30.6229 22.2088 30.6229 21.2325 29.6466L20.3537 28.7678C19.3774 27.7915 19.3774 26.2086 20.3537 25.2323L22.0859 23.5001L16.5002 17.9144L14.768 19.6466C13.7917 20.6229 12.2088 20.6229 11.2325 19.6466L10.3537 18.7678C9.37737 17.7915 9.37738 16.2086 10.3537 15.2323L12.0859 13.5001L11.2929 12.7071L12.7071 11.2929L13.5001 12.086L15.2325 10.3537C16.2088 9.37738 17.7917 9.3774 18.768 10.3537L19.6467 11.2324Z" fill="#33C9FF"/>
</svg>
