<svg width="124" height="59" viewBox="0 0 124 59" fill="none" xmlns="http://www.w3.org/2000/svg" >
<rect width="124" height="59" fill="white" />
<path d="M1.78218 6.84741V2.67132H3.21995C3.44467 2.67132 3.6475 2.727 3.82847 2.83836C4.01142 2.94973 4.15659 3.09987 4.26397 3.28878C4.37335 3.4777 4.42804 3.68651 4.42804 3.9152C4.42804 4.14787 4.37235 4.35866 4.26099 4.54758C4.15162 4.73451 4.00545 4.88365 3.8225 4.99502C3.63955 5.10638 3.4387 5.16206 3.21995 5.16206H2.40263V6.84741H1.78218ZM2.40263 4.54161H3.15731C3.27663 4.54161 3.38501 4.51178 3.48245 4.45212C3.58188 4.39247 3.66043 4.31292 3.7181 4.21349C3.77776 4.11406 3.80759 4.0017 3.80759 3.87642C3.80759 3.75114 3.77776 3.63878 3.7181 3.53935C3.66043 3.43793 3.58188 3.35839 3.48245 3.30072C3.38501 3.24106 3.27663 3.21123 3.15731 3.21123H2.40263V4.54161ZM4.91658 6.84741V3.86449H5.53703V4.18068C5.64044 4.05738 5.76771 3.95994 5.91884 3.88835C6.06998 3.81676 6.23305 3.78097 6.40804 3.78097C6.51941 3.78097 6.62977 3.79588 6.73915 3.82571L6.49157 4.45212C6.41401 4.4223 6.33645 4.40738 6.2589 4.40738C6.12765 4.40738 6.00734 4.44019 5.89796 4.50582C5.78859 4.56945 5.70109 4.65596 5.63547 4.76533C5.56984 4.87471 5.53703 4.99601 5.53703 5.12925V6.84741H4.91658ZM8.25652 6.92497C7.9821 6.92497 7.73153 6.85437 7.50483 6.71318C7.28011 6.57199 7.10014 6.38307 6.96492 6.14643C6.83168 5.90779 6.76506 5.6443 6.76506 5.35595C6.76506 5.1372 6.80384 4.93337 6.8814 4.74445C6.95895 4.55354 7.06534 4.3865 7.20057 4.24332C7.33778 4.09815 7.49687 3.9848 7.67784 3.90327C7.8588 3.82173 8.0517 3.78097 8.25652 3.78097C8.48522 3.78097 8.69501 3.82869 8.88592 3.92415C9.07683 4.01761 9.23989 4.14787 9.37512 4.31491C9.51035 4.47997 9.60978 4.67087 9.67341 4.88763C9.73705 5.1024 9.75594 5.33109 9.73009 5.5737H7.43025C7.45611 5.71092 7.50582 5.83521 7.5794 5.94657C7.65497 6.05594 7.75042 6.14245 7.86576 6.20608C7.98309 6.26972 8.11334 6.30253 8.25652 6.30452C8.40766 6.30452 8.54487 6.26674 8.66817 6.19117C8.79345 6.1156 8.89586 6.0112 8.97541 5.87796L9.60481 6.02413C9.48549 6.28861 9.30552 6.50537 9.0649 6.6744C8.82427 6.84145 8.55482 6.92497 8.25652 6.92497ZM7.40937 5.09942H9.10367C9.08379 4.95624 9.03308 4.82698 8.95155 4.71164C8.872 4.59431 8.77158 4.50184 8.65027 4.43423C8.53095 4.36463 8.3997 4.32982 8.25652 4.32982C8.11533 4.32982 7.98408 4.36363 7.86278 4.43124C7.74346 4.49886 7.64403 4.59133 7.56449 4.70866C7.48693 4.824 7.43523 4.95425 7.40937 5.09942ZM10.2765 4.74743H12.1856V5.36788H10.2765V4.74743ZM15.2278 2.37303H15.8482V6.84741H15.2278V6.40892C15.1303 6.56403 15.003 6.68932 14.8459 6.78477C14.6888 6.87824 14.5049 6.92497 14.2941 6.92497C14.0773 6.92497 13.8745 6.8842 13.6856 6.80267C13.4967 6.72114 13.3296 6.60878 13.1845 6.4656C13.0413 6.32043 12.9289 6.15339 12.8474 5.96447C12.7658 5.77555 12.7251 5.57271 12.7251 5.35595C12.7251 5.13919 12.7658 4.93635 12.8474 4.74743C12.9289 4.55653 13.0413 4.38948 13.1845 4.2463C13.3296 4.10113 13.4967 3.98778 13.6856 3.90625C13.8745 3.82472 14.0773 3.78395 14.2941 3.78395C14.5049 3.78395 14.6888 3.83168 14.8459 3.92713C15.003 4.0206 15.1303 4.14389 15.2278 4.29701V2.37303ZM14.3001 6.3254C14.4751 6.3254 14.6282 6.28265 14.7594 6.19713C14.8907 6.10964 14.9921 5.99231 15.0637 5.84515C15.1373 5.69799 15.1741 5.53493 15.1741 5.35595C15.1741 5.17499 15.1373 5.01093 15.0637 4.86377C14.9901 4.71661 14.8877 4.60028 14.7565 4.51477C14.6272 4.42727 14.4751 4.38352 14.3001 4.38352C14.1271 4.38352 13.969 4.42727 13.8258 4.51477C13.6846 4.60227 13.5712 4.71959 13.4857 4.86675C13.4022 5.01391 13.3604 5.17698 13.3604 5.35595C13.3604 5.53691 13.4032 5.70098 13.4887 5.84813C13.5762 5.9933 13.6906 6.10964 13.8317 6.19713C13.9749 6.28265 14.131 6.3254 14.3001 6.3254ZM16.5628 3.86449H17.1832V6.84741H16.5628V3.86449ZM16.879 3.43196C16.7835 3.43196 16.704 3.40114 16.6404 3.33949C16.5767 3.27785 16.5449 3.20029 16.5449 3.10683C16.5449 3.01535 16.5767 2.93879 16.6404 2.87714C16.704 2.81351 16.7825 2.78169 16.876 2.78169C16.9675 2.78169 17.045 2.81351 17.1087 2.87714C17.1723 2.93879 17.2041 3.01535 17.2041 3.10683C17.2041 3.20029 17.1723 3.27785 17.1087 3.33949C17.047 3.40114 16.9705 3.43196 16.879 3.43196ZM20.5583 4.97712V6.84741H19.9378V5.12925C19.9378 4.99601 19.905 4.87471 19.8394 4.76533C19.7758 4.65596 19.6893 4.56945 19.5799 4.50582C19.4725 4.44019 19.3512 4.40738 19.216 4.40738C19.0847 4.40738 18.9644 4.44019 18.855 4.50582C18.7457 4.56945 18.6582 4.65596 18.5925 4.76533C18.5269 4.87471 18.4941 4.99601 18.4941 5.12925V6.84741H17.8737V3.86449H18.4941V4.18068C18.5975 4.05738 18.7248 3.95994 18.8759 3.88835C19.0271 3.81676 19.1901 3.78097 19.3651 3.78097C19.5859 3.78097 19.7867 3.83466 19.9677 3.94204C20.1486 4.04943 20.2918 4.1936 20.3972 4.37457C20.5046 4.55553 20.5583 4.75638 20.5583 4.97712ZM23.8383 4.97712V6.84741H23.2179V5.12925C23.2179 4.99601 23.1851 4.87471 23.1195 4.76533C23.0558 4.65596 22.9693 4.56945 22.8599 4.50582C22.7526 4.44019 22.6312 4.40738 22.496 4.40738C22.3648 4.40738 22.2445 4.44019 22.1351 4.50582C22.0257 4.56945 21.9382 4.65596 21.8726 4.76533C21.807 4.87471 21.7742 4.99601 21.7742 5.12925V6.84741H21.1537V3.86449H21.7742V4.18068C21.8776 4.05738 22.0048 3.95994 22.156 3.88835C22.3071 3.81676 22.4702 3.78097 22.6452 3.78097C22.8659 3.78097 23.0668 3.83466 23.2477 3.94204C23.4287 4.04943 23.5719 4.1936 23.6773 4.37457C23.7846 4.55553 23.8383 4.75638 23.8383 4.97712ZM25.688 6.92497C25.4136 6.92497 25.163 6.85437 24.9363 6.71318C24.7116 6.57199 24.5316 6.38307 24.3964 6.14643C24.2631 5.90779 24.1965 5.6443 24.1965 5.35595C24.1965 5.1372 24.2353 4.93337 24.3129 4.74445C24.3904 4.55354 24.4968 4.3865 24.632 4.24332C24.7692 4.09815 24.9283 3.9848 25.1093 3.90327C25.2903 3.82173 25.4832 3.78097 25.688 3.78097C25.9167 3.78097 26.1265 3.82869 26.3174 3.92415C26.5083 4.01761 26.6714 4.14787 26.8066 4.31491C26.9418 4.47997 27.0412 4.67087 27.1049 4.88763C27.1685 5.1024 27.1874 5.33109 27.1615 5.5737H24.8617C24.8876 5.71092 24.9373 5.83521 25.0109 5.94657C25.0864 6.05594 25.1819 6.14245 25.2972 6.20608C25.4145 6.26972 25.5448 6.30253 25.688 6.30452C25.8391 6.30452 25.9763 6.26674 26.0996 6.19117C26.2249 6.1156 26.3273 6.0112 26.4069 5.87796L27.0363 6.02413C26.9169 6.28861 26.737 6.50537 26.4964 6.6744C26.2557 6.84145 25.9863 6.92497 25.688 6.92497ZM24.8408 5.09942H26.5351C26.5152 4.95624 26.4645 4.82698 26.383 4.71164C26.3035 4.59431 26.203 4.50184 26.0817 4.43423C25.9624 4.36463 25.8312 4.32982 25.688 4.32982C25.5468 4.32982 25.4155 4.36363 25.2942 4.43124C25.1749 4.49886 25.0755 4.59133 24.9959 4.70866C24.9184 4.824 24.8667 4.95425 24.8408 5.09942ZM27.6555 6.84741V3.86449H28.276V4.18068C28.3794 4.05738 28.5067 3.95994 28.6578 3.88835C28.8089 3.81676 28.972 3.78097 29.147 3.78097C29.2584 3.78097 29.3687 3.79588 29.4781 3.82571L29.2305 4.45212C29.153 4.4223 29.0754 4.40738 28.9979 4.40738C28.8666 4.40738 28.7463 4.44019 28.6369 4.50582C28.5276 4.56945 28.4401 4.65596 28.3744 4.76533C28.3088 4.87471 28.276 4.99601 28.276 5.12925V6.84741H27.6555Z" fill="#252E49"/>
<path d="M77.0157 6.41527C76.7843 6.41527 76.5729 6.35785 76.3815 6.24301C76.1901 6.12817 76.037 5.97504 75.9221 5.78364C75.8073 5.5905 75.7499 5.37734 75.7499 5.14418C75.7499 5.01367 75.7647 4.8997 75.7942 4.80226C75.8256 4.70482 75.8717 4.59954 75.9326 4.48644L76.9661 2.69333H77.4751L76.7365 3.97487C76.8861 3.92789 77.0349 3.91136 77.1828 3.92528C77.3307 3.9392 77.4708 3.97922 77.603 4.04534C77.737 4.11146 77.8553 4.19846 77.958 4.30635C78.0606 4.41423 78.1415 4.53951 78.2007 4.6822C78.2599 4.82314 78.2894 4.97713 78.2894 5.14418C78.2894 5.31992 78.2555 5.48435 78.1877 5.63748C78.1215 5.7906 78.0302 5.92545 77.9136 6.04204C77.7988 6.15862 77.6639 6.24997 77.509 6.31609C77.3542 6.38221 77.1897 6.41527 77.0157 6.41527ZM77.0157 5.97678C77.1758 5.97678 77.3185 5.93763 77.4438 5.85933C77.5708 5.78103 77.67 5.67837 77.7413 5.55134C77.8144 5.42432 77.851 5.2886 77.851 5.14418C77.851 4.99279 77.8135 4.85446 77.7387 4.72918C77.6656 4.60389 77.5656 4.50384 77.4386 4.42902C77.3133 4.35246 77.1741 4.31418 77.021 4.31418C76.8609 4.31418 76.7182 4.35333 76.5929 4.43163C76.4676 4.50993 76.3684 4.61172 76.2954 4.73701C76.224 4.86229 76.1884 4.99801 76.1884 5.14418C76.1884 5.30252 76.2266 5.44433 76.3032 5.56961C76.3798 5.6949 76.4807 5.79408 76.606 5.86716C76.733 5.94024 76.8696 5.97678 77.0157 5.97678ZM78.8898 4.2176C78.8237 4.2176 78.7672 4.19411 78.7202 4.14713C78.6749 4.10015 78.6523 4.04273 78.6523 3.97487C78.6523 3.91049 78.6749 3.85481 78.7202 3.80783C78.7672 3.76084 78.8237 3.73735 78.8898 3.73735C78.9577 3.73735 79.0151 3.76084 79.0621 3.80783C79.1091 3.85481 79.1326 3.91049 79.1326 3.97487C79.1326 4.04273 79.1091 4.10015 79.0621 4.14713C79.0151 4.19411 78.9577 4.2176 78.8898 4.2176ZM78.8898 6.41527C78.8237 6.41527 78.7672 6.39178 78.7202 6.3448C78.6749 6.29782 78.6523 6.2404 78.6523 6.17254C78.6523 6.10816 78.6749 6.05248 78.7202 6.00549C78.7672 5.95851 78.8237 5.93502 78.8898 5.93502C78.9577 5.93502 79.0151 5.95851 79.0621 6.00549C79.1091 6.05248 79.1326 6.10816 79.1326 6.17254C79.1326 6.2404 79.1091 6.29782 79.0621 6.3448C79.0151 6.39178 78.9577 6.41527 78.8898 6.41527ZM80.7424 6.41527C80.5214 6.41527 80.3248 6.36568 80.1525 6.2665C79.982 6.16558 79.848 6.0316 79.7505 5.86455C79.6531 5.69577 79.6044 5.50871 79.6044 5.30339H80.0429C80.0429 5.42693 80.0716 5.54003 80.129 5.6427C80.1864 5.74362 80.2673 5.82453 80.3717 5.88543C80.4761 5.94633 80.5997 5.97678 80.7424 5.97678C80.8659 5.97678 80.9808 5.94633 81.0869 5.88543C81.1948 5.82453 81.2818 5.74362 81.3479 5.6427C81.414 5.54003 81.4471 5.42693 81.4471 5.30339C81.4471 5.14853 81.4071 5.01976 81.327 4.9171C81.2487 4.8127 81.1391 4.73527 80.9982 4.68481C80.859 4.6326 80.6997 4.6065 80.5205 4.6065V4.25415C80.7676 4.25415 80.9651 4.20281 81.113 4.10015C81.2626 3.99749 81.3375 3.84611 81.3375 3.646C81.3375 3.53986 81.3088 3.44242 81.2513 3.35368C81.1939 3.26493 81.1182 3.19446 81.0243 3.14226C80.932 3.08832 80.8329 3.06135 80.7267 3.06135C80.6188 3.06135 80.5153 3.08832 80.4161 3.14226C80.3169 3.19446 80.236 3.26493 80.1734 3.35368C80.1107 3.44242 80.0794 3.53986 80.0794 3.646H79.6409C79.6409 3.50506 79.6696 3.37282 79.7271 3.24927C79.7862 3.12573 79.8663 3.01698 79.9672 2.92302C80.0698 2.82905 80.1856 2.75597 80.3143 2.70377C80.4431 2.64983 80.5788 2.62286 80.7215 2.62286C80.9077 2.62286 81.0808 2.66897 81.2409 2.76119C81.401 2.85341 81.5297 2.97696 81.6272 3.13182C81.7264 3.28668 81.776 3.45808 81.776 3.646C81.776 3.81479 81.7333 3.97052 81.6481 4.1132C81.5628 4.25589 81.4471 4.35594 81.3009 4.41336C81.4279 4.45686 81.535 4.52472 81.622 4.61694C81.709 4.70743 81.7742 4.81183 81.8177 4.93015C81.863 5.04847 81.8856 5.17289 81.8856 5.30339C81.8856 5.50697 81.8325 5.69316 81.7264 5.86194C81.622 6.03073 81.4828 6.16558 81.3088 6.2665C81.1365 6.36568 80.9477 6.41527 80.7424 6.41527ZM83.3371 6.41527C83.1162 6.41527 82.9195 6.36568 82.7473 6.2665C82.5767 6.16558 82.4428 6.0316 82.3453 5.86455C82.2479 5.69577 82.1992 5.50871 82.1992 5.30339H82.6376C82.6376 5.42693 82.6664 5.54003 82.7238 5.6427C82.7812 5.74362 82.8621 5.82453 82.9665 5.88543C83.0709 5.94633 83.1945 5.97678 83.3371 5.97678C83.4607 5.97678 83.5755 5.94633 83.6817 5.88543C83.7895 5.82453 83.8765 5.74362 83.9427 5.6427C84.0088 5.54003 84.0419 5.42693 84.0419 5.30339C84.0419 5.14853 84.0018 5.01976 83.9218 4.9171C83.8435 4.8127 83.7339 4.73527 83.5929 4.68481C83.4537 4.6326 83.2945 4.6065 83.1153 4.6065V4.25415C83.3624 4.25415 83.5599 4.20281 83.7078 4.10015C83.8574 3.99749 83.9322 3.84611 83.9322 3.646C83.9322 3.53986 83.9035 3.44242 83.8461 3.35368C83.7887 3.26493 83.713 3.19446 83.619 3.14226C83.5268 3.08832 83.4276 3.06135 83.3215 3.06135C83.2136 3.06135 83.1101 3.08832 83.0109 3.14226C82.9117 3.19446 82.8308 3.26493 82.7681 3.35368C82.7055 3.44242 82.6742 3.53986 82.6742 3.646H82.2357C82.2357 3.50506 82.2644 3.37282 82.3218 3.24927C82.381 3.12573 82.461 3.01698 82.5619 2.92302C82.6646 2.82905 82.7803 2.75597 82.9091 2.70377C83.0378 2.64983 83.1736 2.62286 83.3163 2.62286C83.5024 2.62286 83.6756 2.66897 83.8357 2.76119C83.9957 2.85341 84.1245 2.97696 84.2219 3.13182C84.3211 3.28668 84.3707 3.45808 84.3707 3.646C84.3707 3.81479 84.3281 3.97052 84.2428 4.1132C84.1576 4.25589 84.0419 4.35594 83.8957 4.41336C84.0227 4.45686 84.1297 4.52472 84.2167 4.61694C84.3037 4.70743 84.369 4.81183 84.4125 4.93015C84.4577 5.04847 84.4803 5.17289 84.4803 5.30339C84.4803 5.50697 84.4273 5.69316 84.3211 5.86194C84.2167 6.03073 84.0775 6.16558 83.9035 6.2665C83.7313 6.36568 83.5425 6.41527 83.3371 6.41527ZM86.2046 6.34741V2.69333H87.4104C87.607 2.69333 87.7837 2.74118 87.9403 2.83688C88.0986 2.93259 88.2239 3.06222 88.3161 3.22578C88.4101 3.38761 88.4571 3.56857 88.4571 3.76867C88.4571 3.97226 88.4092 4.15583 88.3135 4.3194C88.2195 4.48122 88.0925 4.60998 87.9324 4.70569C87.7741 4.79965 87.6001 4.84663 87.4104 4.84663H86.6431V6.34741H86.2046ZM86.6431 4.40814H87.3713C87.4896 4.40814 87.5975 4.37943 87.6949 4.32201C87.7941 4.26285 87.8724 4.18367 87.9298 4.08449C87.989 3.98357 88.0186 3.87047 88.0186 3.74518C88.0186 3.61816 87.989 3.50506 87.9298 3.40588C87.8724 3.30495 87.7941 3.22578 87.6949 3.16836C87.5975 3.1092 87.4896 3.07962 87.3713 3.07962H86.6431V4.40814ZM88.7433 6.34741L89.4506 2.69333H89.7873L90.7739 5.28773L91.7579 2.69333H92.0946L92.8045 6.34741H92.3582L91.844 3.69559L90.9174 6.14905H90.6277L89.7012 3.69559L89.1896 6.34741H88.7433ZM93.3288 6.63974L93.4906 5.75754H93.9291L93.6211 6.63974H93.3288ZM96.1141 6.34741V3.13182H95.7044L95.827 2.69333H96.5526V6.34741H96.1141ZM97.8432 6.34741L98.6236 5.00062C98.4409 5.05456 98.2608 5.06413 98.0833 5.02933C97.9076 4.99279 97.7475 4.92145 97.6031 4.81531C97.4586 4.70743 97.3429 4.5717 97.2559 4.40814C97.1689 4.24458 97.1254 4.06274 97.1254 3.86264C97.1254 3.69211 97.1576 3.53203 97.222 3.38239C97.2864 3.23274 97.3751 3.10137 97.4882 2.98827C97.6013 2.87516 97.7318 2.78642 97.8797 2.72204C98.0294 2.65766 98.1895 2.62547 98.36 2.62547C98.5862 2.62547 98.7915 2.68115 98.9759 2.79251C99.1621 2.90388 99.3109 3.05352 99.4223 3.24144C99.5354 3.42763 99.5919 3.63469 99.5919 3.86264C99.5919 3.98618 99.5763 4.0958 99.5449 4.1915C99.5154 4.28547 99.4701 4.38813 99.4092 4.49949L98.3495 6.34741H97.8432ZM98.3548 4.6587C98.5096 4.6587 98.6471 4.62216 98.7671 4.54908C98.8889 4.47426 98.9838 4.37595 99.0516 4.25415C99.1212 4.13234 99.156 4.00184 99.156 3.86264C99.156 3.71125 99.1195 3.57553 99.0464 3.45547C98.9733 3.33367 98.8759 3.23796 98.7541 3.16836C98.6323 3.09702 98.5009 3.06135 98.36 3.06135C98.2051 3.06135 98.0668 3.09876 97.945 3.17358C97.8249 3.2484 97.7301 3.34759 97.6605 3.47113C97.5926 3.59293 97.5587 3.72343 97.5587 3.86264C97.5587 4.0088 97.5935 4.14278 97.6631 4.26459C97.7344 4.38465 97.8301 4.48035 97.9502 4.55169C98.072 4.62303 98.2069 4.6587 98.3548 4.6587ZM102.601 6.41527C102.404 6.41527 102.215 6.38482 102.032 6.32392C101.849 6.26128 101.689 6.17254 101.552 6.0577C101.416 5.94285 101.32 5.80626 101.262 5.64792L101.672 5.49392C101.707 5.59137 101.771 5.67663 101.865 5.74971C101.961 5.82105 102.073 5.87673 102.202 5.91675C102.331 5.95677 102.464 5.97678 102.601 5.97678C102.758 5.97678 102.903 5.95155 103.037 5.90109C103.173 5.84889 103.282 5.77668 103.366 5.68446C103.449 5.59224 103.491 5.48435 103.491 5.36081C103.491 5.23379 103.448 5.13026 103.361 5.05021C103.274 4.96843 103.162 4.90405 103.027 4.85707C102.891 4.80835 102.749 4.77094 102.601 4.74484C102.349 4.70308 102.123 4.64391 101.923 4.56735C101.724 4.48905 101.567 4.3803 101.45 4.2411C101.335 4.10189 101.278 3.91832 101.278 3.69037C101.278 3.47809 101.339 3.29277 101.461 3.13443C101.584 2.97609 101.747 2.85341 101.949 2.76641C102.15 2.67941 102.368 2.63591 102.601 2.63591C102.794 2.63591 102.981 2.66636 103.162 2.72726C103.345 2.78642 103.506 2.87343 103.645 2.98827C103.784 3.10311 103.884 3.24318 103.945 3.40849L103.53 3.55987C103.495 3.46069 103.43 3.37543 103.335 3.30408C103.241 3.231 103.129 3.17532 103 3.13704C102.873 3.09702 102.74 3.07701 102.601 3.07701C102.446 3.07527 102.302 3.1005 102.168 3.1527C102.034 3.2049 101.925 3.27711 101.842 3.36934C101.758 3.46156 101.716 3.56857 101.716 3.69037C101.716 3.83654 101.755 3.94877 101.831 4.02707C101.909 4.10363 102.016 4.16105 102.15 4.19933C102.284 4.23762 102.434 4.27155 102.601 4.30113C102.838 4.34115 103.057 4.40466 103.259 4.49166C103.461 4.57692 103.623 4.6909 103.744 4.83358C103.868 4.97626 103.93 5.15201 103.93 5.36081C103.93 5.57309 103.868 5.75841 103.744 5.91675C103.623 6.0751 103.461 6.19777 103.259 6.28477C103.057 6.37177 102.838 6.41527 102.601 6.41527ZM105.623 6.41527C105.383 6.41527 105.164 6.3535 104.966 6.22996C104.769 6.10642 104.612 5.94111 104.493 5.73405C104.377 5.52524 104.318 5.29469 104.318 5.04238C104.318 4.85098 104.352 4.67262 104.42 4.50732C104.488 4.34028 104.581 4.19411 104.699 4.06883C104.82 3.94181 104.959 3.84263 105.117 3.77128C105.275 3.69994 105.444 3.66427 105.623 3.66427C105.82 3.66427 106 3.70429 106.164 3.78434C106.329 3.86264 106.47 3.97226 106.587 4.1132C106.705 4.25415 106.793 4.41771 106.85 4.60389C106.909 4.79008 106.931 4.98931 106.915 5.2016H104.786C104.806 5.3495 104.855 5.48174 104.932 5.59833C105.008 5.71317 105.106 5.80452 105.224 5.87238C105.344 5.94024 105.477 5.97504 105.623 5.97678C105.78 5.97678 105.922 5.93676 106.049 5.85672C106.176 5.77494 106.279 5.66358 106.357 5.52263L106.803 5.62704C106.699 5.85846 106.541 6.04813 106.331 6.19603C106.12 6.34219 105.884 6.41527 105.623 6.41527ZM104.773 4.85707H106.474C106.46 4.71091 106.413 4.57779 106.333 4.45773C106.253 4.33593 106.152 4.23849 106.028 4.1654C105.904 4.09232 105.77 4.05578 105.623 4.05578C105.477 4.05578 105.343 4.09145 105.221 4.16279C105.1 4.23414 104.999 4.33071 104.919 4.45251C104.84 4.57257 104.792 4.70743 104.773 4.85707ZM107.794 7.65244H107.355V3.73735H107.794V4.18367C107.882 4.03055 108.001 3.90701 108.149 3.81305C108.297 3.71734 108.472 3.66949 108.676 3.66949C108.866 3.66949 109.043 3.70516 109.208 3.7765C109.375 3.84785 109.522 3.94703 109.647 4.07405C109.772 4.19933 109.87 4.34463 109.942 4.50993C110.013 4.67523 110.049 4.85272 110.049 5.04238C110.049 5.23205 110.013 5.4104 109.942 5.57745C109.87 5.74449 109.772 5.89152 109.647 6.01854C109.522 6.14383 109.375 6.24214 109.208 6.31348C109.043 6.38482 108.866 6.42049 108.676 6.42049C108.472 6.42049 108.297 6.37351 108.149 6.27955C108.001 6.18385 107.882 6.05944 107.794 5.90631V7.65244ZM108.671 4.09493C108.502 4.09493 108.354 4.13756 108.227 4.22283C108.1 4.30809 108.002 4.42206 107.932 4.56474C107.864 4.70743 107.83 4.86664 107.83 5.04238C107.83 5.21639 107.864 5.3756 107.932 5.52002C108.002 5.66445 108.099 5.77929 108.224 5.86455C108.351 5.94981 108.5 5.99244 108.671 5.99244C108.839 5.99244 108.994 5.95068 109.135 5.86716C109.276 5.7819 109.389 5.66793 109.475 5.52524C109.56 5.38082 109.602 5.21987 109.602 5.04238C109.602 4.86838 109.561 4.71004 109.477 4.56735C109.394 4.42293 109.281 4.30809 109.14 4.22283C109 4.13756 108.843 4.09493 108.671 4.09493ZM111.671 6.34741V5.95851C111.805 5.83845 111.955 5.70447 112.122 5.55656C112.289 5.40692 112.455 5.25119 112.621 5.08936C112.788 4.9258 112.941 4.76398 113.08 4.60389C113.219 4.44381 113.331 4.29243 113.417 4.14974C113.502 4.00532 113.545 3.87917 113.545 3.77128C113.545 3.64252 113.513 3.52507 113.451 3.41893C113.388 3.31104 113.304 3.22491 113.197 3.16053C113.093 3.09615 112.976 3.06396 112.848 3.06396C112.719 3.06396 112.601 3.09615 112.493 3.16053C112.387 3.22491 112.301 3.31104 112.237 3.41893C112.174 3.52507 112.143 3.64252 112.143 3.77128H111.705C111.705 3.55726 111.757 3.36412 111.861 3.19185C111.966 3.01785 112.104 2.88039 112.276 2.77946C112.448 2.6768 112.639 2.62547 112.848 2.62547C113.057 2.62547 113.246 2.6768 113.417 2.77946C113.589 2.88213 113.726 3.02046 113.829 3.19446C113.932 3.36673 113.983 3.559 113.983 3.77128C113.983 3.89309 113.954 4.02446 113.894 4.1654C113.835 4.30461 113.754 4.44816 113.652 4.59606C113.549 4.74397 113.432 4.89361 113.302 5.04499C113.171 5.19464 113.034 5.34254 112.889 5.4887C112.745 5.63487 112.601 5.77494 112.459 5.90892H114.03V6.34741H111.671ZM115.773 6.41527C115.555 6.41527 115.361 6.36655 115.188 6.26911C115.016 6.16993 114.868 6.03334 114.745 5.85933C114.621 5.68533 114.527 5.48435 114.463 5.25641C114.398 5.02672 114.366 4.78138 114.366 4.52037C114.366 4.25937 114.398 4.01402 114.463 3.78434C114.527 3.55465 114.621 3.35368 114.745 3.18141C114.868 3.00741 115.016 2.87168 115.188 2.77424C115.361 2.67506 115.555 2.62547 115.773 2.62547C115.989 2.62547 116.183 2.67506 116.355 2.77424C116.529 2.87168 116.676 3.00741 116.796 3.18141C116.918 3.35368 117.011 3.55465 117.075 3.78434C117.141 4.01402 117.174 4.25937 117.174 4.52037C117.174 4.78138 117.141 5.02672 117.075 5.25641C117.011 5.48435 116.918 5.68533 116.796 5.85933C116.676 6.03334 116.529 6.16993 116.355 6.26911C116.183 6.36655 115.989 6.41527 115.773 6.41527ZM115.773 5.97678C115.99 5.97678 116.172 5.90979 116.318 5.77581C116.466 5.64009 116.577 5.46173 116.65 5.24075C116.723 5.01976 116.759 4.77964 116.759 4.52037C116.759 4.24719 116.721 4.00097 116.645 3.78173C116.57 3.56074 116.458 3.38587 116.311 3.2571C116.164 3.12834 115.985 3.06396 115.773 3.06396C115.606 3.06396 115.46 3.10311 115.334 3.18141C115.211 3.25971 115.108 3.36673 115.026 3.50245C114.945 3.63817 114.883 3.79391 114.841 3.96965C114.801 4.14365 114.781 4.32723 114.781 4.52037C114.781 4.77964 114.818 5.02063 114.893 5.24336C114.968 5.46434 115.079 5.64183 115.225 5.77581C115.373 5.90979 115.555 5.97678 115.773 5.97678ZM117.538 6.34741V5.95851C117.672 5.83845 117.823 5.70447 117.99 5.55656C118.157 5.40692 118.323 5.25119 118.488 5.08936C118.655 4.9258 118.808 4.76398 118.948 4.60389C119.087 4.44381 119.199 4.29243 119.284 4.14974C119.369 4.00532 119.412 3.87917 119.412 3.77128C119.412 3.64252 119.381 3.52507 119.318 3.41893C119.256 3.31104 119.171 3.22491 119.065 3.16053C118.961 3.09615 118.844 3.06396 118.715 3.06396C118.586 3.06396 118.468 3.09615 118.36 3.16053C118.254 3.22491 118.169 3.31104 118.104 3.41893C118.042 3.52507 118.011 3.64252 118.011 3.77128H117.572C117.572 3.55726 117.624 3.36412 117.729 3.19185C117.833 3.01785 117.971 2.88039 118.144 2.77946C118.316 2.6768 118.506 2.62547 118.715 2.62547C118.924 2.62547 119.114 2.6768 119.284 2.77946C119.457 2.88213 119.594 3.02046 119.697 3.19446C119.799 3.36673 119.851 3.559 119.851 3.77128C119.851 3.89309 119.821 4.02446 119.762 4.1654C119.703 4.30461 119.622 4.44816 119.519 4.59606C119.416 4.74397 119.3 4.89361 119.169 5.04499C119.039 5.19464 118.901 5.34254 118.757 5.4887C118.613 5.63487 118.469 5.77494 118.326 5.90892H119.898V6.34741H117.538ZM121.832 6.34741V5.36081H120.26V4.9171L121.722 2.69333H122.27V4.92232H122.633V5.36081H122.27V6.34741H121.832ZM120.774 4.9171L121.832 4.92232L121.824 3.3093L120.774 4.9171Z" fill="#5D6A85"/>
<path d="M23.3347 52.4495C23.1876 52.6757 22.8564 52.6757 22.7094 52.4495L21.4576 50.5236C21.2964 50.2755 21.4744 49.9475 21.7702 49.9475L24.2739 49.9475C24.5697 49.9475 24.7477 50.2755 24.5865 50.5236L23.3347 52.4495Z" fill="#252E49"/>
<g clip-path="url(#clip0_29365_1643)">
<rect x="123.283" y="53.6758" width="4.47439" height="17.1518" transform="rotate(90 123.283 53.6758)" fill="#DA1E2E"/>
<rect x="106.131" y="53.6758" width="4.47439" height="43.9981" transform="rotate(90 106.131 53.6758)" fill="#F59E0B"/>
<rect x="62.1328" y="53.6758" width="4.47439" height="43.9981" transform="rotate(90 62.1328 53.6758)" fill="#10B981"/>
<rect x="18.1348" y="53.6758" width="4.47439" height="17.1518" transform="rotate(90 18.1348 53.6758)" fill="#DA1E2E"/>
</g>
<defs>
<clipPath id="clip0_29365_1643">
<path d="M121.046 53.6758C122.282 53.6758 123.283 54.6774 123.283 55.913V55.913C123.283 57.1485 122.282 58.1502 121.046 58.1502L3.22054 58.1502C1.98498 58.1502 0.983353 57.1485 0.983353 55.913V55.913C0.983353 54.6774 1.98498 53.6758 3.22055 53.6758L121.046 53.6758Z" fill="white"/>
</clipPath>
</defs>
</svg>
