<svg width="40" height="40" viewBox="0 0 40 40" fill="none" xmlns="http://www.w3.org/2000/svg">
<path d="M0 20C0 8.95431 8.95431 0 20 0C31.0457 0 40 8.95431 40 20C40 31.0457 31.0457 40 20 40C8.95431 40 0 31.0457 0 20Z" fill="#FFF1F3"/>
<path d="M19.9835 19.0734C21.1035 19.0724 21.983 18.2334 21.982 17.1669C21.981 16.1769 19.9795 13.7399 19.9795 13.7399C19.9795 13.7399 17.981 16.1034 17.982 17.1699C17.983 18.2364 18.8635 19.0744 19.9835 19.0734ZM19.991 28.0414C20.1223 28.0413 20.2523 28.0153 20.3736 27.965C20.4949 27.9146 20.6051 27.8409 20.6979 27.7479C20.7907 27.655 20.8643 27.5447 20.9144 27.4234C20.9646 27.302 20.9904 27.1719 20.9903 27.0406C20.9902 26.9093 20.9642 26.7793 20.9138 26.658C20.8635 26.5367 20.7898 26.4265 20.6968 26.3337C20.6039 26.2409 20.4936 26.1674 20.3722 26.1172C20.2509 26.067 20.1208 26.0413 19.9895 26.0414C19.7243 26.0416 19.47 26.1471 19.2826 26.3348C19.0952 26.5225 18.9901 26.7769 18.9903 27.0421C18.9905 27.3073 19.096 27.5616 19.2837 27.749C19.4714 27.9364 19.7258 28.0416 19.991 28.0414Z" fill="#FE495B"/>
<path fill-rule="evenodd" clip-rule="evenodd" d="M14.476 10.0459C14.0783 10.0463 13.697 10.2046 13.416 10.4861C13.135 10.7676 12.9772 11.1491 12.9775 11.5469L12.9875 24.0469C12.9876 24.2439 13.0266 24.439 13.1021 24.6209C13.1777 24.8029 13.2883 24.9682 13.4277 25.1074C13.5672 25.2466 13.7327 25.357 13.9148 25.4322C14.0968 25.5075 14.292 25.5461 14.489 25.5459L16.864 25.5439C16.906 25.5436 16.9479 25.5392 16.989 25.5309L16.9925 30.0434L22.9925 30.0384L22.989 25.5264C23.029 25.5344 23.0707 25.5384 23.114 25.5384L25.489 25.5369C25.686 25.5367 25.881 25.4977 26.0629 25.4221C26.2448 25.3466 26.4101 25.2359 26.5492 25.0965C26.6884 24.9571 26.7987 24.7916 26.8739 24.6095C26.9491 24.4275 26.9877 24.2324 26.9875 24.0354L26.9775 11.5354C26.9774 11.3384 26.9384 11.1433 26.8629 10.9613C26.7874 10.7793 26.6767 10.614 26.5373 10.4748C26.3978 10.3356 26.2324 10.2253 26.0503 10.15C25.8682 10.0748 25.673 10.0362 25.476 10.0364L14.476 10.0459ZM24.478 12.0374L15.478 12.0449L15.485 21.0449L24.485 21.0374L24.478 12.0374ZM15.9865 22.7949C15.9865 22.6623 16.0392 22.5351 16.133 22.4413C16.2267 22.3476 16.3539 22.2949 16.4865 22.2949L18.4865 22.2929C18.6191 22.2928 18.7463 22.3454 18.8401 22.4391C18.9339 22.5329 18.9867 22.66 18.9868 22.7926C18.9868 22.9252 18.9342 23.0524 18.8405 23.1463C18.7468 23.2401 18.6196 23.2928 18.487 23.2929L16.487 23.2944C16.3545 23.2944 16.2274 23.2418 16.1336 23.1481C16.0399 23.0544 15.9871 22.9274 15.987 22.7949M21.487 22.2904C21.3544 22.2904 21.2272 22.3432 21.1335 22.437C21.0398 22.5308 20.9872 22.658 20.9873 22.7906C20.9873 22.9232 21.0401 23.0504 21.1339 23.1441C21.2277 23.2378 21.3549 23.2904 21.4875 23.2904L23.4875 23.2889C23.5532 23.2888 23.6182 23.2758 23.6788 23.2506C23.7394 23.2254 23.7945 23.1886 23.8409 23.1421C23.8873 23.0956 23.9241 23.0404 23.9491 22.9798C23.9742 22.9191 23.9871 22.854 23.987 22.7884C23.9869 22.7227 23.9739 22.6577 23.9488 22.5971C23.9236 22.5364 23.8867 22.4814 23.8402 22.435C23.7937 22.3886 23.7386 22.3518 23.6779 22.3267C23.6172 22.3017 23.5522 22.2888 23.4865 22.2889L21.487 22.2904ZM21.9885 24.5404L17.9885 24.5434L17.9925 29.0434L21.9925 29.0399L21.9885 24.5404Z" fill="#FE495B"/>
</svg>
