<svg width="23" height="25" viewBox="0 0 23 25" fill="none" xmlns="http://www.w3.org/2000/svg">
<g clip-path="url(#clip0_29734_9728)">
<path d="M10.9333 11.918L0.647461 22.8848C0.76297 23.3014 0.970544 23.6856 1.25431 24.008C1.53808 24.3305 1.89054 24.5826 2.28473 24.7452C2.67893 24.9077 3.10443 24.9764 3.52871 24.946C3.95299 24.9155 4.36481 24.7868 4.7327 24.5696L16.3062 17.8616L10.9333 11.918Z" fill="#EA4335"/>
<path d="M21.3341 10.0542L16.3293 7.13693L10.6958 12.1679L16.3522 17.8463L21.3189 14.9603C21.7589 14.7258 22.1274 14.3733 22.3846 13.9408C22.6417 13.5084 22.7776 13.0126 22.7776 12.5072C22.7776 12.0018 22.6417 11.506 22.3846 11.0736C22.1274 10.6412 21.7589 10.2886 21.3189 10.0542L21.3341 10.0542Z" fill="#FBBC04"/>
<path d="M0.647705 2.0752C0.585569 2.30911 0.55462 2.55047 0.555691 2.79277V22.1679C0.556304 22.4102 0.587224 22.6513 0.647705 22.8856L11.2862 12.1996L0.647705 2.0752Z" fill="#4285F4"/>
<path d="M11.01 12.48L16.3292 7.13702L4.77107 0.397797C4.3362 0.138628 3.8416 0.00137152 3.33765 5.41787e-06C2.08704 -0.00246808 0.987565 0.842232 0.647461 2.06705L11.01 12.48Z" fill="#34A853"/>
</g>
<defs>
<clipPath id="clip0_29734_9728">
<rect width="22.2222" height="25" fill="white" transform="translate(0.555664)"/>
</clipPath>
</defs>
</svg>
