<svg width="24" height="25" viewBox="0 0 24 25" fill="none" xmlns="http://www.w3.org/2000/svg">
<g clip-path="url(#clip0_29878_13321)">
<path d="M8.36104 1.28992C5.96307 2.1218 3.89506 3.70073 2.46078 5.7948C1.02649 7.88887 0.301526 10.3877 0.392371 12.9242C0.483217 15.4608 1.38508 17.9013 2.9655 19.8874C4.54592 21.8735 6.72158 23.3005 9.17292 23.9587C11.1603 24.4715 13.2424 24.494 15.2404 24.0243C17.0504 23.6177 18.7238 22.7481 20.0967 21.5005C21.5256 20.1624 22.5627 18.4602 23.0967 16.5768C23.677 14.5287 23.7803 12.3748 23.3985 10.2805H12.2385V14.9099H18.7017C18.5725 15.6483 18.2957 16.353 17.8878 16.9819C17.48 17.6107 16.9494 18.1509 16.3279 18.5699C15.5387 19.092 14.649 19.4432 13.716 19.6012C12.7803 19.7752 11.8205 19.7752 10.8848 19.6012C9.9364 19.4051 9.03923 19.0137 8.25042 18.4518C6.9832 17.5548 6.03169 16.2804 5.53167 14.8105C5.02319 13.3132 5.02319 11.6898 5.53167 10.1924C5.88759 9.14283 6.47598 8.18717 7.25292 7.3968C8.14203 6.4757 9.26766 5.81729 10.5063 5.49381C11.745 5.17034 13.0488 5.19429 14.2748 5.56305C15.2325 5.85703 16.1083 6.37068 16.8323 7.06305C17.561 6.33805 18.2885 5.61117 19.0148 4.88242C19.3898 4.49055 19.7985 4.11742 20.1679 3.71617C19.0627 2.68769 17.7654 1.8874 16.3504 1.36117C13.7736 0.425527 10.9541 0.400382 8.36104 1.28992Z" fill="white"/>
<path d="M8.3607 1.29083C10.9536 0.400689 13.7731 0.425171 16.3501 1.36021C17.7654 1.89001 19.062 2.69415 20.1657 3.72646C19.7907 4.12771 19.3951 4.50271 19.0126 4.89271C18.2851 5.61896 17.5582 6.34271 16.832 7.06396C16.1079 6.37159 15.2321 5.85794 14.2745 5.56396C13.0489 5.19391 11.7451 5.16857 10.5061 5.49072C9.26712 5.81288 8.14079 6.47007 7.2507 7.39021C6.47377 8.18059 5.88538 9.13624 5.52945 10.1858L1.64258 7.17646C3.03384 4.41751 5.44273 2.30713 8.3607 1.29083Z" fill="#E33629"/>
<path d="M0.611401 10.157C0.820316 9.12164 1.16716 8.11896 1.64265 7.17578L5.52953 10.1927C5.02105 11.69 5.02105 13.3134 5.52953 14.8108C4.23453 15.8108 2.9389 16.8158 1.64265 17.8258C0.452308 15.4564 0.0892746 12.7567 0.611401 10.157Z" fill="#F8BD00"/>
<path d="M12.2372 10.2773H23.3972C23.7789 12.3716 23.6756 14.5255 23.0953 16.5736C22.5614 18.457 21.5242 20.1592 20.0953 21.4973C18.8409 20.5186 17.5809 19.5473 16.3265 18.5686C16.9484 18.1491 17.4792 17.6084 17.8871 16.9788C18.295 16.3493 18.5716 15.6439 18.7003 14.9048H12.2372C12.2353 13.3636 12.2372 11.8205 12.2372 10.2773Z" fill="#587DBD"/>
<path d="M1.64062 17.8236C2.93687 16.8236 4.2325 15.8186 5.5275 14.8086C6.02851 16.279 6.98138 17.5534 8.25 18.4498C9.04127 19.0091 9.94037 19.3973 10.89 19.5898C11.8257 19.7638 12.7855 19.7638 13.7213 19.5898C14.6542 19.4319 15.5439 19.0806 16.3331 18.5586C17.5875 19.5373 18.8475 20.5086 20.1019 21.4873C18.7292 22.7356 17.0558 23.6059 15.2456 24.013C13.2476 24.4827 11.1655 24.4601 9.17813 23.9473C7.60632 23.5277 6.13814 22.7878 4.86563 21.7742C3.51874 20.7049 2.41867 19.3573 1.64062 17.8236Z" fill="#319F43"/>
</g>
<defs>
<clipPath id="clip0_29878_13321">
<rect width="24" height="24" fill="white" transform="translate(0 0.5)"/>
</clipPath>
</defs>
</svg>
