<svg width="18" height="18" viewBox="0 0 18 18" fill="none" xmlns="http://www.w3.org/2000/svg">
<path d="M9 13.1663C11.3012 13.1663 13.1667 11.3008 13.1667 8.99959C13.1667 6.69841 11.3012 4.83293 9 4.83293C6.69881 4.83293 4.83333 6.69841 4.83333 8.99959C4.83333 11.3008 6.69881 13.1663 9 13.1663Z" fill="#2563EB"/>
<path fill-rule="evenodd" clip-rule="evenodd" d="M9 0.66626C4.39763 0.66626 0.666666 4.39722 0.666666 8.99959C0.666666 13.602 4.39763 17.3329 9 17.3329C13.6024 17.3329 17.3333 13.602 17.3333 8.99959C17.3333 4.39722 13.6024 0.66626 9 0.66626ZM2.33333 8.99959C2.33333 5.31769 5.3181 2.33293 9 2.33293C12.6819 2.33293 15.6667 5.31769 15.6667 8.99959C15.6667 12.6815 12.6819 15.6663 9 15.6663C5.3181 15.6663 2.33333 12.6815 2.33333 8.99959Z" fill="#2563EB"/>
</svg>
