<svg width="32" height="32" viewBox="0 0 32 32" fill="none" xmlns="http://www.w3.org/2000/svg">
<path d="M0 16C0 7.16344 7.16344 0 16 0C24.8366 0 32 7.16344 32 16C32 24.8366 24.8366 32 16 32C7.16344 32 0 24.8366 0 16Z" fill="#F6F2FF"/>
<path d="M12.8668 10.1545L13.1232 10.9238C13.2559 11.3219 13.5683 11.6343 13.9665 11.7671L14.7358 12.0235C15.141 12.1586 15.141 12.7317 14.7358 12.8668L13.9665 13.1232C13.5683 13.2559 13.2559 13.5683 13.1232 13.9665L12.8668 14.7358C12.7317 15.141 12.1586 15.141 12.0235 14.7358L11.7671 13.9665C11.6343 13.5683 11.3219 13.2559 10.9238 13.1232L10.1545 12.8668C9.74929 12.7317 9.74929 12.1586 10.1545 12.0235L10.9238 11.7671C11.3219 11.6343 11.6343 11.3219 11.7671 10.9238L12.0235 10.1545C12.1586 9.74929 12.7317 9.74929 12.8668 10.1545Z" fill="#A56EFF"/>
<path fill-rule="evenodd" clip-rule="evenodd" d="M16.6189 14.6947C16.6838 14.538 16.7373 14.3773 16.779 14.2137C16.9005 13.738 17.2875 13.334 17.7785 13.334C18.2694 13.334 18.6564 13.738 18.7779 14.2137C18.8197 14.3773 18.8731 14.538 18.938 14.6947C19.1167 15.126 19.3786 15.518 19.7087 15.8482C20.0389 16.1783 20.4309 16.4402 20.8623 16.6189C21.0189 16.6838 21.1797 16.7373 21.3432 16.779C21.8189 16.9005 22.2229 17.2875 22.2229 17.7785C22.2229 18.2694 21.8189 18.6564 21.3432 18.7779C21.1797 18.8197 21.0189 18.8731 20.8623 18.938C20.4309 19.1167 20.0389 19.3786 19.7087 19.7087C19.3786 20.0389 19.1167 20.4309 18.938 20.8623C18.8731 21.0189 18.8197 21.1797 18.7779 21.3432C18.6564 21.8189 18.2694 22.2229 17.7785 22.2229C17.2875 22.2229 16.9005 21.8189 16.779 21.3432C16.7373 21.1797 16.6838 21.0189 16.6189 20.8623C16.4402 20.4309 16.1783 20.0389 15.8482 19.7087C15.518 19.3786 15.126 19.1167 14.6947 18.938C14.538 18.8731 14.3773 18.8197 14.2137 18.7779C13.738 18.6564 13.334 18.2694 13.334 17.7785C13.334 17.2875 13.738 16.9005 14.2137 16.779C14.3773 16.7373 14.538 16.6838 14.6947 16.6189C15.126 16.4402 15.518 16.1783 15.8482 15.8482C16.1783 15.518 16.4402 15.126 16.6189 14.6947Z" fill="#A56EFF"/>
</svg>
