<svg width="24" height="25" viewBox="0 0 24 25" fill="none" xmlns="http://www.w3.org/2000/svg">
<path d="M17.5 6.80859H17.51M7 2.30859H17C19.7614 2.30859 22 4.54717 22 7.30859V17.3086C22 20.07 19.7614 22.3086 17 22.3086H7C4.23858 22.3086 2 20.07 2 17.3086V7.30859C2 4.54717 4.23858 2.30859 7 2.30859ZM16 11.6786C16.1234 12.5108 15.9813 13.3608 15.5938 14.1076C15.2063 14.8544 14.5931 15.46 13.8416 15.8383C13.0901 16.2165 12.2384 16.3482 11.4078 16.2145C10.5771 16.0809 9.80976 15.6887 9.21484 15.0938C8.61992 14.4988 8.22773 13.7315 8.09407 12.9008C7.9604 12.0701 8.09207 11.2185 8.47033 10.467C8.84859 9.71545 9.45419 9.10233 10.201 8.71484C10.9478 8.32734 11.7978 8.18518 12.63 8.30859C13.4789 8.43448 14.2649 8.83006 14.8717 9.4369C15.4785 10.0437 15.8741 10.8297 16 11.6786Z" stroke="#0048CE" stroke-width="2" stroke-linecap="round" stroke-linejoin="round"/>
</svg>
