<svg width="89" height="19" viewBox="0 0 89 19" fill="none" xmlns="http://www.w3.org/2000/svg">
<path d="M45.4168 6.24786C45.2281 5.84859 44.9798 5.49207 44.6731 5.18071C44.3652 4.86936 43.9916 4.6215 43.551 4.43835C43.1092 4.2552 42.5944 4.16362 42.0041 4.16362C41.2008 4.16362 40.4888 4.34067 39.8681 4.69476C39.3995 4.96216 39.0064 5.32601 38.6912 5.78511V1.11359H37.4765V14.3003H38.8275V9.02562C38.8275 8.46396 38.8908 7.96335 39.0185 7.5238C39.1463 7.08424 39.3338 6.71062 39.5796 6.4017C39.8255 6.09401 40.1298 5.85714 40.4924 5.69231C40.8539 5.52747 41.2726 5.44445 41.7473 5.44445C42.2645 5.44445 42.7039 5.53968 43.0666 5.72894C43.4281 5.91819 43.7238 6.18559 43.9526 6.52991C44.1814 6.87423 44.347 7.27716 44.4504 7.73869C44.5539 8.20023 44.6062 8.7045 44.6062 9.25394V14.2991H45.9572V8.85956C45.9572 8.4139 45.9146 7.96702 45.8294 7.51769C45.7442 7.06837 45.6066 6.64469 45.418 6.2442L45.4168 6.24786Z" fill="white"/>
<path d="M54.9327 4.81339C54.245 4.36407 53.4137 4.14062 52.4413 4.14062C51.4688 4.14062 50.6692 4.3543 49.9718 4.78165C49.2744 5.20899 48.7353 5.81583 48.3519 6.60459C47.9685 7.39213 47.7762 8.32619 47.7762 9.40677C47.7762 10.4873 47.9709 11.3604 48.3604 12.1357C48.7499 12.911 49.2963 13.513 49.9986 13.9403C50.7021 14.3677 51.5333 14.5813 52.4948 14.5813C53.4563 14.5813 54.3071 14.3445 55.0641 13.8719C55.8211 13.3994 56.3956 12.7315 56.7851 11.8707L55.5351 11.386C55.2308 12.0026 54.8158 12.4739 54.2888 12.8011C53.7618 13.1283 53.146 13.2907 52.4401 13.2907C51.4055 13.2907 50.6071 12.9476 50.0436 12.2602C49.5385 11.6448 49.2622 10.8024 49.2099 9.73765H56.9762C57.0066 8.57771 56.8447 7.57894 56.4918 6.74256C56.1388 5.90618 55.6191 5.26394 54.9302 4.81462L54.9327 4.81339ZM50.0448 6.41045C50.6071 5.72058 51.4189 5.37627 52.4778 5.37627C53.5367 5.37627 54.256 5.70349 54.783 6.35672C55.2162 6.89396 55.4791 7.64609 55.5716 8.60945H49.2391C49.3316 7.69371 49.5982 6.95867 50.0448 6.41167V6.41045Z" fill="white"/>
<path d="M66.2911 6.11863C66.0294 5.47761 65.584 4.98799 64.9535 4.64855C64.3231 4.31034 63.5587 4.14062 62.6581 4.14062C61.5688 4.14062 60.6828 4.38482 60.0024 4.87322C59.3208 5.36162 58.8669 6.04904 58.6417 6.93426L59.9464 7.31887C60.1351 6.65954 60.4625 6.17724 60.9274 5.87199C61.3935 5.56674 61.9631 5.41412 62.6386 5.41412C63.6184 5.41412 64.306 5.64977 64.7016 6.11986C65.0655 6.55331 65.2529 7.2041 65.2651 8.06612C64.9438 8.11129 64.5957 8.15647 64.2123 8.20287C63.6305 8.27247 63.0378 8.35549 62.4329 8.4495C61.828 8.54474 61.2755 8.65219 60.7765 8.77429C60.2836 8.9025 59.8503 9.08809 59.4754 9.33229C59.1005 9.57649 58.806 9.88906 58.5894 10.2712C58.3727 10.6522 58.2656 11.1125 58.2656 11.6497C58.2656 12.187 58.3898 12.6607 58.6393 13.1064C58.8888 13.552 59.2649 13.9086 59.7663 14.1784C60.2677 14.447 60.8909 14.5813 61.6333 14.5813C62.6191 14.5813 63.465 14.3579 64.1709 13.9134C64.6687 13.5996 65.0716 13.1833 65.3856 12.668V14.3066H66.5808V8.16257C66.5808 7.79628 66.5625 7.43609 66.526 7.082C66.4895 6.72791 66.4104 6.40679 66.2887 6.11986L66.2911 6.11863ZM65.1227 10.817C65.0375 11.3115 64.8525 11.756 64.5665 12.1491C64.2805 12.5423 63.9032 12.8524 63.4346 13.0783C62.966 13.3042 62.4183 13.4165 61.7915 13.4165C61.2621 13.4165 60.8373 13.3286 60.5185 13.1515C60.1996 12.9745 59.9671 12.7511 59.8247 12.4837C59.6811 12.215 59.6105 11.9379 59.6105 11.6497C59.6105 11.2956 59.6945 11.0002 59.8612 10.7608C60.028 10.5227 60.2434 10.3323 60.5051 10.1882C60.7667 10.0453 61.0369 9.93301 61.3169 9.85365C61.7307 9.74376 62.1944 9.64852 62.7092 9.56916C63.2228 9.48979 63.7474 9.42019 64.2793 9.35914C64.6188 9.32007 64.9414 9.28101 65.2493 9.24193C65.2481 9.38967 65.2456 9.56427 65.242 9.76574C65.2359 10.1467 65.1957 10.4971 65.1239 10.8146L65.1227 10.817Z" fill="white"/>
<path d="M70.4803 0.83783H69.139V14.2993H70.4803V0.83783Z" fill="white"/>
<path d="M75.5635 1.6709H74.2308V4.41813H72.1216V5.57197H74.2308V10.727C74.2308 11.2093 74.2381 11.6379 74.2539 12.0139C74.2685 12.3888 74.3647 12.76 74.5412 13.1263C74.7602 13.5658 75.0815 13.8894 75.5039 14.0969C75.9262 14.3045 76.4082 14.4205 76.9461 14.4449C77.4841 14.4693 78.0305 14.4229 78.5843 14.3082V13.1275C77.8784 13.2435 77.2869 13.2618 76.8086 13.1824C76.3303 13.1031 75.9822 12.8589 75.7631 12.4498C75.6475 12.2361 75.5854 11.9907 75.5757 11.7123C75.5659 11.434 75.5623 11.0884 75.5623 10.6733V5.57319H78.5831V4.41935H75.5623V1.67212L75.5635 1.6709Z" fill="white"/>
<path d="M88.8709 7.52136C88.7857 7.07204 88.6482 6.64835 88.4596 6.24787C88.2709 5.8486 88.0226 5.49207 87.7159 5.18071C87.408 4.86936 87.0344 4.6215 86.5938 4.43835C86.152 4.25521 85.6371 4.16363 85.0469 4.16363C84.2436 4.16363 83.5316 4.34067 82.9109 4.69476C82.4423 4.96216 82.0492 5.32601 81.7339 5.78511V1.11359H80.5193V14.3003H81.8703V9.02562C81.8703 8.46397 81.9335 7.96335 82.0613 7.5238C82.1891 7.08424 82.3766 6.71062 82.6224 6.4017C82.8683 6.09401 83.1725 5.85714 83.5352 5.69231C83.8967 5.52747 84.3154 5.44445 84.7901 5.44445C85.3073 5.44445 85.7467 5.53969 86.1094 5.72894C86.4708 5.9182 86.7666 6.1856 86.9954 6.52992C87.2242 6.87424 87.3897 7.27716 87.4932 7.73869C87.5967 8.20023 87.649 8.7045 87.649 9.25395V14.2991H89V8.85956C89 8.4139 88.9574 7.96702 88.8722 7.51769L88.8709 7.52136Z" fill="white"/>
<path d="M17.7735 5.93549C17.4267 5.27615 16.9155 4.81217 16.24 4.54355C15.5645 4.27493 14.7917 4.14062 13.9214 4.14062C12.7348 4.14062 11.7976 4.39703 11.11 4.90985C10.4223 5.42267 9.95374 6.08811 9.70424 6.90618L11.9498 7.62045C12.108 7.16869 12.3843 6.85489 12.781 6.67785C13.1766 6.50081 13.5575 6.41167 13.9227 6.41167C14.5799 6.41167 15.0485 6.54842 15.3284 6.82436C15.5475 7.03926 15.6801 7.35184 15.7276 7.75965C15.3089 7.82314 14.9097 7.88174 14.5349 7.93791C13.8959 8.03315 13.3239 8.13205 12.8188 8.23583C12.3137 8.33962 11.8792 8.45927 11.514 8.59358C10.9846 8.78894 10.5635 9.03192 10.2495 9.32129C9.93548 9.61189 9.70911 9.94522 9.56914 10.3237C9.42918 10.7022 9.3598 11.121 9.3598 11.5789C9.3598 12.1284 9.48638 12.6302 9.73832 13.0856C9.99025 13.541 10.3615 13.9037 10.852 14.1747C11.3412 14.4458 11.94 14.5826 12.6459 14.5826C13.4979 14.5826 14.2026 14.4348 14.7588 14.1381C15.1982 13.9049 15.6132 13.5545 16.0051 13.0917V14.3078H18.1776V8.26392C18.1776 7.81215 18.1593 7.40311 18.1228 7.03682C18.0863 6.67052 17.9707 6.30422 17.776 5.93792L17.7735 5.93549ZM15.455 11.3017C15.388 11.4422 15.2615 11.6168 15.0765 11.8243C14.8915 12.0319 14.642 12.2163 14.328 12.3787C14.0139 12.541 13.6293 12.6216 13.1729 12.6216C12.8869 12.6216 12.6399 12.5789 12.4329 12.4934C12.226 12.408 12.0666 12.2846 11.9534 12.1223C11.8402 11.9611 11.7842 11.7669 11.7842 11.5411C11.7842 11.3762 11.8195 11.2273 11.8889 11.093C11.9583 10.9586 12.0678 10.8353 12.2175 10.7218C12.366 10.6082 12.5632 10.5032 12.8066 10.4055C13.0196 10.3262 13.2654 10.2529 13.5454 10.1858C13.8253 10.1186 14.1941 10.0441 14.6505 9.96109C14.9438 9.90859 15.2955 9.84754 15.7045 9.77795C15.6996 9.95255 15.6911 10.1455 15.6777 10.364C15.6558 10.7218 15.5816 11.0343 15.4538 11.303L15.455 11.3017Z" fill="white"/>
<path d="M27.7286 4.81827C27.0288 4.36651 26.2073 4.14062 25.264 4.14062C24.3208 4.14062 23.5382 4.37017 22.8992 4.82682C22.8396 4.86956 22.7824 4.91473 22.7264 4.96113V4.41535H20.5356V18.701H23.0368V13.9574C23.6769 14.3713 24.4608 14.5801 25.3918 14.5801C26.3229 14.5801 27.0921 14.3506 27.7749 13.8939C28.4565 13.436 28.9871 12.8133 29.3681 12.0258C29.7478 11.2383 29.9389 10.3494 29.9389 9.36037C29.9389 8.37137 29.7453 7.45684 29.3595 6.67296C28.9725 5.88909 28.4297 5.27004 27.7299 4.81827H27.7286ZM27.0617 10.8756C26.8974 11.331 26.6442 11.6925 26.3034 11.9611C25.9626 12.2297 25.5245 12.364 24.989 12.364C24.4535 12.364 23.9922 12.2395 23.6611 11.9892C23.3289 11.7389 23.0903 11.3884 22.9443 10.9367C22.7982 10.4849 22.7252 9.95988 22.7252 9.36159C22.7252 8.7633 22.7982 8.23828 22.9443 7.78651C23.0903 7.33474 23.3228 6.98432 23.6429 6.73401C23.9617 6.48371 24.3804 6.35917 24.8977 6.35917C25.4515 6.35917 25.9067 6.4947 26.262 6.76698C26.6174 7.03804 26.8815 7.4019 27.0519 7.85611C27.2223 8.31154 27.3075 8.81337 27.3075 9.36281C27.3075 9.91226 27.226 10.4239 27.0617 10.8781V10.8756Z" fill="white"/>
<path d="M34.5641 12.0388H32.3088V14.3013H34.5641V12.0388Z" fill="white"/>
<path d="M4.95051 10.4011H2.49341C2.49341 10.9872 2.49943 11.5116 2.51147 11.9731C2.52352 12.4359 2.64999 12.8903 2.89088 13.3374C3.15586 13.8146 3.54249 14.1602 4.05198 14.3753C4.56026 14.5904 5.13961 14.704 5.78641 14.7197C6.43441 14.7342 7.09445 14.6786 7.76895 14.5517V12.5036C7.19081 12.5821 6.66325 12.6063 6.1887 12.5761C5.71293 12.5459 5.36605 12.3586 5.15045 12.0142C5.03603 11.833 4.9746 11.5901 4.96496 11.2844C4.95533 10.9799 4.95171 10.7817 4.95171 10.4011L4.95051 10.4011Z" fill="white"/>
<path fill-rule="evenodd" clip-rule="evenodd" d="M4.95728 1.40771H2.47267V3.88035H0V6.36497H2.47267V8.83761H4.95728V6.36497H7.42843V3.88035H4.95728V1.40771Z" fill="white"/>
</svg>
