<svg width="107" height="22" viewBox="0 0 107 22" fill="none" xmlns="http://www.w3.org/2000/svg">
<path d="M54.4886 6.65118C54.2622 6.16037 53.9644 5.7221 53.5964 5.33936C53.227 4.95662 52.7787 4.65193 52.2501 4.42679C51.7201 4.20165 51.1024 4.08908 50.3942 4.08908C49.4305 4.08908 48.5763 4.30672 47.8316 4.74199C47.2694 5.0707 46.7978 5.51797 46.4196 6.08232V0.339752H44.9624V16.5498H46.5832V10.0658C46.5832 9.37537 46.6591 8.75999 46.8124 8.21965C46.9657 7.67932 47.1906 7.22003 47.4855 6.84029C47.7805 6.46206 48.1455 6.17088 48.5807 5.96825C49.0144 5.76563 49.5167 5.66357 50.0861 5.66357C50.7067 5.66357 51.2338 5.78063 51.669 6.01328C52.1026 6.24592 52.4575 6.57463 52.732 6.99789C53.0065 7.42115 53.2051 7.91647 53.3292 8.48382C53.4533 9.05117 53.5161 9.67105 53.5161 10.3465V16.5483H55.1369V9.86167C55.1369 9.31383 55.0858 8.76449 54.9836 8.21215C54.8813 7.65981 54.7163 7.13898 54.49 6.64668L54.4886 6.65118Z" fill="#252E49"/>
<path d="M65.9042 4.88756C65.0792 4.33522 64.0819 4.06055 62.9153 4.06055C61.7486 4.06055 60.7892 4.32321 59.9526 4.84854C59.1159 5.37386 58.469 6.11983 58.0091 7.08943C57.5491 8.05753 57.3184 9.20575 57.3184 10.5341C57.3184 11.8624 57.552 12.9356 58.0193 13.8887C58.4865 14.8417 59.1422 15.5817 59.9847 16.107C60.8287 16.6324 61.826 16.895 62.9795 16.895C64.1331 16.895 65.1537 16.6038 66.0619 16.023C66.9702 15.4421 67.6594 14.6211 68.1266 13.563L66.627 12.9671C66.262 13.725 65.7641 14.3044 65.1318 14.7067C64.4996 15.1089 63.7607 15.3085 62.9138 15.3085C61.6726 15.3085 60.7148 14.8868 60.0387 14.0418C59.4327 13.2853 59.1013 12.2496 59.0385 10.9408H68.3559C68.3924 9.51493 68.1982 8.28717 67.7747 7.25903C67.3513 6.2309 66.7278 5.44141 65.9013 4.88906L65.9042 4.88756ZM60.0402 6.85078C60.7148 6.00275 61.6887 5.57949 62.9591 5.57949C64.2294 5.57949 65.0924 5.98174 65.7246 6.78473C66.2445 7.44515 66.5599 8.36972 66.6708 9.55396H59.0735C59.1845 8.42826 59.5043 7.5247 60.0402 6.85228V6.85078Z" fill="#252E49"/>
<path d="M79.5308 6.49206C79.2169 5.70407 78.6825 5.10219 77.9261 4.68493C77.1697 4.26917 76.2527 4.06055 75.1722 4.06055C73.8653 4.06055 72.8023 4.36073 71.9861 4.96111C71.1684 5.56148 70.6237 6.40651 70.3536 7.49468L71.9189 7.96748C72.1452 7.15698 72.538 6.5641 73.0958 6.18887C73.6551 5.81364 74.3384 5.62602 75.1488 5.62602C76.3243 5.62602 77.1493 5.9157 77.6238 6.49356C78.0604 7.02639 78.2853 7.82639 78.2999 8.88605C77.9144 8.94158 77.4968 8.99712 77.0368 9.05415C76.3389 9.13971 75.6278 9.24176 74.9021 9.35734C74.1763 9.47441 73.5134 9.6065 72.9148 9.75659C72.3234 9.91419 71.8036 10.1423 71.3538 10.4425C70.9041 10.7427 70.5507 11.1269 70.2908 11.5967C70.0309 12.065 69.9024 12.6309 69.9024 13.2913C69.9024 13.9517 70.0513 14.5341 70.3507 15.0819C70.65 15.6297 71.1012 16.068 71.7028 16.3997C72.3044 16.7299 73.052 16.895 73.9427 16.895C75.1255 16.895 76.1403 16.6204 76.9872 16.074C77.5844 15.6883 78.0677 15.1765 78.4444 14.5431V16.5573H79.8783V9.00462C79.8783 8.55434 79.8564 8.11157 79.8126 7.6763C79.7688 7.24103 79.6739 6.84628 79.5279 6.49356L79.5308 6.49206ZM78.1291 12.2676C78.0268 12.8755 77.8049 13.4219 77.4617 13.9052C77.1186 14.3885 76.666 14.7697 76.1038 15.0474C75.5416 15.3251 74.8845 15.4631 74.1325 15.4631C73.4974 15.4631 72.9878 15.3551 72.6052 15.1374C72.2226 14.9198 71.9437 14.6451 71.7729 14.3164C71.6006 13.9862 71.5159 13.6455 71.5159 13.2913C71.5159 12.856 71.6167 12.4928 71.8167 12.1986C72.0167 11.9059 72.2752 11.6718 72.5891 11.4947C72.9031 11.3191 73.2272 11.181 73.5631 11.0834C74.0595 10.9483 74.6159 10.8313 75.2335 10.7337C75.8497 10.6361 76.4791 10.5506 77.1171 10.4755C77.5245 10.4275 77.9115 10.3795 78.2809 10.3314C78.2794 10.5131 78.2765 10.7277 78.2721 10.9753C78.2648 11.4436 78.2167 11.8744 78.1305 12.2646L78.1291 12.2676Z" fill="#252E49"/>
<path d="M84.558 0H82.9489V16.5478H84.558V0Z" fill="#252E49"/>
<path d="M90.6565 1.02276H89.0576V4.39986H86.5272V5.81824H89.0576V12.1552C89.0576 12.748 89.0664 13.2749 89.0854 13.7372C89.1029 14.198 89.2183 14.6542 89.43 15.1045C89.6928 15.6449 90.0783 16.0426 90.585 16.2978C91.0917 16.5529 91.6699 16.6955 92.3153 16.7255C92.9607 16.7555 93.6163 16.6985 94.2807 16.5574V15.106C93.4338 15.2486 92.7242 15.2711 92.1503 15.1736C91.5765 15.076 91.1588 14.7758 90.896 14.273C90.7573 14.0103 90.6828 13.7086 90.6711 13.3664C90.6595 13.0242 90.6551 12.5995 90.6551 12.0891V5.81974H94.2792V4.40136H90.6551V1.02426L90.6565 1.02276Z" fill="#252E49"/>
<path d="M106.622 8.21666C106.52 7.66431 106.355 7.14349 106.129 6.65118C105.902 6.16038 105.605 5.7221 105.237 5.33936C104.867 4.95662 104.419 4.65194 103.89 4.4268C103.36 4.20166 102.743 4.08909 102.034 4.08909C101.071 4.08909 100.216 4.30672 99.4718 4.74199C98.9096 5.0707 98.438 5.51797 98.0598 6.08232V0.339752H96.6026V16.5498H98.2234V10.0658C98.2234 9.37538 98.2993 8.75999 98.4526 8.21965C98.6059 7.67932 98.8308 7.22003 99.1257 6.84029C99.4207 6.46206 99.7857 6.17088 100.221 5.96825C100.655 5.76563 101.157 5.66357 101.726 5.66357C102.347 5.66357 102.874 5.78064 103.309 6.01329C103.743 6.24593 104.098 6.57464 104.372 6.9979C104.647 7.42116 104.845 7.91647 104.969 8.48382C105.093 9.05117 105.156 9.67106 105.156 10.3465V16.5483H106.777V9.86167C106.777 9.31383 106.726 8.76449 106.624 8.21215L106.622 8.21666Z" fill="#252E49"/>
<path d="M21.3241 6.26692C20.9079 5.45642 20.2946 4.88606 19.4842 4.55585C18.6739 4.22565 17.7466 4.06055 16.7026 4.06055C15.2789 4.06055 14.1546 4.37574 13.3296 5.00613C12.5046 5.63652 11.9424 6.45454 11.6431 7.46016L14.3371 8.33821C14.5269 7.78286 14.8584 7.39713 15.3344 7.17949C15.809 6.96186 16.266 6.85228 16.7041 6.85228C17.4926 6.85228 18.0547 7.02038 18.3906 7.3596C18.6534 7.62376 18.8126 8.008 18.8695 8.50932C18.3672 8.58736 17.8883 8.6594 17.4385 8.72845C16.6719 8.84552 15.9857 8.96709 15.3797 9.09467C14.7737 9.22225 14.2524 9.36934 13.8144 9.53445C13.1792 9.7746 12.674 10.0733 12.2973 10.429C11.9205 10.7862 11.6489 11.196 11.481 11.6613C11.3131 12.1266 11.2299 12.6414 11.2299 13.2042C11.2299 13.8796 11.3817 14.4965 11.684 15.0564C11.9862 15.6162 12.4316 16.062 13.02 16.3952C13.607 16.7284 14.3254 16.8965 15.1723 16.8965C16.1945 16.8965 17.0399 16.7149 17.7072 16.3502C18.2343 16.0635 18.7323 15.6327 19.2024 15.0639V16.5588H21.8089V9.1292C21.8089 8.57386 21.7869 8.07104 21.7431 7.62076C21.6993 7.17048 21.5606 6.7202 21.327 6.26992L21.3241 6.26692ZM18.5424 12.8635C18.4621 13.0361 18.3103 13.2508 18.0883 13.5059C17.8664 13.7611 17.567 13.9877 17.1903 14.1873C16.8136 14.387 16.3522 14.486 15.8046 14.486C15.4615 14.486 15.165 14.4335 14.9168 14.3284C14.6686 14.2234 14.4773 14.0718 14.3415 13.8721C14.2057 13.674 14.1385 13.4354 14.1385 13.1577C14.1385 12.9551 14.1809 12.772 14.2641 12.6069C14.3473 12.4418 14.4788 12.2902 14.6584 12.1506C14.8365 12.011 15.0731 11.8819 15.3651 11.7618C15.6206 11.6643 15.9156 11.5742 16.2514 11.4917C16.5873 11.4091 17.0297 11.3176 17.5773 11.2155C17.9292 11.151 18.3512 11.0759 18.8418 10.9904C18.8359 11.205 18.8257 11.4421 18.8096 11.7108C18.7834 12.1506 18.6943 12.5348 18.541 12.865L18.5424 12.8635Z" fill="#252E49"/>
<path d="M33.2664 4.89356C32.4268 4.33822 31.4412 4.06055 30.3095 4.06055C29.1779 4.06055 28.239 4.34272 27.4724 4.90407C27.4009 4.9566 27.3322 5.01213 27.2651 5.06917V4.39826H24.6367V21.9592H27.6374V16.1281C28.4055 16.6369 29.3458 16.8935 30.4629 16.8935C31.5799 16.8935 32.5027 16.6114 33.3219 16.05C34.1396 15.4872 34.7762 14.7217 35.2333 13.7536C35.6888 12.7855 35.9181 11.6928 35.9181 10.477C35.9181 9.26128 35.6859 8.13708 35.223 7.17348C34.7587 6.20988 34.1075 5.44891 33.2679 4.89356H33.2664ZM32.4662 12.3397C32.2691 12.8995 31.9654 13.3438 31.5565 13.674C31.1477 14.0042 30.622 14.1693 29.9795 14.1693C29.3371 14.1693 28.7836 14.0162 28.3865 13.7086C27.9879 13.4009 27.7017 12.9701 27.5264 12.4147C27.3512 11.8594 27.2636 11.214 27.2636 10.4785C27.2636 9.74308 27.3512 9.09768 27.5264 8.54233C27.7017 7.98699 27.9805 7.55622 28.3646 7.24853C28.7471 6.94084 29.2494 6.78774 29.87 6.78774C30.5344 6.78774 31.0805 6.95435 31.5069 7.28906C31.9333 7.62226 32.2501 8.06954 32.4545 8.62789C32.659 9.18773 32.7612 9.80462 32.7612 10.48C32.7612 11.1555 32.6633 11.7843 32.4662 12.3427V12.3397Z" fill="#252E49"/>
<path d="M41.4681 13.77H38.7624V16.5512H41.4681V13.77Z" fill="#252E49"/>
<path d="M5.93907 11.7511H2.99121C2.99121 12.4715 2.99843 13.1161 3.01288 13.6835C3.02733 14.2524 3.17906 14.8109 3.46807 15.3605C3.78597 15.9472 4.24983 16.372 4.86108 16.6364C5.47088 16.9008 6.16594 17.0404 6.94192 17.0597C7.71935 17.0776 8.51122 17.0092 9.32044 16.8533V14.3356C8.62683 14.4321 7.9939 14.4618 7.42456 14.4247C6.85377 14.3876 6.4376 14.1573 6.17894 13.734C6.04167 13.5112 5.96797 13.2127 5.95641 12.8369C5.94485 12.4625 5.94051 12.2189 5.94051 11.751L5.93907 11.7511Z" fill="#252E49"/>
<path fill-rule="evenodd" clip-rule="evenodd" d="M5.94692 0.693993H2.96605V3.73328H2.96601H0V6.78755H2.96601H2.96605V9.82644H5.94692V6.78755H8.91288V3.73328H5.94692V0.693993Z" fill="#2563EB"/>
</svg>
