<svg width="32" height="32" viewBox="0 0 32 32" fill="none" xmlns="http://www.w3.org/2000/svg">
<path d="M0 16C0 7.16344 7.16344 0 16 0C24.8366 0 32 7.16344 32 16C32 24.8366 24.8366 32 16 32C7.16344 32 0 24.8366 0 16Z" fill="#E3FCF0"/>
<path fill-rule="evenodd" clip-rule="evenodd" d="M8.89014 11.1121C8.89014 12.1872 9.65359 13.084 10.6679 13.2899V21.3343C10.6679 23.298 12.2598 24.8899 14.2235 24.8899H17.779C19.7427 24.8899 21.3346 23.298 21.3346 21.3343V13.2899C22.3489 13.084 23.1124 12.1872 23.1124 11.1121V10.2232C23.1124 8.9959 22.1174 8.00098 20.8901 8.00098H11.1124C9.88506 8.00098 8.89014 8.9959 8.89014 10.2232V11.1121ZM11.5568 11.5565H11.1124C10.8669 11.5565 10.6679 11.3575 10.6679 11.1121V10.2232C10.6679 9.97774 10.8669 9.77875 11.1124 9.77875H11.5568V11.5565ZM16.8901 11.5565H18.6679V9.77875H16.8901V11.5565ZM15.1124 11.5565V9.77875H13.3346V11.5565H15.1124ZM20.8901 11.5565H20.4457V9.77875H20.8901C21.1356 9.77875 21.3346 9.97774 21.3346 10.2232V11.1121C21.3346 11.3575 21.1356 11.5565 20.8901 11.5565ZM15.1124 16.8899V15.1121H16.8901V16.8899H18.6679V18.6676H16.8901V20.4454H15.1124V18.6676H13.3346V16.8899H15.1124Z" fill="#34D399"/>
</svg>
