<svg width="52" height="52" viewBox="0 0 52 52" fill="none" xmlns="http://www.w3.org/2000/svg">
<path d="M0 26C0 11.6406 11.6406 0 26 0C40.3594 0 52 11.6406 52 26C52 40.3594 40.3594 52 26 52C11.6406 52 0 40.3594 0 26Z" fill="#D1FAE5"/>
<path d="M24.2518 11.7335V14.8631H27.3814V11.7335H30.5111V14.8631H31.2935C33.454 14.8631 35.2055 16.6146 35.2055 18.7752V21.1224H32.0759V18.7752C32.0759 18.3431 31.7256 17.9928 31.2935 17.9928H20.3398C19.9077 17.9928 19.5574 18.3431 19.5574 18.7752V23.4696C19.5574 23.9017 19.9077 24.252 20.3398 24.252H31.2935C33.454 24.252 35.2055 26.0035 35.2055 28.1641V32.8585C35.2055 35.0191 33.454 36.7705 31.2935 36.7705H30.5111V39.9002H27.3814V36.7705H24.2518V39.9002H21.1222V36.7705H20.3398C18.1792 36.7705 16.4277 35.0191 16.4277 32.8585V30.5113H19.5574V32.8585C19.5574 33.2906 19.9077 33.6409 20.3398 33.6409H31.2935C31.7256 33.6409 32.0759 33.2906 32.0759 32.8585V28.1641C32.0759 27.732 31.7256 27.3817 31.2935 27.3817H20.3398C18.1792 27.3817 16.4277 25.6302 16.4277 23.4696V18.7752C16.4277 16.6146 18.1792 14.8631 20.3398 14.8631H21.1222V11.7335H24.2518Z" fill="#34D399"/>
</svg>
