<svg width="52" height="52" viewBox="0 0 52 52" fill="none" xmlns="http://www.w3.org/2000/svg">
<path d="M0 26C0 11.6406 11.6406 0 26 0C40.3594 0 52 11.6406 52 26C52 40.3594 40.3594 52 26 52C11.6406 52 0 40.3594 0 26Z" fill="#FEF2C7"/>
<path d="M30.5122 14.8633C30.5122 11.4064 33.3145 8.60406 36.7714 8.60406H39.901V41.4652H36.7714V30.5115H30.5122V14.8633Z" fill="#F59E0B"/>
<path d="M17.9936 41.4652L17.9936 24.2522H15.6464C13.4859 24.2522 11.7344 22.5007 11.7344 20.3402V10.1689H14.864V20.3402C14.864 20.7723 15.2143 21.1226 15.6464 21.1226H17.9936L17.9936 10.1689L21.1233 10.1689L21.1233 21.1226H23.4705C23.9026 21.1226 24.2529 20.7723 24.2529 20.3402V10.1689H27.3825V20.3402C27.3825 22.5007 25.631 24.2522 23.4705 24.2522H21.1233L21.1233 41.4652H17.9936Z" fill="#F59E0B"/>
</svg>
