<svg width="42" height="16" viewBox="0 0 42 16" fill="none" xmlns="http://www.w3.org/2000/svg">
<path opacity="0.1" d="M8.26211 2.08252C5.29124 2.08252 2.69173 3.38228 0.83493 5.42476L8.26211 14.4612L15.6893 5.42476C13.8325 3.38228 11.233 2.08252 8.26211 2.08252Z" fill="#1D1B20"/>
<path d="M28.432 2.08252L16.0534 14.4612H28.432V2.08252V2.08252Z" fill="#1D1B20"/>
<path opacity="0.3" d="M38.8446 1.71845H36.2233V3.02913H34.9126C34.43 3.02913 34.0388 3.46923 34.0388 4.01214V13.8422C34.0388 14.3851 34.43 14.8252 34.9126 14.8252H40.1553C40.6379 14.8252 41.0291 14.3851 41.0291 13.8422V4.01214C41.0291 3.46924 40.6379 3.02913 40.1553 3.02913H38.8446V1.71845Z" fill="#1D1B20"/>
<path d="M34.0388 8.70874C34.0388 9.21845 34.0388 13.3981 34.0388 13.9078C34.0388 14.4145 34.43 14.8252 34.9126 14.8252H40.1553C40.6379 14.8252 41.0291 14.4145 41.0291 13.9078C41.0291 13.3981 41.0291 9.21845 41.0291 8.70874H34.0388Z" fill="#1D1B20"/>
</svg>
