<svg width="96" height="96" viewBox="0 0 96 96" fill="none" xmlns="http://www.w3.org/2000/svg">
<path d="M5 48C5 24.2518 24.2518 5 48 5C71.7482 5 91 24.2518 91 48C91 71.7482 71.7482 91 48 91C24.2518 91 5 71.7482 5 48Z" fill="white"/>
<g clip-path="url(#clip0_8318_16251)">
<path d="M50.1194 57.6277H39.9968C39.9968 60.042 40.0216 62.2024 40.0712 64.104C40.1208 66.0106 40.6418 67.8823 41.6343 69.7242C42.7259 71.6905 44.3187 73.1142 46.4177 74.0003C48.5117 74.8864 50.8985 75.3543 53.5631 75.419C56.2327 75.4788 58.9519 75.2498 61.7307 74.7271V66.2894C59.3489 66.6129 57.1755 66.7125 55.2204 66.5881C53.2604 66.4636 51.8313 65.692 50.9431 64.2733C50.4717 63.5266 50.2187 62.526 50.179 61.2666C50.1393 60.0121 50.1244 59.1955 50.1244 57.6274L50.1194 57.6277Z" fill="#252E49"/>
<path fill-rule="evenodd" clip-rule="evenodd" d="M50.1469 20.5715H39.9109V30.7567H29.7258V40.9927H39.9109V51.1778H50.1469V40.9927H60.332V30.7567H50.1469V20.5715Z" fill="#2563EB"/>
</g>
<defs>
<clipPath id="clip0_8318_16251">
<rect width="54.8571" height="54.8571" fill="white" transform="translate(20.5714 20.5715)"/>
</clipPath>
</defs>
</svg>
