<svg width="25" height="24" viewBox="0 0 25 24" fill="none" xmlns="http://www.w3.org/2000/svg">
<path d="M12.4775 1.31152C18.5087 1.31152 23.3984 6.20031 23.3984 12.2314C23.3984 18.2626 18.5087 23.1523 12.4775 23.1523C6.4464 23.1523 1.55762 18.2626 1.55762 12.2314C1.55767 6.20034 6.44643 1.31158 12.4775 1.31152Z" fill="white" stroke="#F2F5F9" stroke-width="1.68245"/>
<path d="M12.4139 16.7784C11.9398 16.7784 11.5124 16.6664 11.1316 16.4424C10.7509 16.2184 10.4485 15.9179 10.2245 15.5409C10.0005 15.1601 9.88854 14.7383 9.88854 14.2754H11.2548C11.2548 14.4844 11.3034 14.6748 11.4004 14.8466C11.5012 15.0183 11.6393 15.1564 11.8148 15.2609C11.9902 15.3617 12.19 15.4121 12.4139 15.4121C12.6193 15.4121 12.8096 15.3617 12.9851 15.2609C13.1643 15.1564 13.308 15.0183 13.4163 14.8466C13.5245 14.6748 13.5787 14.4844 13.5787 14.2754C13.5787 14.0029 13.5059 13.777 13.3603 13.5979C13.2147 13.4149 13.0112 13.2787 12.7499 13.1891C12.4923 13.0995 12.1918 13.0547 11.8484 13.0547V12.002C12.3113 12.002 12.6771 11.9143 12.9459 11.7388C13.2184 11.5633 13.3547 11.3058 13.3547 10.9661C13.3547 10.7906 13.3099 10.6301 13.2203 10.4845C13.1307 10.3389 13.0112 10.2232 12.8619 10.1373C12.7163 10.0477 12.5558 10.0029 12.3803 10.0029C12.2012 10.0029 12.0276 10.0477 11.8596 10.1373C11.6916 10.2232 11.5535 10.3389 11.4452 10.4845C11.3407 10.6301 11.2884 10.7906 11.2884 10.9661H9.92214C9.92214 10.645 9.98747 10.3445 10.1181 10.0645C10.2488 9.78082 10.428 9.53258 10.6557 9.31979C10.8871 9.10701 11.1484 8.94089 11.4396 8.82143C11.7345 8.69824 12.0425 8.63665 12.3635 8.63665C12.7854 8.63665 13.1755 8.74117 13.5339 8.95022C13.8922 9.15927 14.1797 9.43925 14.3962 9.79016C14.6127 10.1411 14.721 10.533 14.721 10.9661C14.721 11.2684 14.65 11.5652 14.5082 11.8564C14.3663 12.1476 14.1647 12.3529 13.9034 12.4723C14.1311 12.5545 14.3215 12.6926 14.4746 12.8867C14.6276 13.0771 14.7434 13.2955 14.8218 13.5419C14.9039 13.7845 14.9449 14.029 14.9449 14.2754C14.9449 14.7346 14.8292 15.1545 14.5978 15.5353C14.3663 15.9123 14.0583 16.2147 13.6738 16.4424C13.2931 16.6664 12.8731 16.7784 12.4139 16.7784Z" fill="#D97706"/>
<path d="M22.8623 15.6057C23.3948 13.9669 23.5319 12.2254 23.2623 10.5234C22.9928 8.82148 22.3242 7.2075 21.3114 5.81344C20.2986 4.41938 18.9702 3.28482 17.4348 2.50252C15.8995 1.72023 14.2008 1.31241 12.4776 1.31241" stroke="#D97706" stroke-width="1.67987" stroke-linecap="round"/>
</svg>
