<svg width="24" height="25" viewBox="0 0 24 25" fill="none" xmlns="http://www.w3.org/2000/svg">
<path d="M22.5396 6.72859C22.4208 6.254 22.1789 5.81917 21.8382 5.468C21.4976 5.11683 21.0703 4.86178 20.5996 4.72859C18.8796 4.30859 11.9996 4.30859 11.9996 4.30859C11.9996 4.30859 5.1196 4.30859 3.3996 4.76859C2.92884 4.90178 2.50157 5.15683 2.16094 5.508C1.82031 5.85917 1.57838 6.294 1.4596 6.76859C1.14481 8.51415 0.990831 10.2849 0.999595 12.0586C0.988374 13.8456 1.14236 15.6299 1.4596 17.3886C1.59055 17.8484 1.8379 18.2667 2.17774 18.6031C2.51758 18.9394 2.93842 19.1824 3.3996 19.3086C5.1196 19.7686 11.9996 19.7686 11.9996 19.7686C11.9996 19.7686 18.8796 19.7686 20.5996 19.3086C21.0703 19.1754 21.4976 18.9204 21.8382 18.5692C22.1789 18.218 22.4208 17.7832 22.5396 17.3086C22.852 15.5762 23.0059 13.8189 22.9996 12.0586C23.0108 10.2715 22.8568 8.48729 22.5396 6.72859Z" stroke="#0048CE" stroke-width="2" stroke-linecap="round" stroke-linejoin="round"/>
<path d="M9.74959 15.3286L15.4996 12.0586L9.74959 8.78859V15.3286Z" stroke="#0048CE" stroke-width="2" stroke-linecap="round" stroke-linejoin="round"/>
</svg>
