<svg width="364" height="208" viewBox="0 0 364 208" fill="none" xmlns="http://www.w3.org/2000/svg">
<g clip-path="url(#clip0_381_60501)">
<path d="M0 14.8447C0 6.69472 6.60683 0.0878906 14.7568 0.0878906H349.243C357.393 0.0878906 364 6.69472 364 14.8446V193.155C364 201.305 357.393 207.912 349.243 207.912H14.7567C6.60682 207.912 0 201.305 0 193.155V14.8447Z" fill="#F2F5F9"/>
<g filter="url(#filter0_f_381_60501)">
<circle cx="31.9799" cy="108.304" r="156.176" fill="#9EEFF0"/>
</g>
<g clip-path="url(#clip1_381_60501)">
<path d="M30.9086 78.2252C30.5776 78.2252 30.2546 78.221 29.9262 78.2136C29.2459 78.2047 28.5671 78.1455 27.8956 78.0364C27.2694 77.9286 26.6628 77.7279 26.0957 77.4412C25.5339 77.1568 25.0215 76.7839 24.5781 76.3368C24.1283 75.8949 23.7538 75.3824 23.4694 74.8196C23.182 74.2532 22.983 73.646 22.8795 73.0193C22.7678 72.3459 22.7073 71.6649 22.6986 70.9824C22.6918 70.7532 22.6827 69.9904 22.6827 69.9904V44.8945C22.6827 44.8945 22.6923 44.1434 22.6987 43.9227C22.707 43.2412 22.7671 42.5613 22.8785 41.889C22.9822 41.2605 23.1813 40.6516 23.4689 40.0833C23.7522 39.5209 24.1246 39.008 24.5717 38.5646C25.0184 38.1169 25.5324 37.7421 26.0952 37.4538C26.6609 37.168 27.2664 36.9688 27.8913 36.8629C28.5651 36.7527 29.2462 36.6931 29.9288 36.6847L30.9091 36.6714H142.554L143.546 36.6852C144.223 36.6932 144.898 36.7523 145.565 36.8618C146.196 36.969 146.808 37.1696 147.38 37.457C148.508 38.038 149.425 38.9573 150.004 40.0859C150.287 40.6503 150.483 41.2543 150.585 41.8773C150.698 42.5552 150.761 43.2404 150.774 43.9275C150.777 44.2352 150.777 44.5656 150.777 44.8945C150.786 45.3019 150.786 45.6897 150.786 46.0806V68.817C150.786 69.2117 150.786 69.5968 150.777 69.9851C150.777 70.3384 150.777 70.662 150.773 70.9951C150.76 71.6699 150.698 72.3429 150.587 73.0087C150.486 73.6399 150.288 74.2518 150.001 74.8229C149.714 75.3796 149.342 75.8876 148.897 76.3283C148.454 76.7778 147.94 77.1529 147.377 77.4391C146.807 77.7281 146.196 77.9294 145.565 78.0364C144.894 78.1461 144.215 78.2053 143.534 78.2136C143.216 78.221 142.883 78.2252 142.56 78.2252L141.382 78.2274L30.9086 78.2252Z" fill="white"/>
<path d="M48.8902 57.3282C48.9023 56.3852 49.1528 55.4607 49.6182 54.6406C50.0837 53.8205 50.7491 53.1314 51.5524 52.6375C51.0421 51.9087 50.3688 51.3089 49.5861 50.8857C48.8034 50.4626 47.9328 50.2278 47.0435 50.1999C45.1465 50.0008 43.3073 51.3351 42.3406 51.3351C41.3552 51.3351 39.8668 50.2197 38.264 50.2527C37.2273 50.2862 36.217 50.5877 35.3314 51.1277C34.4458 51.6678 33.7153 52.4281 33.2109 53.3344C31.0261 57.1172 32.6558 62.6766 34.7487 65.7343C35.7958 67.2316 37.0196 68.904 38.6209 68.8447C40.1879 68.7797 40.7731 67.8455 42.6646 67.8455C44.5386 67.8455 45.0876 68.8447 46.7214 68.807C48.4029 68.7797 49.4623 67.3031 50.4727 65.7917C51.2251 64.7248 51.804 63.5457 52.1881 62.298C51.2112 61.8848 50.3776 61.1932 49.7911 60.3095C49.2046 59.4257 48.8913 58.3888 48.8902 57.3282Z" fill="black"/>
<path d="M45.8042 48.1888C46.721 47.0882 47.1727 45.6736 47.0633 44.2454C45.6627 44.3925 44.3688 45.0619 43.4397 46.1202C42.9854 46.6373 42.6374 47.2388 42.4157 47.8904C42.194 48.542 42.1029 49.2309 42.1476 49.9177C42.8482 49.9249 43.5413 49.773 44.1746 49.4736C44.808 49.1741 45.3652 48.7348 45.8042 48.1888Z" fill="black"/>
<path d="M67.69 65.2046H62.5477L61.3128 68.8509H59.1348L64.0054 55.3604H66.2683L71.139 68.8509H68.9238L67.69 65.2046ZM63.0803 63.522H67.1564L65.147 57.6042H65.0907L63.0803 63.522Z" fill="black"/>
<path d="M81.6579 63.9335C81.6579 66.99 80.022 68.9538 77.5533 68.9538C76.9279 68.9865 76.3059 68.8424 75.7586 68.5381C75.2113 68.2337 74.7608 67.7814 74.4586 67.2329H74.4119V72.1047H72.3929V59.0151H74.3471V60.6511H74.3843C74.7004 60.1052 75.1585 59.6552 75.71 59.349C76.2615 59.0428 76.8856 58.8919 77.5161 58.9122C80.0124 58.9122 81.6579 60.8855 81.6579 63.9335ZM79.5828 63.9335C79.5828 61.9422 78.5537 60.633 76.9835 60.633C75.441 60.633 74.4034 61.9698 74.4034 63.9335C74.4034 65.9153 75.441 67.2425 76.9835 67.2425C78.5537 67.2425 79.5827 65.9429 79.5827 63.9335H79.5828Z" fill="black"/>
<path d="M92.484 63.9335C92.484 66.99 90.8476 68.9538 88.3788 68.9538C87.7534 68.9865 87.1315 68.8424 86.5842 68.5381C86.0369 68.2337 85.5863 67.7814 85.2841 67.2329H85.2374V72.1047H83.2185V59.0151H85.1727V60.6511H85.2098C85.5259 60.1052 85.9841 59.6552 86.5356 59.349C87.087 59.0428 87.7112 58.8919 88.3416 58.9122C90.838 58.9122 92.484 60.8855 92.484 63.9335ZM90.4083 63.9335C90.4083 61.9422 89.3793 60.633 87.8091 60.633C86.2665 60.633 85.229 61.9698 85.229 63.9335C85.229 65.9153 86.2665 67.2425 87.8091 67.2425C89.3793 67.2425 90.4083 65.9429 90.4083 63.9335Z" fill="black"/>
<path d="M99.6378 65.0922C99.7873 66.43 101.087 67.3084 102.863 67.3084C104.565 67.3084 105.789 66.43 105.789 65.2237C105.789 64.1766 105.051 63.5496 103.302 63.1199L101.554 62.6988C99.0765 62.1004 97.9265 60.9419 97.9265 59.0619C97.9265 56.7343 99.955 55.1355 102.834 55.1355C105.686 55.1355 107.64 56.7343 107.706 59.0619H105.668C105.546 57.7156 104.433 56.903 102.807 56.903C101.18 56.903 100.067 57.7252 100.067 58.9219C100.067 59.8757 100.778 60.4369 102.517 60.8665L104.003 61.2315C106.771 61.8861 107.92 62.9979 107.92 64.9712C107.92 67.4951 105.911 69.0759 102.713 69.0759C99.7215 69.0759 97.7015 67.5322 97.571 65.0921L99.6378 65.0922Z" fill="black"/>
<path d="M112.28 56.6875V59.0151H114.15V60.6139H112.28V66.0363C112.28 66.8786 112.654 67.2712 113.476 67.2712C113.698 67.2673 113.92 67.2517 114.14 67.2245V68.8137C113.771 68.8828 113.395 68.9141 113.019 68.9071C111.028 68.9071 110.251 68.1591 110.251 66.2516V60.6139H108.821V59.0151H110.251V56.6875H112.28Z" fill="black"/>
<path d="M115.232 63.9336C115.232 60.8389 117.055 58.8943 119.897 58.8943C122.749 58.8943 124.563 60.8389 124.563 63.9336C124.563 67.0368 122.758 68.973 119.897 68.973C117.037 68.973 115.232 67.0368 115.232 63.9336ZM122.506 63.9336C122.506 61.8107 121.533 60.5578 119.897 60.5578C118.261 60.5578 117.288 61.8203 117.288 63.9336C117.288 66.065 118.261 67.3084 119.897 67.3084C121.533 67.3084 122.506 66.065 122.506 63.9336H122.506Z" fill="black"/>
<path d="M126.227 59.0153H128.153V60.6894H128.2C128.33 60.1665 128.636 59.7045 129.067 59.3808C129.498 59.0572 130.027 58.8918 130.565 58.9124C130.798 58.9115 131.03 58.9368 131.257 58.9877V60.8761C130.963 60.7864 130.657 60.7451 130.35 60.7541C130.057 60.7422 129.764 60.7939 129.493 60.9057C129.222 61.0175 128.978 61.1867 128.778 61.4016C128.578 61.6166 128.427 61.8723 128.335 62.1511C128.243 62.43 128.213 62.7254 128.246 63.017V68.851H126.227L126.227 59.0153Z" fill="black"/>
<path d="M140.566 65.9621C140.294 67.7476 138.555 68.973 136.33 68.973C133.469 68.973 131.693 67.0559 131.693 63.9803C131.693 60.8952 133.479 58.8943 136.246 58.8943C138.967 58.8943 140.678 60.7636 140.678 63.7458V64.4376H133.731V64.5596C133.699 64.9215 133.745 65.2862 133.864 65.6293C133.984 65.9724 134.175 66.2862 134.425 66.5497C134.676 66.8132 134.979 67.0204 135.316 67.1576C135.652 67.2948 136.014 67.3589 136.377 67.3455C136.854 67.3902 137.333 67.2797 137.742 67.0305C138.152 66.7812 138.469 66.4065 138.649 65.9621L140.566 65.9621ZM133.741 63.0265H138.658C138.676 62.7011 138.627 62.3754 138.513 62.0699C138.399 61.7644 138.224 61.4857 137.997 61.2513C137.771 61.0169 137.498 60.8318 137.197 60.7077C136.895 60.5836 136.572 60.5232 136.246 60.5302C135.917 60.5283 135.591 60.5914 135.287 60.7161C134.982 60.8407 134.706 61.0244 134.473 61.2565C134.24 61.4886 134.056 61.7645 133.93 62.0683C133.804 62.3721 133.74 62.6978 133.741 63.0265V63.0265Z" fill="black"/>
<path d="M62.8278 45.2054C63.2511 45.175 63.6758 45.2389 64.0713 45.3926C64.4669 45.5462 64.8234 45.7857 65.1152 46.0939C65.407 46.402 65.6268 46.771 65.7587 47.1744C65.8906 47.5777 65.9313 48.0053 65.8779 48.4263C65.8779 50.4972 64.7587 51.6876 62.8278 51.6876H60.4864V45.2054H62.8278ZM61.4932 50.7709H62.7153C63.0178 50.7889 63.3205 50.7393 63.6013 50.6257C63.8822 50.512 64.1342 50.3372 64.339 50.1139C64.5437 49.8905 64.6961 49.6244 64.7851 49.3347C64.874 49.0451 64.8972 48.7392 64.8531 48.4395C64.894 48.1409 64.8684 47.837 64.7781 47.5495C64.6879 47.2619 64.5351 46.9979 64.3308 46.7764C64.1265 46.5549 63.8757 46.3812 63.5964 46.268C63.3171 46.1548 63.0162 46.1047 62.7153 46.1214H61.4932V50.7709Z" fill="black"/>
<path d="M67.0152 49.2396C66.9845 48.9181 67.0212 48.5938 67.1232 48.2873C67.2251 47.9809 67.39 47.6992 67.6072 47.4602C67.8244 47.2212 68.0892 47.0302 68.3845 46.8996C68.6798 46.7689 68.9992 46.7014 69.3222 46.7014C69.6451 46.7014 69.9645 46.7689 70.2598 46.8996C70.5552 47.0302 70.8199 47.2212 71.0371 47.4602C71.2543 47.6992 71.4192 47.9809 71.5212 48.2873C71.6231 48.5938 71.6599 48.9181 71.6291 49.2396C71.6605 49.5614 71.6241 49.8862 71.5224 50.1931C71.4208 50.5001 71.256 50.7823 71.0387 51.0218C70.8215 51.2612 70.5565 51.4526 70.2609 51.5835C69.9653 51.7145 69.6455 51.7821 69.3222 51.7821C68.9988 51.7821 68.6791 51.7145 68.3835 51.5835C68.0878 51.4526 67.8229 51.2612 67.6056 51.0218C67.3883 50.7823 67.2236 50.5001 67.1219 50.1931C67.0202 49.8862 66.9839 49.5614 67.0152 49.2396ZM70.6361 49.2396C70.6361 48.1792 70.1597 47.5591 69.3238 47.5591C68.4846 47.5591 68.0125 48.1792 68.0125 49.2396C68.0125 50.3085 68.4846 50.9238 69.3238 50.9238C70.1598 50.9238 70.6361 50.3042 70.6361 49.2396H70.6361Z" fill="black"/>
<path d="M77.7623 51.6878H76.7608L75.7497 48.0849H75.6733L74.6665 51.6878H73.6746L72.3261 46.7959H73.3054L74.1817 50.5287H74.2538L75.2596 46.7959H76.1857L77.1915 50.5287H77.2679L78.1399 46.7959H79.1054L77.7623 51.6878Z" fill="black"/>
<path d="M80.2395 46.7958H81.1689V47.5729H81.241C81.3634 47.2938 81.5698 47.0598 81.8315 46.9036C82.0932 46.7474 82.3971 46.6767 82.7008 46.7013C82.9388 46.6835 83.1778 46.7193 83.4001 46.8064C83.6224 46.8934 83.8222 47.0293 83.9848 47.204C84.1475 47.3788 84.2687 47.5878 84.3395 47.8158C84.4103 48.0437 84.429 48.2847 84.394 48.5208V51.6876H83.4286V48.7632C83.4286 47.9771 83.087 47.5862 82.373 47.5862C82.2114 47.5786 82.0501 47.6061 81.9001 47.6668C81.7501 47.7274 81.615 47.8198 81.5041 47.9376C81.3931 48.0553 81.3089 48.1956 81.2573 48.349C81.2057 48.5023 81.1878 48.665 81.2049 48.8258V51.6876H80.2395L80.2395 46.7958Z" fill="black"/>
<path d="M85.9323 44.8862H86.8978V51.6877H85.9323V44.8862Z" fill="black"/>
<path d="M88.2398 49.2397C88.2091 48.9182 88.2459 48.5938 88.3479 48.2874C88.4498 47.9809 88.6147 47.6992 88.832 47.4602C89.0492 47.2212 89.314 47.0302 89.6093 46.8996C89.9047 46.7689 90.2241 46.7014 90.5471 46.7014C90.87 46.7014 91.1894 46.7689 91.4848 46.8996C91.7801 47.0302 92.0449 47.2212 92.2621 47.4602C92.4794 47.6992 92.6443 47.9809 92.7462 48.2874C92.8482 48.5938 92.885 48.9182 92.8543 49.2397C92.8856 49.5615 92.8492 49.8863 92.7475 50.1932C92.6458 50.5002 92.481 50.7824 92.2637 51.0219C92.0464 51.2613 91.7814 51.4527 91.4858 51.5836C91.1902 51.7145 90.8704 51.7822 90.5471 51.7822C90.2237 51.7822 89.9039 51.7145 89.6083 51.5836C89.3127 51.4527 89.0477 51.2613 88.8304 51.0219C88.6131 50.7824 88.4483 50.5002 88.3466 50.1932C88.2449 49.8863 88.2085 49.5615 88.2398 49.2397ZM91.8607 49.2397C91.8607 48.1793 91.3844 47.5592 90.5484 47.5592C89.7092 47.5592 89.2371 48.1793 89.2371 49.2397C89.2371 50.3086 89.7092 50.9239 90.5484 50.9239C91.3844 50.9239 91.8607 50.3043 91.8607 49.2397H91.8607Z" fill="black"/>
<path d="M93.8706 50.3043C93.8706 49.4237 94.5263 48.9161 95.6901 48.8439L97.0152 48.7675V48.3453C97.0152 47.8286 96.6736 47.5369 96.0137 47.5369C95.4747 47.5369 95.1013 47.7347 94.9941 48.0806H94.0595C94.1581 47.2404 94.9485 46.7014 96.0582 46.7014C97.2847 46.7014 97.9764 47.312 97.9764 48.3453V51.6877H97.047V51.0002H96.9706C96.8156 51.2468 96.5979 51.4479 96.3397 51.5828C96.0816 51.7177 95.7922 51.7818 95.5013 51.7683C95.2959 51.7897 95.0883 51.7678 94.892 51.704C94.6956 51.6402 94.5148 51.536 94.3611 51.3981C94.2075 51.2601 94.0845 51.0915 94 50.9031C93.9155 50.7147 93.8714 50.5107 93.8706 50.3043ZM97.0152 49.8863V49.4773L95.8206 49.5537C95.1469 49.5988 94.8414 49.8279 94.8414 50.2592C94.8414 50.6994 95.2233 50.9557 95.7485 50.9557C95.9024 50.9712 96.0578 50.9557 96.2056 50.91C96.3533 50.8642 96.4904 50.7893 96.6085 50.6895C96.7267 50.5897 96.8236 50.4672 96.8935 50.3292C96.9633 50.1912 97.0047 50.0406 97.0152 49.8863Z" fill="black"/>
<path d="M99.2452 49.2397C99.2452 47.694 100.04 46.7147 101.276 46.7147C101.582 46.7006 101.885 46.7739 102.151 46.9258C102.416 47.0778 102.633 47.3023 102.776 47.573H102.848V44.8862H103.813V51.6877H102.888V50.9149H102.812C102.658 51.1837 102.434 51.4054 102.163 51.5558C101.892 51.7063 101.585 51.7798 101.276 51.7684C100.031 51.7684 99.2452 50.7892 99.2452 49.2397ZM100.242 49.2397C100.242 50.2773 100.732 50.9016 101.55 50.9016C102.363 50.9016 102.866 50.2683 102.866 49.2439C102.866 48.2244 102.358 47.582 101.55 47.582C100.737 47.582 100.242 48.2106 100.242 49.2397H100.242Z" fill="black"/>
<path d="M107.808 49.2396C107.777 48.9181 107.814 48.5938 107.916 48.2873C108.018 47.9809 108.183 47.6992 108.4 47.4602C108.617 47.2212 108.882 47.0302 109.177 46.8996C109.472 46.7689 109.792 46.7014 110.115 46.7014C110.438 46.7014 110.757 46.7689 111.052 46.8996C111.348 47.0302 111.613 47.2212 111.83 47.4602C112.047 47.6992 112.212 47.9809 112.314 48.2873C112.416 48.5938 112.453 48.9181 112.422 49.2396C112.453 49.5614 112.417 49.8862 112.315 50.1931C112.213 50.5001 112.049 50.7823 111.831 51.0218C111.614 51.2612 111.349 51.4526 111.054 51.5835C110.758 51.7145 110.438 51.7821 110.115 51.7821C109.791 51.7821 109.472 51.7145 109.176 51.5835C108.88 51.4526 108.615 51.2612 108.398 51.0218C108.181 50.7823 108.016 50.5001 107.915 50.1931C107.813 49.8862 107.777 49.5614 107.808 49.2396ZM111.429 49.2396C111.429 48.1792 110.952 47.5591 110.116 47.5591C109.277 47.5591 108.805 48.1792 108.805 49.2396C108.805 50.3085 109.277 50.9238 110.116 50.9238C110.952 50.9238 111.429 50.3042 111.429 49.2396Z" fill="black"/>
<path d="M113.717 46.7958H114.646V47.5729H114.719C114.841 47.2938 115.047 47.0598 115.309 46.9036C115.571 46.7474 115.875 46.6767 116.178 46.7013C116.416 46.6835 116.655 46.7193 116.878 46.8064C117.1 46.8934 117.3 47.0293 117.462 47.204C117.625 47.3788 117.746 47.5878 117.817 47.8158C117.888 48.0437 117.907 48.2847 117.872 48.5208V51.6876H116.906V48.7632C116.906 47.9771 116.565 47.5862 115.851 47.5862C115.689 47.5786 115.528 47.6061 115.378 47.6668C115.228 47.7274 115.093 47.8198 114.982 47.9376C114.871 48.0553 114.787 48.1956 114.735 48.349C114.683 48.5023 114.665 48.665 114.683 48.8258V51.6876H113.717V46.7958Z" fill="black"/>
<path d="M123.327 45.5779V46.8181H124.387V47.6313H123.327V50.1467C123.327 50.6591 123.538 50.8835 124.019 50.8835C124.142 50.8831 124.265 50.8757 124.387 50.8612V51.6654C124.213 51.6964 124.038 51.7129 123.862 51.7147C122.788 51.7147 122.36 51.337 122.36 50.3939V47.6312H121.584V46.818H122.36V45.5779H123.327Z" fill="black"/>
<path d="M125.705 44.8862H126.662V47.582H126.739C126.867 47.3003 127.079 47.065 127.346 46.9082C127.613 46.7514 127.922 46.6807 128.23 46.7057C128.467 46.6928 128.704 46.7323 128.924 46.8215C129.143 46.9106 129.341 47.0471 129.502 47.2213C129.663 47.3955 129.783 47.6031 129.855 47.8292C129.926 48.0553 129.947 48.2944 129.915 48.5294V51.6877H128.949V48.7676C128.949 47.9862 128.585 47.5905 127.903 47.5905C127.737 47.5769 127.57 47.5997 127.414 47.6573C127.257 47.715 127.116 47.806 126.998 47.9242C126.881 48.0423 126.791 48.1846 126.734 48.3412C126.678 48.4978 126.656 48.6649 126.671 48.8307V51.6877H125.705L125.705 44.8862Z" fill="black"/>
<path d="M135.544 50.3669C135.413 50.814 135.129 51.2008 134.741 51.4595C134.354 51.7182 133.888 51.8324 133.425 51.7822C133.102 51.7907 132.782 51.729 132.486 51.6013C132.19 51.4736 131.925 51.283 131.71 51.0428C131.495 50.8026 131.335 50.5184 131.241 50.2101C131.147 49.9017 131.121 49.5766 131.165 49.2572C131.122 48.9369 131.148 48.611 131.242 48.3018C131.336 47.9925 131.496 47.7071 131.709 47.4647C131.923 47.2224 132.187 47.0288 132.482 46.8971C132.777 46.7655 133.097 46.6987 133.42 46.7015C134.782 46.7015 135.603 47.6314 135.603 49.1676V49.5044H132.148V49.5585C132.133 49.7381 132.156 49.9188 132.215 50.089C132.273 50.2593 132.367 50.4155 132.49 50.5474C132.612 50.6794 132.761 50.7842 132.927 50.8553C133.092 50.9263 133.271 50.962 133.451 50.96C133.682 50.9877 133.916 50.9461 134.123 50.8405C134.331 50.7349 134.502 50.5701 134.615 50.3669L135.544 50.3669ZM132.148 48.7904H134.619C134.631 48.6263 134.609 48.4613 134.554 48.3063C134.498 48.1512 134.411 48.0095 134.298 47.8902C134.184 47.7708 134.047 47.6765 133.895 47.6133C133.743 47.5501 133.58 47.5194 133.415 47.5232C133.248 47.5211 133.082 47.5524 132.928 47.6154C132.773 47.6783 132.633 47.7716 132.515 47.8897C132.396 48.0078 132.303 48.1484 132.24 48.303C132.177 48.4577 132.146 48.6235 132.148 48.7904H132.148Z" fill="black"/>
</g>
<g filter="url(#filter1_f_381_60501)">
<circle cx="303.745" cy="39.4371" r="73.7838" fill="#E6DAFF"/>
</g>
<g filter="url(#filter2_f_381_60501)">
<circle cx="234.872" cy="168.559" r="129.122" fill="#D0E4FF"/>
</g>
<path d="M2.45233 100.925C45.4929 100.925 30.7361 145.195 78.0807 145.195C125.425 145.195 201.669 77.5601 274.837 77.5601C333.373 77.5601 362.353 105.844 369.527 119.986" stroke="white" stroke-width="2.45946" stroke-dasharray="8.61 8.61"/>
<path d="M124.186 76.0041C124.186 63.9601 133.95 54.1965 145.993 54.1965H211.416C223.46 54.1965 233.224 63.9601 233.224 76.0041V141.427C233.224 153.471 223.46 163.234 211.416 163.234H145.994C133.95 163.234 124.186 153.471 124.186 141.427V76.0041Z" fill="#2563EB"/>
<g clip-path="url(#clip2_381_60501)">
<path d="M179.493 130.49C179.325 130.139 179.103 129.826 178.83 129.552C178.555 129.279 178.222 129.061 177.828 128.9C177.434 128.74 176.975 128.659 176.448 128.659C175.732 128.659 175.096 128.815 174.542 129.126C174.124 129.36 173.774 129.68 173.492 130.083V125.98H172.409V137.562H173.614V132.929C173.614 132.436 173.67 131.996 173.785 131.61C173.899 131.224 174.066 130.896 174.285 130.625C174.504 130.355 174.776 130.147 175.1 130.002C175.422 129.857 175.796 129.784 176.219 129.784C176.681 129.784 177.073 129.868 177.396 130.034C177.719 130.2 177.983 130.435 178.187 130.737C178.391 131.04 178.539 131.394 178.631 131.799C178.723 132.205 178.77 132.647 178.77 133.13V137.561H179.975V132.784C179.975 132.392 179.937 132 179.861 131.605C179.785 131.21 179.663 130.838 179.494 130.487L179.493 130.49Z" fill="white"/>
<path d="M187.983 129.23C187.369 128.835 186.628 128.639 185.76 128.639C184.892 128.639 184.179 128.826 183.557 129.202C182.934 129.577 182.453 130.11 182.111 130.803C181.769 131.495 181.598 132.315 181.598 133.264C181.598 134.213 181.771 134.98 182.119 135.661C182.466 136.342 182.954 136.871 183.581 137.246C184.208 137.621 184.95 137.809 185.808 137.809C186.666 137.809 187.425 137.601 188.1 137.186C188.776 136.771 189.288 136.184 189.636 135.428L188.52 135.002C188.249 135.544 187.879 135.958 187.408 136.245C186.938 136.533 186.389 136.675 185.759 136.675C184.836 136.675 184.124 136.374 183.621 135.77C183.17 135.23 182.924 134.49 182.877 133.555H189.806C189.833 132.536 189.689 131.659 189.374 130.924C189.059 130.189 188.595 129.625 187.981 129.231L187.983 129.23ZM183.622 130.632C184.124 130.026 184.848 129.724 185.793 129.724C186.737 129.724 187.379 130.011 187.849 130.585C188.236 131.057 188.47 131.718 188.553 132.564H182.903C182.985 131.759 183.223 131.114 183.622 130.633V130.632Z" fill="white"/>
<path d="M198.117 130.376C197.883 129.813 197.486 129.383 196.923 129.085C196.361 128.788 195.679 128.639 194.875 128.639C193.903 128.639 193.113 128.853 192.506 129.282C191.898 129.711 191.493 130.315 191.292 131.092L192.456 131.43C192.624 130.851 192.916 130.427 193.331 130.159C193.747 129.891 194.255 129.757 194.858 129.757C195.732 129.757 196.346 129.964 196.699 130.377C197.023 130.758 197.19 131.329 197.201 132.086C196.915 132.126 196.604 132.166 196.262 132.207C195.743 132.268 195.214 132.341 194.674 132.423C194.135 132.507 193.642 132.601 193.196 132.708C192.757 132.821 192.37 132.984 192.036 133.199C191.701 133.413 191.438 133.688 191.245 134.023C191.052 134.358 190.956 134.762 190.956 135.234C190.956 135.706 191.067 136.122 191.29 136.513C191.512 136.905 191.848 137.218 192.295 137.455C192.743 137.691 193.299 137.809 193.961 137.809C194.841 137.809 195.595 137.613 196.225 137.222C196.669 136.947 197.029 136.581 197.309 136.128V137.568H198.375V132.171C198.375 131.849 198.359 131.533 198.326 131.222C198.294 130.911 198.223 130.629 198.115 130.377L198.117 130.376ZM197.074 134.503C196.998 134.937 196.833 135.327 196.578 135.673C196.323 136.018 195.986 136.29 195.568 136.489C195.15 136.687 194.661 136.786 194.102 136.786C193.63 136.786 193.251 136.709 192.966 136.553C192.682 136.398 192.474 136.201 192.347 135.966C192.219 135.731 192.156 135.487 192.156 135.234C192.156 134.923 192.231 134.663 192.38 134.453C192.529 134.244 192.721 134.077 192.954 133.95C193.188 133.825 193.429 133.726 193.679 133.656C194.048 133.56 194.462 133.476 194.921 133.407C195.379 133.337 195.847 133.276 196.322 133.222C196.625 133.188 196.912 133.154 197.187 133.119C197.186 133.249 197.184 133.402 197.181 133.579C197.175 133.914 197.139 134.222 197.075 134.5L197.074 134.503Z" fill="white"/>
<path d="M201.855 125.737H200.659V137.561H201.855V125.737Z" fill="white"/>
<path d="M206.391 126.468H205.202V128.881H203.32V129.895H205.202V134.422C205.202 134.846 205.208 135.222 205.222 135.553C205.235 135.882 205.321 136.208 205.479 136.53C205.674 136.916 205.961 137.2 206.338 137.382C206.714 137.565 207.144 137.666 207.624 137.688C208.104 137.709 208.592 137.669 209.086 137.568V136.531C208.456 136.633 207.928 136.649 207.502 136.579C207.075 136.509 206.764 136.295 206.569 135.936C206.466 135.748 206.41 135.532 206.402 135.288C206.393 135.043 206.39 134.74 206.39 134.375V129.896H209.085V128.882H206.39V126.469L206.391 126.468Z" fill="white"/>
<path d="M218.264 131.608C218.188 131.214 218.066 130.841 217.897 130.49C217.729 130.139 217.507 129.826 217.234 129.552C216.959 129.279 216.626 129.061 216.233 128.9C215.838 128.74 215.379 128.659 214.852 128.659C214.136 128.659 213.5 128.815 212.947 129.126C212.528 129.36 212.178 129.68 211.896 130.083V125.98H210.813V137.562H212.018V132.929C212.018 132.436 212.075 131.996 212.189 131.61C212.303 131.224 212.47 130.896 212.689 130.625C212.909 130.355 213.18 130.147 213.504 130.002C213.826 129.857 214.2 129.784 214.623 129.784C215.085 129.784 215.477 129.868 215.8 130.034C216.123 130.2 216.387 130.435 216.591 130.737C216.795 131.04 216.943 131.394 217.035 131.799C217.127 132.205 217.174 132.647 217.174 133.13V137.561H218.379V132.784C218.379 132.392 218.341 132 218.265 131.605L218.264 131.608Z" fill="white"/>
<path d="M154.829 130.215C154.52 129.636 154.064 129.228 153.461 128.993C152.858 128.757 152.169 128.639 151.392 128.639C150.334 128.639 149.497 128.864 148.884 129.314C148.27 129.765 147.852 130.349 147.63 131.068L149.633 131.695C149.774 131.298 150.021 131.023 150.375 130.867C150.728 130.712 151.068 130.633 151.393 130.633C151.98 130.633 152.398 130.753 152.648 130.996C152.843 131.185 152.961 131.459 153.004 131.817C152.63 131.873 152.274 131.925 151.94 131.974C151.369 132.058 150.859 132.144 150.408 132.236C149.958 132.327 149.57 132.432 149.244 132.55C148.772 132.721 148.396 132.935 148.116 133.189C147.836 133.444 147.634 133.737 147.509 134.069C147.384 134.402 147.322 134.77 147.322 135.172C147.322 135.654 147.435 136.095 147.66 136.495C147.885 136.895 148.216 137.214 148.654 137.452C149.09 137.69 149.624 137.81 150.254 137.81C151.014 137.81 151.643 137.68 152.139 137.42C152.531 137.215 152.902 136.907 153.251 136.501V137.569H155.19V132.26C155.19 131.863 155.173 131.504 155.141 131.182C155.108 130.861 155.005 130.539 154.831 130.217L154.829 130.215ZM152.761 134.928C152.701 135.052 152.588 135.205 152.423 135.387C152.258 135.57 152.035 135.732 151.755 135.874C151.475 136.017 151.132 136.088 150.724 136.088C150.469 136.088 150.249 136.05 150.064 135.975C149.88 135.9 149.737 135.792 149.636 135.649C149.535 135.507 149.485 135.337 149.485 135.139C149.485 134.994 149.517 134.863 149.579 134.745C149.641 134.627 149.738 134.519 149.872 134.419C150.005 134.319 150.18 134.227 150.398 134.141C150.588 134.072 150.807 134.007 151.057 133.948C151.307 133.889 151.636 133.824 152.043 133.751C152.304 133.705 152.618 133.651 152.983 133.59C152.979 133.743 152.971 133.913 152.959 134.105C152.94 134.419 152.873 134.694 152.759 134.929L152.761 134.928Z" fill="white"/>
<path d="M163.711 129.234C163.086 128.837 162.353 128.639 161.512 128.639C160.67 128.639 159.972 128.84 159.402 129.241C159.348 129.279 159.297 129.319 159.247 129.359V128.88H157.293V141.427H159.524V137.261C160.096 137.624 160.795 137.808 161.626 137.808C162.456 137.808 163.143 137.606 163.752 137.205C164.36 136.803 164.833 136.256 165.173 135.564C165.512 134.873 165.683 134.092 165.683 133.223C165.683 132.355 165.51 131.551 165.166 130.863C164.82 130.174 164.336 129.631 163.712 129.234H163.711ZM163.115 134.554C162.969 134.954 162.743 135.272 162.439 135.507C162.135 135.743 161.744 135.861 161.266 135.861C160.788 135.861 160.377 135.752 160.081 135.532C159.785 135.312 159.572 135.005 159.442 134.608C159.312 134.211 159.246 133.75 159.246 133.224C159.246 132.699 159.312 132.238 159.442 131.841C159.572 131.444 159.78 131.136 160.065 130.916C160.35 130.697 160.723 130.587 161.185 130.587C161.679 130.587 162.085 130.706 162.402 130.945C162.719 131.184 162.955 131.503 163.107 131.902C163.259 132.302 163.335 132.743 163.335 133.225C163.335 133.708 163.262 134.157 163.115 134.556V134.554Z" fill="white"/>
<path d="M169.81 135.576H167.798V137.563H169.81V135.576Z" fill="white"/>
<path d="M143.388 134.133H141.195C141.195 134.648 141.201 135.109 141.211 135.514C141.222 135.921 141.335 136.32 141.55 136.712C141.786 137.131 142.131 137.435 142.586 137.624C143.039 137.813 143.556 137.913 144.133 137.926C144.712 137.939 145.3 137.89 145.902 137.779V135.98C145.386 136.049 144.916 136.07 144.492 136.044C144.068 136.017 143.758 135.853 143.566 135.55C143.464 135.391 143.409 135.178 143.401 134.909C143.392 134.642 143.389 134.468 143.389 134.133L143.388 134.133Z" fill="white"/>
<path d="M143.394 128.404H145.599V130.587H143.394V132.758H141.177V130.587H138.971V128.404H141.177V126.233H143.394V128.404Z" fill="white"/>
<g clip-path="url(#clip3_381_60501)">
<path d="M180.084 100.153H173.477C173.477 101.729 173.494 103.139 173.526 104.38C173.558 105.625 173.898 106.847 174.546 108.049C175.259 109.332 176.298 110.261 177.668 110.84C179.035 111.418 180.593 111.723 182.332 111.766C184.074 111.805 185.849 111.655 187.663 111.314V105.807C186.108 106.018 184.69 106.083 183.414 106.002C182.134 105.921 181.202 105.417 180.622 104.491C180.314 104.004 180.149 103.351 180.123 102.529C180.097 101.71 180.088 101.177 180.088 100.153L180.084 100.153Z" fill="white"/>
<path d="M180.103 82.615H186.75V89.2957H180.103V95.9441H173.421V89.2957H166.774V82.615H173.421V75.9675H180.103V82.615Z" fill="white"/>
</g>
</g>
<g clip-path="url(#clip4_381_60501)">
<path fill-rule="evenodd" clip-rule="evenodd" d="M340.725 185.721H215.728C212.972 185.721 210.727 183.466 210.727 180.721V150.721C210.727 147.965 212.972 145.721 215.728 145.721H340.725C343.479 145.721 345.727 147.965 345.727 150.721V180.721C345.727 183.466 343.479 185.721 340.725 185.721Z" fill="black"/>
<path fill-rule="evenodd" clip-rule="evenodd" d="M340.725 146.521C343.037 146.521 344.929 148.409 344.929 150.721V180.721C344.929 183.032 343.049 184.92 340.725 184.92H215.728C213.416 184.92 211.524 183.032 211.524 180.721V150.721C211.524 148.409 213.404 146.521 215.728 146.521H340.725ZM340.725 145.721H215.728C212.972 145.721 210.727 147.975 210.727 150.721V180.721C210.727 183.476 212.972 185.721 215.728 185.721H340.725C343.479 185.721 345.727 183.476 345.727 180.721V150.721C345.727 147.975 343.479 145.721 340.725 145.721Z" fill="#A6A6A6"/>
<path d="M281.845 158.953C280.943 158.953 280.183 158.636 279.582 158.013C278.986 157.407 278.654 156.571 278.668 155.718C278.668 154.808 278.976 154.037 279.582 153.426C280.181 152.803 280.941 152.486 281.842 152.486C282.734 152.486 283.494 152.803 284.105 153.426C284.711 154.057 285.019 154.828 285.019 155.718C285.009 156.631 284.701 157.402 284.105 158.01C283.506 158.638 282.746 158.953 281.845 158.953ZM255.02 158.953C254.139 158.953 253.374 158.641 252.748 158.025C252.127 157.412 251.812 156.636 251.812 155.721C251.812 154.806 252.127 154.03 252.748 153.417C253.361 152.801 254.126 152.489 255.02 152.489C255.457 152.489 255.882 152.576 256.289 152.753C256.689 152.925 257.015 153.16 257.256 153.446L257.315 153.519L256.642 154.182L256.573 154.1C256.193 153.646 255.683 153.424 255.01 153.424C254.409 153.424 253.885 153.638 253.453 154.062C253.019 154.489 252.798 155.047 252.798 155.723C252.798 156.399 253.019 156.958 253.453 157.384C253.885 157.808 254.409 158.022 255.01 158.022C255.651 158.022 256.19 157.808 256.61 157.384C256.858 157.135 257.012 156.786 257.067 156.344H254.909V155.412H257.993L258.006 155.496C258.028 155.653 258.05 155.816 258.05 155.965C258.05 156.825 257.792 157.521 257.28 158.035C256.699 158.643 255.939 158.953 255.02 158.953ZM290.686 158.82H289.735L286.822 154.14L286.847 154.983V158.818H285.896V152.621H286.981L287.011 152.668L289.75 157.077L289.725 156.237V152.621H290.686V158.82ZM274.697 158.82H273.734V153.554H272.062V152.621H276.366V153.554H274.695V158.82H274.697ZM271.278 158.82H270.316V152.621H271.278V158.82ZM265.876 158.82H264.915V153.554H263.243V152.621H267.547V153.554H265.876V158.82ZM262.635 158.811H258.949V152.621H262.635V153.554H259.913V155.254H262.369V156.177H259.913V157.878H262.635V158.811ZM280.288 157.372C280.717 157.803 281.239 158.02 281.845 158.02C282.468 158.02 282.977 157.808 283.402 157.372C283.824 156.948 284.038 156.392 284.038 155.721C284.038 155.05 283.824 154.491 283.405 154.07C282.975 153.638 282.451 153.421 281.847 153.421C281.224 153.421 280.715 153.633 280.293 154.07C279.87 154.494 279.657 155.05 279.657 155.721C279.657 156.392 279.868 156.95 280.288 157.372Z" fill="white"/>
<path fill-rule="evenodd" clip-rule="evenodd" d="M278.579 167.476C276.232 167.476 274.33 169.264 274.33 171.731C274.33 174.175 276.245 175.985 278.579 175.985C280.926 175.985 282.828 174.185 282.828 171.731C282.828 169.264 280.926 167.476 278.579 167.476ZM278.579 174.299C277.295 174.299 276.19 173.232 276.19 171.721C276.19 170.187 277.298 169.142 278.579 169.142C279.863 169.142 280.968 170.187 280.968 171.721C280.971 173.242 279.863 174.299 278.579 174.299ZM269.308 167.476C266.961 167.476 265.059 169.264 265.059 171.731C265.059 174.175 266.974 175.985 269.308 175.985C271.655 175.985 273.557 174.185 273.557 171.731C273.557 169.264 271.653 167.476 269.308 167.476ZM269.308 174.299C268.024 174.299 266.919 173.232 266.919 171.721C266.919 170.187 268.027 169.142 269.308 169.142C270.592 169.142 271.697 170.187 271.697 171.721C271.697 173.242 270.592 174.299 269.308 174.299ZM258.276 168.776V170.576H262.58C262.449 171.586 262.116 172.332 261.607 172.843C260.976 173.476 260.002 174.165 258.286 174.165C255.641 174.165 253.572 172.02 253.572 169.364C253.572 166.708 255.641 164.564 258.286 164.564C259.714 164.564 260.755 165.13 261.527 165.853L262.799 164.576C261.726 163.544 260.298 162.753 258.296 162.753C254.668 162.753 251.623 165.721 251.623 169.354C251.623 172.998 254.665 175.955 258.296 175.955C260.256 175.955 261.726 175.312 262.888 174.1C264.073 172.91 264.448 171.232 264.448 169.878C264.448 169.456 264.416 169.077 264.348 168.756H258.274C258.276 168.753 258.276 168.776 258.276 168.776ZM303.4 170.177C303.044 169.222 301.972 167.466 299.771 167.466C297.591 167.466 295.778 169.19 295.778 171.721C295.778 174.11 297.571 175.975 299.982 175.975C301.919 175.975 303.047 174.786 303.511 174.087L302.073 173.12C301.597 173.83 300.933 174.297 299.992 174.297C299.041 174.297 298.375 173.863 297.933 173.008L303.598 170.651C303.598 170.653 303.4 170.177 303.4 170.177ZM297.623 171.599C297.578 169.955 298.894 169.12 299.836 169.12C300.578 169.12 301.197 169.486 301.408 170.02L297.623 171.599ZM293.021 175.721H294.881V163.222H293.021V175.721ZM289.966 168.422H289.899C289.479 167.92 288.682 167.466 287.664 167.466C285.55 167.466 283.603 169.334 283.603 171.733C283.603 174.122 285.54 175.968 287.664 175.968C288.67 175.968 289.479 175.511 289.899 175H289.966V175.611C289.966 177.234 289.102 178.11 287.709 178.11C286.569 178.11 285.861 177.287 285.573 176.599L283.956 177.277C284.42 178.399 285.66 179.788 287.706 179.788C289.887 179.788 291.734 178.499 291.734 175.354V167.721H289.976V168.422C289.979 168.422 289.966 168.422 289.966 168.422ZM287.83 174.299C286.546 174.299 285.473 173.222 285.473 171.733C285.473 170.232 286.546 169.145 287.83 169.145C289.102 169.145 290.088 170.244 290.088 171.733C290.1 173.222 289.104 174.299 287.83 174.299ZM312.109 163.222H307.661V175.721H309.522V170.988H312.112C314.171 170.988 316.195 169.489 316.195 167.11C316.195 164.731 314.178 163.222 312.109 163.222ZM312.164 169.242H309.519V164.953H312.164C313.557 164.953 314.345 166.107 314.345 167.097C314.345 168.077 313.547 169.242 312.164 169.242ZM323.65 167.454C322.299 167.454 320.906 168.055 320.33 169.364L321.979 170.052C322.334 169.364 322.985 169.13 323.673 169.13C324.636 169.13 325.61 169.708 325.632 170.741V170.873C325.299 170.683 324.569 170.394 323.695 170.394C321.914 170.394 320.109 171.372 320.109 173.205C320.109 174.883 321.569 175.96 323.196 175.96C324.445 175.96 325.133 175.394 325.563 174.738H325.63V175.706H327.423V170.918C327.423 168.688 325.774 167.454 323.65 167.454ZM323.417 174.299C322.808 174.299 321.957 174 321.957 173.232C321.957 172.264 323.02 171.898 323.926 171.898C324.746 171.898 325.133 172.075 325.62 172.319C325.486 173.441 324.542 174.289 323.417 174.299ZM333.965 167.721L331.829 173.142H331.762L329.549 167.721H327.547L330.868 175.299L328.975 179.511H330.912L336.021 167.721H333.965ZM317.221 175.721H319.081V163.222H317.221V175.721Z" fill="white"/>
<path fill-rule="evenodd" clip-rule="evenodd" d="M221.118 153.254C220.83 153.566 220.663 154.042 220.663 154.666V176.778C220.663 177.401 220.83 177.878 221.128 178.177L221.205 178.244L233.543 165.855V165.579L221.195 153.187L221.118 153.254Z" fill="url(#paint0_linear_381_60501)"/>
<path fill-rule="evenodd" clip-rule="evenodd" d="M237.648 169.997L233.533 165.865V165.576L237.648 161.444L237.737 161.499L242.605 164.277C243.998 165.065 243.998 166.367 242.605 167.165L237.737 169.943L237.648 169.997Z" fill="url(#paint1_linear_381_60501)"/>
<path fill-rule="evenodd" clip-rule="evenodd" d="M237.737 169.943L233.533 165.721L221.118 178.187C221.572 178.676 222.335 178.731 223.186 178.254L237.737 169.943Z" fill="url(#paint2_linear_381_60501)"/>
<path fill-rule="evenodd" clip-rule="evenodd" d="M237.737 161.499L223.186 153.199C222.335 152.711 221.57 152.778 221.118 153.267L233.533 165.721L237.737 161.499Z" fill="url(#paint3_linear_381_60501)"/>
<path opacity="0.2" fill-rule="evenodd" clip-rule="evenodd" d="M237.648 169.853L223.196 178.097C222.389 178.564 221.669 178.531 221.205 178.107L221.128 178.185L221.205 178.252C221.669 178.673 222.389 178.708 223.196 178.242L237.747 169.943L237.648 169.853Z" fill="black"/>
<path opacity="0.12" fill-rule="evenodd" clip-rule="evenodd" d="M242.605 167.02L237.636 169.853L237.725 169.943L242.593 167.165C243.291 166.766 243.633 166.242 243.633 165.721C243.591 166.2 243.236 166.653 242.605 167.02Z" fill="black"/>
<path opacity="0.25" fill-rule="evenodd" clip-rule="evenodd" d="M223.186 153.344L242.605 164.422C243.236 164.778 243.591 165.244 243.646 165.721C243.646 165.2 243.303 164.676 242.605 164.277L223.186 153.2C221.793 152.399 220.663 153.067 220.663 154.666V154.811C220.663 153.21 221.793 152.554 223.186 153.344Z" fill="white"/>
</g>
<circle cx="122.281" cy="134.127" r="6.14865" fill="white"/>
<circle cx="235.566" cy="82.4802" r="6.14865" fill="white"/>
</g>
<defs>
<filter id="filter0_f_381_60501" x="-297.834" y="-221.509" width="659.627" height="659.627" filterUnits="userSpaceOnUse" color-interpolation-filters="sRGB">
<feFlood flood-opacity="0" result="BackgroundImageFix"/>
<feBlend mode="normal" in="SourceGraphic" in2="BackgroundImageFix" result="shape"/>
<feGaussianBlur stdDeviation="86.8189" result="effect1_foregroundBlur_381_60501"/>
</filter>
<filter id="filter1_f_381_60501" x="56.3236" y="-207.985" width="494.843" height="494.843" filterUnits="userSpaceOnUse" color-interpolation-filters="sRGB">
<feFlood flood-opacity="0" result="BackgroundImageFix"/>
<feBlend mode="normal" in="SourceGraphic" in2="BackgroundImageFix" result="shape"/>
<feGaussianBlur stdDeviation="86.8189" result="effect1_foregroundBlur_381_60501"/>
</filter>
<filter id="filter2_f_381_60501" x="-67.887" y="-134.2" width="605.519" height="605.519" filterUnits="userSpaceOnUse" color-interpolation-filters="sRGB">
<feFlood flood-opacity="0" result="BackgroundImageFix"/>
<feBlend mode="normal" in="SourceGraphic" in2="BackgroundImageFix" result="shape"/>
<feGaussianBlur stdDeviation="86.8189" result="effect1_foregroundBlur_381_60501"/>
</filter>
<linearGradient id="paint0_linear_381_60501" x1="232.436" y1="154.427" x2="212.662" y2="159.675" gradientUnits="userSpaceOnUse">
<stop stop-color="#00A0FF"/>
<stop offset="0.00657" stop-color="#00A1FF"/>
<stop offset="0.2601" stop-color="#00BEFF"/>
<stop offset="0.5122" stop-color="#00D2FF"/>
<stop offset="0.7604" stop-color="#00DFFF"/>
<stop offset="1" stop-color="#00E3FF"/>
</linearGradient>
<linearGradient id="paint1_linear_381_60501" x1="244.422" y1="165.721" x2="220.324" y2="165.721" gradientUnits="userSpaceOnUse">
<stop stop-color="#FFE000"/>
<stop offset="0.4087" stop-color="#FFBD00"/>
<stop offset="0.7754" stop-color="#FFA500"/>
<stop offset="1" stop-color="#FF9C00"/>
</linearGradient>
<linearGradient id="paint2_linear_381_60501" x1="235.451" y1="168.018" x2="219.488" y2="194.775" gradientUnits="userSpaceOnUse">
<stop stop-color="#FF3A44"/>
<stop offset="1" stop-color="#C31162"/>
</linearGradient>
<linearGradient id="paint3_linear_381_60501" x1="217.991" y1="145.899" x2="225.113" y2="157.849" gradientUnits="userSpaceOnUse">
<stop stop-color="#32A071"/>
<stop offset="0.0685" stop-color="#2DA771"/>
<stop offset="0.4762" stop-color="#15CF74"/>
<stop offset="0.8009" stop-color="#06E775"/>
<stop offset="1" stop-color="#00F076"/>
</linearGradient>
<clipPath id="clip0_381_60501">
<path d="M0 14.8447C0 6.69472 6.60683 0.0878906 14.7568 0.0878906H349.243C357.393 0.0878906 364 6.69472 364 14.8446V193.155C364 201.305 357.393 207.912 349.243 207.912H14.7567C6.60682 207.912 0 201.305 0 193.155V14.8447Z" fill="white"/>
</clipPath>
<clipPath id="clip1_381_60501">
<rect width="130" height="43.455" fill="white" transform="translate(21.7344 35.7207)"/>
</clipPath>
<clipPath id="clip2_381_60501">
<rect width="79.4681" height="65.4957" fill="white" transform="translate(138.971 75.9675)"/>
</clipPath>
<clipPath id="clip3_381_60501">
<rect width="35.8043" height="35.8043" fill="white" transform="translate(160.799 75.9675)"/>
</clipPath>
<clipPath id="clip4_381_60501">
<rect width="135" height="40" fill="white" transform="translate(210.727 145.721)"/>
</clipPath>
</defs>
</svg>
