<svg width="46" height="33" viewBox="0 0 46 33" fill="none" xmlns="http://www.w3.org/2000/svg">
<path d="M19.4821 16.8552C18.5818 17.6352 17.4464 18.0914 16.2567 18.1511C15.0671 18.2107 13.8917 17.8704 12.9179 17.1844C11.9442 16.4984 11.2281 15.5061 10.8838 14.3658C10.5396 13.2255 10.587 12.0027 11.0185 10.8925C11.4499 9.78223 12.2407 8.84838 13.2646 8.23978C14.2886 7.63119 15.4868 7.38288 16.6682 7.53445C17.8497 7.68602 18.9464 8.22873 19.7836 9.07608C20.6207 9.92344 21.1501 11.0266 21.2874 12.2099C21.7621 14.6232 21.7567 17.4992 20.6687 20.0765C19.5194 22.7965 17.2007 25.0899 13.2421 26.1259C13.1146 26.1605 12.9815 26.1696 12.8505 26.1525C12.7195 26.1355 12.5931 26.0926 12.4788 26.0265C12.3644 25.9603 12.2643 25.8721 12.1843 25.767C12.1042 25.662 12.0457 25.5421 12.0123 25.4143C11.9788 25.2865 11.971 25.1533 11.9893 25.0224C12.0076 24.8916 12.0516 24.7657 12.1188 24.652C12.1861 24.5382 12.2752 24.439 12.381 24.3599C12.4868 24.2808 12.6073 24.2235 12.7354 24.1912C16.1101 23.3072 17.9247 21.4312 18.8261 19.2979C19.1515 18.5161 19.3721 17.6948 19.4821 16.8552Z" fill="#24304C"/>
<path d="M32.4899 16.6883C31.5896 17.4683 30.4542 17.9245 29.2645 17.9842C28.0749 18.0439 26.8995 17.7036 25.9257 17.0175C24.952 16.3315 24.2359 15.3392 23.8917 14.1989C23.5474 13.0586 23.5948 11.8359 24.0263 10.7256C24.4578 9.61536 25.2485 8.68151 26.2724 8.07291C27.2964 7.46432 28.4946 7.21601 29.676 7.36758C30.8575 7.51915 31.9542 8.06186 32.7914 8.90921C33.6285 9.75657 34.1579 10.8598 34.2952 12.043C34.7699 14.4563 34.7645 17.3323 33.6765 19.9097C32.5272 22.6297 30.2085 24.923 26.2499 25.959C26.1224 25.9937 25.9893 26.0027 25.8583 25.9857C25.7273 25.9686 25.601 25.9258 25.4866 25.8596C25.3723 25.7934 25.2722 25.7053 25.1921 25.6002C25.112 25.4951 25.0535 25.3752 25.0201 25.2474C24.9866 25.1196 24.9788 24.9864 24.9971 24.8556C25.0154 24.7247 25.0594 24.5988 25.1266 24.4851C25.1939 24.3714 25.283 24.2721 25.3888 24.193C25.4946 24.1139 25.6151 24.0566 25.7432 24.0243C29.1179 23.1403 30.9325 21.2643 31.8339 19.131C32.1593 18.3493 32.3799 17.5279 32.4899 16.6883Z" fill="#24304C"/>
</svg>
