<svg width="219" height="45" viewBox="0 0 219 45" fill="none" xmlns="http://www.w3.org/2000/svg">
<path d="M111.778 13.7521C111.314 12.7712 110.704 11.8953 109.951 11.1304C109.194 10.3655 108.276 9.75652 107.194 9.30657C106.108 8.85661 104.843 8.63164 103.393 8.63164C101.419 8.63164 99.6698 9.0666 98.1447 9.93651C96.9934 10.5934 96.0275 11.4873 95.253 12.6152V1.13843H92.2686V33.535H95.5879V20.5764C95.5879 19.1965 95.7434 17.9667 96.0574 16.8868C96.3714 15.8069 96.8319 14.889 97.436 14.1301C98.04 13.3741 98.7876 12.7922 99.6788 12.3872C100.567 11.9823 101.596 11.7783 102.762 11.7783C104.033 11.7783 105.112 12.0123 106.003 12.4772C106.892 12.9422 107.618 13.5991 108.18 14.445C108.743 15.2909 109.149 16.2808 109.404 17.4147C109.658 18.5486 109.786 19.7875 109.786 21.1373V33.532H113.106V20.1684C113.106 19.0735 113.001 17.9757 112.792 16.8718C112.582 15.7679 112.244 14.727 111.781 13.7431L111.778 13.7521Z" fill="white"/>
<path d="M135.147 10.2314C133.458 9.12756 131.415 8.57861 129.026 8.57861C126.637 8.57861 124.672 9.10356 122.958 10.1534C121.245 11.2033 119.92 12.6942 118.978 14.632C118.036 16.5668 117.564 18.8615 117.564 21.5163C117.564 24.171 118.042 26.3157 118.999 28.2205C119.956 30.1253 121.299 31.6042 123.024 32.6541C124.753 33.704 126.795 34.2289 129.158 34.2289C131.52 34.2289 133.61 33.647 135.47 32.4861C137.33 31.3252 138.742 29.6844 139.699 27.5696L136.628 26.3787C135.88 27.8936 134.86 29.0515 133.565 29.8554C132.271 30.6593 130.757 31.0583 129.023 31.0583C126.481 31.0583 124.519 30.2153 123.135 28.5265C121.894 27.0147 121.215 24.9449 121.086 22.3292H140.168C140.243 19.4795 139.845 17.0257 138.978 14.9709C138.111 12.9162 136.834 11.3383 135.141 10.2344L135.147 10.2314ZM123.138 14.155C124.519 12.4602 126.514 11.6143 129.116 11.6143C131.717 11.6143 133.485 12.4182 134.779 14.023C135.844 15.3429 136.49 17.1907 136.717 19.5575H121.158C121.385 17.3077 122.04 15.5019 123.138 14.158V14.155Z" fill="white"/>
<path d="M163.06 13.4381C162.417 11.8633 161.322 10.6604 159.773 9.82647C158.224 8.99556 156.346 8.57861 154.133 8.57861C151.457 8.57861 149.28 9.17855 147.608 10.3784C145.934 11.5783 144.818 13.2671 144.265 15.4419L147.471 16.3868C147.934 14.767 148.739 13.5821 149.881 12.8322C151.026 12.0822 152.426 11.7073 154.086 11.7073C156.493 11.7073 158.182 12.2862 159.154 13.4411C160.048 14.506 160.509 16.1048 160.539 18.2226C159.749 18.3336 158.894 18.4446 157.952 18.5586C156.523 18.7296 155.066 18.9335 153.58 19.1645C152.094 19.3985 150.736 19.6625 149.51 19.9624C148.299 20.2774 147.235 20.7333 146.314 21.3333C145.392 21.9332 144.669 22.7011 144.137 23.64C143.604 24.5759 143.341 25.7068 143.341 27.0267C143.341 28.3465 143.646 29.5104 144.259 30.6053C144.872 31.7002 145.796 32.5761 147.028 33.239C148.26 33.899 149.791 34.2289 151.616 34.2289C154.038 34.2289 156.116 33.68 157.851 32.5881C159.074 31.8172 160.063 30.7943 160.835 29.5284V33.554H163.772V18.4596C163.772 17.5597 163.727 16.6748 163.637 15.8049C163.547 14.935 163.353 14.146 163.054 13.4411L163.06 13.4381ZM160.189 24.9809C159.98 26.1958 159.525 27.2877 158.822 28.2536C158.12 29.2195 157.193 29.9814 156.041 30.5363C154.89 31.0913 153.544 31.3672 152.004 31.3672C150.703 31.3672 149.66 31.1512 148.876 30.7163C148.093 30.2813 147.522 29.7324 147.172 29.0755C146.819 28.4155 146.645 27.7346 146.645 27.0267C146.645 26.1568 146.852 25.4308 147.261 24.8429C147.671 24.258 148.2 23.79 148.843 23.4361C149.486 23.0851 150.15 22.8091 150.838 22.6141C151.855 22.3442 152.994 22.1102 154.259 21.9152C155.521 21.7202 156.81 21.5492 158.117 21.3993C158.951 21.3033 159.743 21.2073 160.5 21.1113C160.497 21.4743 160.491 21.9032 160.482 22.3982C160.467 23.3341 160.368 24.195 160.192 24.9749L160.189 24.9809Z" fill="white"/>
<path d="M173.356 0.458008H170.061V33.5295H173.356V0.458008Z" fill="white"/>
<path d="M185.853 2.50464H182.579V9.25393H177.396V12.0886H182.579V24.7533C182.579 25.9382 182.597 26.9911 182.636 27.915C182.672 28.8359 182.908 29.7478 183.341 30.6477C183.88 31.7276 184.669 32.5225 185.707 33.0324C186.745 33.5424 187.929 33.8273 189.25 33.8873C190.572 33.9473 191.915 33.8333 193.276 33.5514V30.6507C191.541 30.9357 190.088 30.9807 188.913 30.7857C187.737 30.5907 186.882 29.9908 186.344 28.9859C186.06 28.4609 185.907 27.858 185.883 27.174C185.859 26.4901 185.85 25.6412 185.85 24.6213V12.0916H193.273V9.25693H185.85V2.50764L185.853 2.50464Z" fill="white"/>
<path d="M218.534 16.8808C218.325 15.7769 217.987 14.736 217.523 13.7521C217.06 12.7712 216.45 11.8953 215.696 11.1304C214.94 10.3655 214.022 9.75654 212.939 9.30658C211.854 8.85663 210.589 8.63165 209.138 8.63165C207.165 8.63165 205.415 9.0666 203.89 9.93651C202.739 10.5934 201.773 11.4873 200.998 12.6152V1.13843H198.014V33.535H201.333V20.5764C201.333 19.1965 201.489 17.9667 201.803 16.8868C202.117 15.8069 202.577 14.889 203.181 14.1301C203.785 13.3741 204.533 12.7922 205.424 12.3872C206.312 11.9823 207.341 11.7783 208.507 11.7783C209.778 11.7783 210.858 12.0123 211.749 12.4773C212.637 12.9422 213.364 13.5991 213.926 14.445C214.488 15.291 214.895 16.2808 215.149 17.4147C215.403 18.5486 215.532 19.7875 215.532 21.1373V33.532H218.851V20.1684C218.851 19.0735 218.746 17.9757 218.537 16.8718L218.534 16.8808Z" fill="white"/>
<path d="M43.8524 12.9882C43.0001 11.3683 41.7441 10.2284 40.0844 9.56851C38.4248 8.90857 36.5259 8.57861 34.3877 8.57861C31.4721 8.57861 29.1695 9.20854 27.4799 10.4684C25.7903 11.7283 24.639 13.3631 24.026 15.3729L29.5433 17.1277C29.932 16.0178 30.6108 15.2469 31.5857 14.812C32.5576 14.377 33.4936 14.158 34.3907 14.158C36.0055 14.158 37.1568 14.494 37.8446 15.1719C38.3829 15.6999 38.7089 16.4678 38.8255 17.4697C37.7968 17.6257 36.8159 17.7696 35.8949 17.9076C34.3249 18.1416 32.9194 18.3846 31.6784 18.6396C30.4374 18.8945 29.3698 19.1885 28.4727 19.5185C27.1719 19.9984 26.1372 20.5954 25.3657 21.3063C24.5941 22.0202 24.0379 22.8391 23.694 23.769C23.3501 24.6989 23.1797 25.7278 23.1797 26.8527C23.1797 28.2026 23.4907 29.4354 24.1097 30.5543C24.7287 31.6732 25.6408 32.5641 26.8459 33.23C28.0481 33.896 29.5193 34.2319 31.2538 34.2319C33.3471 34.2319 35.0785 33.869 36.4451 33.14C37.5247 32.5671 38.5444 31.7062 39.5073 30.5693V33.557H44.8452V18.7086C44.8452 17.5987 44.8003 16.5938 44.7106 15.6939C44.6209 14.794 44.3368 13.894 43.8583 12.9941L43.8524 12.9882ZM38.1556 26.1718C37.9912 26.5167 37.6802 26.9457 37.2256 27.4556C36.7711 27.9656 36.158 28.4185 35.3865 28.8175C34.615 29.2164 33.67 29.4144 32.5486 29.4144C31.8459 29.4144 31.2388 29.3094 30.7305 29.0995C30.2221 28.8895 29.8303 28.5865 29.5522 28.1876C29.2741 27.7916 29.1366 27.3146 29.1366 26.7597C29.1366 26.3547 29.2233 25.9888 29.3937 25.6588C29.5642 25.3289 29.8333 25.0259 30.2012 24.7469C30.566 24.468 31.0504 24.21 31.6485 23.97C32.1718 23.775 32.7759 23.595 33.4637 23.4301C34.1515 23.2651 35.0576 23.0821 36.179 22.8781C36.8997 22.7491 37.7639 22.5991 38.7687 22.4282C38.7567 22.8571 38.7358 23.3311 38.7029 23.868C38.649 24.7469 38.4666 25.5148 38.1526 26.1748L38.1556 26.1718Z" fill="white"/>
<path d="M68.3098 10.2434C66.5903 9.13355 64.5718 8.57861 62.2542 8.57861C59.9366 8.57861 58.0138 9.14255 56.4438 10.2644C56.2973 10.3694 56.1568 10.4804 56.0192 10.5944V9.25354H50.6365V44.3499H56.7818V32.6961C58.3547 33.713 60.2805 34.2259 62.5682 34.2259C64.8558 34.2259 66.7458 33.662 68.4234 32.5401C70.098 31.4152 71.4018 29.8854 72.3378 27.9506C73.2708 26.0158 73.7403 23.832 73.7403 21.4023C73.7403 18.9725 73.2649 16.7258 72.3169 14.8C71.366 12.8742 70.0322 11.3533 68.3128 10.2434H68.3098ZM66.671 25.1249C66.2673 26.2438 65.6453 27.1317 64.808 27.7916C63.9707 28.4515 62.8941 28.7815 61.5784 28.7815C60.2626 28.7815 59.1292 28.4755 58.3158 27.8606C57.4995 27.2457 56.9133 26.3847 56.5545 25.2749C56.1956 24.165 56.0162 22.8751 56.0162 21.4053C56.0162 19.9354 56.1956 18.6456 56.5545 17.5357C56.9133 16.4258 57.4845 15.5649 58.271 14.9499C59.0545 14.335 60.0832 14.029 61.3541 14.029C62.7147 14.029 63.8331 14.362 64.7063 15.0309C65.5795 15.6969 66.2284 16.5908 66.6471 17.7067C67.0658 18.8255 67.2751 20.0584 67.2751 21.4083C67.2751 22.7581 67.0747 24.015 66.671 25.1309V25.1249Z" fill="white"/>
<path d="M85.1018 27.9771H79.5605V33.5355H85.1018V27.9771Z" fill="white"/>
<path d="M12.3445 23.9416H6.30737C6.30737 25.3813 6.32217 26.6697 6.35176 27.8036C6.38136 28.9406 6.69209 30.0568 7.28397 31.1552C7.93503 32.3278 8.88499 33.1768 10.1368 33.7052C11.3857 34.2336 12.8091 34.5126 14.3983 34.5512C15.9905 34.5868 17.6122 34.4503 19.2695 34.1386V29.1069C17.849 29.2998 16.5528 29.3592 15.3868 29.285C14.2178 29.2108 13.3655 28.7506 12.8358 27.9046C12.5546 27.4593 12.4037 26.8626 12.38 26.1116C12.3563 25.3635 12.3475 24.8765 12.3475 23.9414L12.3445 23.9416Z" fill="white"/>
<path d="M12.3584 7.91968H18.4395V14.0232H12.3584V20.1013H6.25391V14.0232H0.179688V7.91968H6.25391V1.84546H12.3584V7.91968Z" fill="white"/>
</svg>
