<svg width="24" height="25" viewBox="0 0 24 25" fill="none" xmlns="http://www.w3.org/2000/svg">
<path fill-rule="evenodd" clip-rule="evenodd" d="M3.12646 17.4108V4.64252H5.09082V17.4108C5.09082 18.4957 5.97029 19.3752 7.05517 19.3752H19.8235V21.3395H7.05517C4.88541 21.3395 3.12646 19.5806 3.12646 17.4108Z" fill="#34D399"/>
<path fill-rule="evenodd" clip-rule="evenodd" d="M20.518 11.2301L17.1399 14.6081C16.181 15.567 14.6263 15.567 13.6674 14.6081L12.3133 13.254C12.1215 13.0622 11.8106 13.0622 11.6188 13.254L7.74968 17.1231L6.36067 15.7341L10.2298 11.865C11.1887 10.9061 12.7434 10.9061 13.7023 11.865L15.0564 13.2191C15.2482 13.4109 15.5591 13.4109 15.7509 13.2191L19.129 9.84107L20.518 11.2301Z" fill="#34D399"/>
</svg>
