<svg width="48" height="34" viewBox="0 0 48 34" fill="none" xmlns="http://www.w3.org/2000/svg">
<path d="M21.0074 17.0319C20.0764 17.8385 18.9023 18.3103 17.672 18.372C16.4417 18.4337 15.2262 18.0817 14.2192 17.3723C13.2122 16.6629 12.4717 15.6367 12.1157 14.4575C11.7597 13.2783 11.8087 12.0138 12.2549 10.8656C12.7012 9.71749 13.5189 8.75176 14.5778 8.12239C15.6366 7.49302 16.8757 7.23624 18.0975 7.39299C19.3193 7.54973 20.4535 8.11096 21.3192 8.98724C22.1849 9.86351 22.7324 11.0044 22.8744 12.228C23.3652 14.7237 23.3597 17.6978 22.2346 20.3631C21.046 23.176 18.6482 25.5476 14.5544 26.6189C14.4226 26.6548 14.285 26.6642 14.1495 26.6465C14.014 26.6289 13.8834 26.5846 13.7651 26.5161C13.6469 26.4477 13.5433 26.3565 13.4605 26.2479C13.3777 26.1392 13.3173 26.0152 13.2827 25.883C13.248 25.7509 13.24 25.6132 13.2589 25.4779C13.2778 25.3425 13.3233 25.2123 13.3929 25.0947C13.4624 24.9771 13.5546 24.8745 13.664 24.7927C13.7734 24.7109 13.898 24.6516 14.0305 24.6182C17.5203 23.7041 19.3969 21.764 20.329 19.5579C20.6656 18.7495 20.8937 17.9001 21.0074 17.0319Z" fill="#24304C"/>
<path d="M34.7952 17.0319C33.8643 17.8385 32.6901 18.3103 31.4598 18.372C30.2296 18.4337 29.0141 18.0817 28.0071 17.3723C27.0001 16.6629 26.2596 15.6367 25.9036 14.4575C25.5476 13.2783 25.5966 12.0138 26.0428 10.8656C26.489 9.71749 27.3067 8.75176 28.3656 8.12239C29.4245 7.49302 30.6636 7.23624 31.8854 7.39299C33.1072 7.54973 34.2413 8.11096 35.1071 8.98724C35.9728 9.86351 36.5203 11.0044 36.6622 12.228C37.1531 14.7237 37.1476 17.6978 36.0224 20.3631C34.8339 23.176 32.4361 25.5476 28.3423 26.6189C28.2104 26.6548 28.0728 26.6642 27.9373 26.6465C27.8019 26.6289 27.6712 26.5846 27.553 26.5161C27.4347 26.4477 27.3312 26.3565 27.2484 26.2479C27.1656 26.1392 27.1051 26.0152 27.0705 25.883C27.0359 25.7509 27.0278 25.6132 27.0467 25.4779C27.0656 25.3425 27.1112 25.2123 27.1807 25.0947C27.2502 24.9771 27.3424 24.8745 27.4518 24.7927C27.5613 24.7109 27.6858 24.6516 27.8183 24.6182C31.3082 23.7041 33.1848 21.764 34.1169 19.5579C34.4534 18.7495 34.6815 17.9001 34.7952 17.0319Z" fill="#24304C"/>
</svg>
