<svg width="229" height="87" viewBox="0 0 229 87" fill="none" xmlns="http://www.w3.org/2000/svg">
<path d="M7.91649 25.2119L14.4231 13.9351H7.23364V11.5549H17.1838V13.9351L10.6577 25.2119H7.91649ZM22.6975 25.2119V21.905H16.8835V19.515L22.1415 11.5549H25.0777V19.5247H26.2288V21.905H25.0777V25.2119H22.6975ZM19.6442 19.515L22.6975 19.5247L22.6878 14.8033L19.6442 19.515ZM29.4402 25.2119L37.3223 11.5549H40.0732L32.1911 25.2119H29.4402ZM31.1181 17.4762C30.5848 17.4762 30.0938 17.3494 29.6451 17.0957C29.2028 16.8356 28.8484 16.4844 28.5818 16.0422C28.3151 15.5999 28.1818 15.1057 28.1818 14.5594C28.1818 14.0001 28.3151 13.4994 28.5818 13.0571C28.8549 12.6149 29.2126 12.267 29.6548 12.0133C30.1036 11.7597 30.5913 11.6329 31.1181 11.6329C31.6514 11.6329 32.1391 11.763 32.5813 12.0231C33.0236 12.2832 33.3748 12.6344 33.6349 13.0766C33.9015 13.5189 34.0348 14.0131 34.0348 14.5594C34.0348 15.1122 33.8983 15.6097 33.6251 16.0519C33.3585 16.4942 33.0041 16.8421 32.5618 17.0957C32.1196 17.3494 31.6384 17.4762 31.1181 17.4762ZM31.1181 15.8471C31.4693 15.8471 31.7717 15.7235 32.0253 15.4764C32.2789 15.2228 32.4058 14.9171 32.4058 14.5594C32.4058 14.1952 32.2789 13.8896 32.0253 13.6424C31.7717 13.3953 31.4693 13.2717 31.1181 13.2717C30.7604 13.2717 30.4515 13.3953 30.1914 13.6424C29.9377 13.8896 29.8109 14.1952 29.8109 14.5594C29.8109 14.9171 29.9377 15.2228 30.1914 15.4764C30.4515 15.7235 30.7604 15.8471 31.1181 15.8471ZM38.3953 25.1436C37.8556 25.1436 37.3646 25.0103 36.9223 24.7437C36.4801 24.4705 36.1289 24.1128 35.8688 23.6706C35.6087 23.2219 35.4786 22.7406 35.4786 22.2269C35.4786 21.6676 35.6119 21.1668 35.8785 20.7246C36.1517 20.2824 36.5094 19.9344 36.9516 19.6808C37.4003 19.4207 37.8816 19.2906 38.3953 19.2906C38.9546 19.2906 39.4554 19.4272 39.8976 19.7003C40.3399 19.9735 40.6878 20.3344 40.9414 20.7831C41.2015 21.2254 41.3316 21.7066 41.3316 22.2269C41.3316 22.7601 41.1983 23.2479 40.9317 23.6901C40.6715 24.1324 40.3171 24.4868 39.8684 24.7534C39.4261 25.0136 38.9351 25.1436 38.3953 25.1436ZM38.3953 23.5145C38.7595 23.5145 39.0684 23.3877 39.3221 23.1341C39.5757 22.8805 39.7025 22.5781 39.7025 22.2269C39.7025 21.8627 39.5757 21.5538 39.3221 21.3001C39.0684 21.0465 38.7595 20.9197 38.3953 20.9197C38.0442 20.9197 37.7418 21.0465 37.4881 21.3001C37.2345 21.5538 37.1077 21.8627 37.1077 22.2269C37.1077 22.5781 37.2345 22.8805 37.4881 23.1341C37.7418 23.3877 38.0442 23.5145 38.3953 23.5145ZM51.1807 22.1293V25.2119H49.9906V22.4415C49.9906 22.2496 49.9435 22.0757 49.8492 21.9196C49.7549 21.7603 49.628 21.6351 49.4687 21.544C49.3126 21.4497 49.1387 21.4026 48.9468 21.4026C48.755 21.4026 48.5794 21.4497 48.42 21.544C48.264 21.6351 48.1388 21.7603 48.0445 21.9196C47.9534 22.0757 47.9079 22.2496 47.9079 22.4415V25.2119H46.7178L46.7129 20.3344H47.903L47.9079 20.7685C48.0737 20.5929 48.2721 20.4547 48.503 20.3539C48.7338 20.2499 48.9826 20.1978 49.2492 20.1978C49.6037 20.1978 49.9272 20.2856 50.2198 20.4612C50.5125 20.6335 50.745 20.866 50.9173 21.1587C51.0929 21.4481 51.1807 21.7716 51.1807 22.1293ZM54.2033 25.3387C53.7546 25.3387 53.3449 25.2233 52.9742 24.9924C52.6068 24.7616 52.3125 24.4526 52.0914 24.0657C51.8735 23.6755 51.7646 23.2446 51.7646 22.7732C51.7646 22.4155 51.828 22.0822 51.9548 21.7733C52.0816 21.4611 52.2556 21.188 52.4767 20.9538C52.7011 20.7165 52.9612 20.5311 53.2571 20.3978C53.553 20.2645 53.8684 20.1978 54.2033 20.1978C54.6521 20.1978 55.0601 20.3133 55.4276 20.5441C55.7983 20.775 56.0926 21.0855 56.3104 21.4757C56.5315 21.8659 56.6421 22.2984 56.6421 22.7732C56.6421 23.1276 56.5787 23.4593 56.4519 23.7682C56.3251 24.0771 56.1495 24.3502 55.9251 24.5876C55.704 24.8217 55.4455 25.0054 55.1496 25.1388C54.8569 25.2721 54.5415 25.3387 54.2033 25.3387ZM54.2033 24.1486C54.4407 24.1486 54.6537 24.0852 54.8423 23.9584C55.0309 23.8316 55.1788 23.6641 55.2861 23.456C55.3967 23.2479 55.452 23.0203 55.452 22.7732C55.452 22.5195 55.3951 22.2887 55.2813 22.0805C55.1707 21.8692 55.0195 21.7017 54.8277 21.5782C54.6391 21.4513 54.4309 21.3879 54.2033 21.3879C53.9692 21.3879 53.7579 21.4513 53.5693 21.5782C53.3807 21.705 53.2311 21.8741 53.1205 22.0854C53.01 22.2968 52.9547 22.526 52.9547 22.7732C52.9547 23.03 53.0116 23.2625 53.1254 23.4706C53.2392 23.6787 53.3904 23.8446 53.579 23.9681C53.7709 24.0885 53.979 24.1486 54.2033 24.1486ZM57.4064 25.2119L57.4015 20.3344H58.5917L58.5965 20.7685C58.7624 20.5929 58.9607 20.4547 59.1916 20.3539C59.4225 20.2499 59.6712 20.1978 59.9378 20.1978C60.1167 20.1978 60.2955 20.2238 60.4744 20.2759L60.0061 21.4757C59.8826 21.427 59.759 21.4026 59.6354 21.4026C59.4436 21.4026 59.268 21.4497 59.1087 21.544C58.9526 21.6351 58.8274 21.7603 58.7331 21.9196C58.6421 22.0757 58.5965 22.2496 58.5965 22.4415V25.2119H57.4064ZM61.0406 25.2119V20.3344H62.2307V20.7685C62.3966 20.5929 62.5949 20.4547 62.8258 20.3539C63.0567 20.2499 63.3054 20.1978 63.5721 20.1978C63.9102 20.1978 64.2208 20.2775 64.5037 20.4368C64.7898 20.5962 65.0174 20.8091 65.1865 21.0758C65.3589 20.8091 65.5865 20.5962 65.8694 20.4368C66.1523 20.2775 66.4628 20.1978 66.801 20.1978C67.1587 20.1978 67.4822 20.2856 67.7716 20.4612C68.0643 20.6335 68.2967 20.866 68.4691 21.1587C68.6447 21.4481 68.7325 21.7716 68.7325 22.1293V25.2119H67.5424V22.4464C67.5424 22.2578 67.4952 22.0854 67.4009 21.9293C67.3099 21.77 67.1863 21.6432 67.0302 21.5489C66.8774 21.4513 66.7051 21.4026 66.5132 21.4026C66.3214 21.4026 66.1474 21.4497 65.9913 21.544C65.8385 21.6351 65.7149 21.7586 65.6206 21.9147C65.5263 22.0708 65.4792 22.248 65.4792 22.4464V25.2119H64.2891V22.4464C64.2891 22.248 64.2435 22.0708 64.1525 21.9147C64.0614 21.7586 63.9379 21.6351 63.7818 21.544C63.6257 21.4497 63.4517 21.4026 63.2599 21.4026C63.0713 21.4026 62.899 21.4513 62.7429 21.5489C62.5868 21.6432 62.4616 21.77 62.3673 21.9293C62.2763 22.0854 62.2307 22.2578 62.2307 22.4464V25.2119H61.0406ZM73.292 20.3344H74.4821V25.2119H73.292L73.2384 24.6071C73.1051 24.825 72.9278 25.0022 72.7067 25.1388C72.4889 25.2721 72.2304 25.3387 71.9312 25.3387C71.5703 25.3387 71.2321 25.2704 70.9167 25.1339C70.6013 24.9973 70.3233 24.8087 70.0826 24.5681C69.8453 24.3275 69.6583 24.0494 69.5217 23.734C69.3884 23.4186 69.3217 23.0804 69.3217 22.7195C69.3217 22.3716 69.3851 22.0448 69.512 21.7391C69.642 21.4335 69.8225 21.1652 70.0534 20.9343C70.2842 20.7035 70.5509 20.523 70.8533 20.3929C71.1557 20.2629 71.4808 20.1978 71.8288 20.1978C72.1507 20.1978 72.4385 20.2694 72.6921 20.4124C72.949 20.5555 73.1668 20.7376 73.3457 20.9587L73.292 20.3344ZM71.9019 24.1925C72.1556 24.1925 72.3799 24.1291 72.575 24.0023C72.7701 23.8755 72.923 23.7048 73.0335 23.4901C73.1441 23.2723 73.1994 23.0333 73.1994 22.7732C73.1994 22.5098 73.1441 22.2708 73.0335 22.0562C72.923 21.8383 72.7685 21.666 72.5702 21.5391C72.3751 21.4123 72.1523 21.3489 71.9019 21.3489C71.6516 21.3489 71.4223 21.414 71.2142 21.544C71.0094 21.6708 70.8451 21.8415 70.7216 22.0562C70.6013 22.2708 70.5411 22.5098 70.5411 22.7732C70.5411 23.0365 70.6029 23.2755 70.7265 23.4901C70.85 23.7048 71.0142 23.8755 71.2191 24.0023C71.4272 24.1291 71.6548 24.1925 71.9019 24.1925ZM75.4826 25.2119V17.8956H76.6728V25.2119H75.4826Z" fill="#252E49"/>
<path d="M172.13 28.2119V26.6316H169.613V25.9209L171.954 22.3589H172.832V25.9292H173.413V26.6316H172.832V28.2119H172.13ZM170.437 25.9209L172.13 25.9292L172.117 23.3455L170.437 25.9209ZM176.36 28.2119L177.493 22.3589H178.032L179.613 26.5145L181.189 22.3589H181.728L182.865 28.2119H182.15L181.327 23.9643L179.842 27.8942H179.378L177.894 23.9643L177.075 28.2119H176.36ZM186.833 24.0312H187.535V28.2119H186.833L186.803 27.5054C186.672 27.7479 186.491 27.9443 186.26 28.0949C186.031 28.2454 185.758 28.3206 185.44 28.3206C185.134 28.3206 184.847 28.2635 184.579 28.1492C184.312 28.0321 184.075 27.8719 183.868 27.6684C183.665 27.4622 183.506 27.2253 183.392 26.9577C183.278 26.6901 183.22 26.4017 183.22 26.0923C183.22 25.7941 183.276 25.5126 183.388 25.2478C183.499 24.983 183.654 24.7517 183.852 24.5538C184.052 24.3531 184.284 24.197 184.546 24.0855C184.808 23.9713 185.089 23.9141 185.39 23.9141C185.719 23.9141 186.008 23.9922 186.256 24.1482C186.504 24.3015 186.704 24.5008 186.858 24.7461L186.833 24.0312ZM185.428 27.6392C185.704 27.6392 185.942 27.5723 186.143 27.4385C186.346 27.3019 186.502 27.118 186.611 26.8866C186.723 26.6553 186.778 26.4003 186.778 26.1215C186.778 25.8373 186.723 25.5808 186.611 25.3523C186.5 25.121 186.342 24.9384 186.139 24.8046C185.938 24.668 185.701 24.5998 185.428 24.5998C185.152 24.5998 184.901 24.668 184.675 24.8046C184.45 24.9412 184.27 25.1251 184.136 25.3565C184.005 25.585 183.94 25.84 183.94 26.1215C183.94 26.4031 184.008 26.6595 184.144 26.8908C184.281 27.1193 184.462 27.3019 184.688 27.4385C184.914 27.5723 185.16 27.6392 185.428 27.6392ZM188.337 28.2119V24.0312H189.04V24.5538C189.187 24.3587 189.374 24.204 189.6 24.0897C189.825 23.9727 190.071 23.9141 190.336 23.9141C190.497 23.9141 190.653 23.935 190.804 23.9768L190.519 24.6792C190.405 24.643 190.294 24.6248 190.185 24.6248C189.976 24.6248 189.784 24.6764 189.608 24.7795C189.435 24.8799 189.297 25.0164 189.194 25.1892C189.091 25.362 189.04 25.5544 189.04 25.7662V28.2119H188.337ZM193.333 25.3523H196.009V26.0547H193.333V25.3523ZM203.385 22.3589V23.0613H201.436V28.2119H200.734V23.0613H198.79V22.3589H203.385ZM205.385 28.3206C205 28.3206 204.649 28.2217 204.332 28.0238C204.017 27.8259 203.764 27.5611 203.575 27.2294C203.388 26.895 203.295 26.5257 203.295 26.1215C203.295 25.815 203.349 25.5293 203.458 25.2645C203.566 24.9969 203.716 24.7628 203.905 24.5621C204.097 24.3587 204.32 24.1998 204.574 24.0855C204.828 23.9713 205.098 23.9141 205.385 23.9141C205.77 23.9141 206.119 24.0131 206.434 24.211C206.752 24.4088 207.004 24.675 207.191 25.0095C207.381 25.3439 207.475 25.7146 207.475 26.1215C207.475 26.4253 207.421 26.7096 207.312 26.9744C207.204 27.2392 207.053 27.4733 206.861 27.6768C206.671 27.8775 206.45 28.0349 206.196 28.1492C205.945 28.2635 205.675 28.3206 205.385 28.3206ZM205.385 27.6183C205.647 27.6183 205.883 27.55 206.092 27.4134C206.303 27.274 206.469 27.0915 206.589 26.8657C206.712 26.6372 206.773 26.3891 206.773 26.1215C206.773 25.8484 206.71 25.5976 206.585 25.369C206.462 25.1405 206.296 24.9579 206.087 24.8213C205.878 24.6848 205.644 24.6165 205.385 24.6165C205.123 24.6165 204.888 24.6862 204.679 24.8255C204.469 24.9621 204.304 25.1447 204.181 25.3732C204.058 25.6017 203.997 25.8512 203.997 26.1215C203.997 26.4003 204.06 26.6539 204.185 26.8824C204.311 27.1082 204.479 27.288 204.691 27.4218C204.903 27.5528 205.134 27.6183 205.385 27.6183ZM211.475 21.9408H212.177V28.2119H211.475V27.5012C211.333 27.7465 211.142 27.9443 210.902 28.0949C210.662 28.2454 210.381 28.3206 210.057 28.3206C209.754 28.3206 209.469 28.2635 209.205 28.1492C208.94 28.0349 208.706 27.8775 208.502 27.6768C208.302 27.4733 208.144 27.2392 208.03 26.9744C207.916 26.7096 207.858 26.4253 207.858 26.1215C207.858 25.8177 207.916 25.5335 208.03 25.2687C208.144 25.0011 208.302 24.767 208.502 24.5663C208.706 24.3629 208.94 24.204 209.205 24.0897C209.469 23.9754 209.754 23.9183 210.057 23.9183C210.381 23.9183 210.662 23.9936 210.902 24.1441C211.142 24.2946 211.333 24.4925 211.475 24.7377V21.9408ZM210.066 27.6392C210.342 27.6392 210.58 27.5723 210.781 27.4385C210.984 27.3019 211.14 27.118 211.249 26.8866C211.36 26.6553 211.416 26.4003 211.416 26.1215C211.416 25.8373 211.36 25.5808 211.249 25.3523C211.138 25.121 210.98 24.9384 210.777 24.8046C210.576 24.668 210.339 24.5998 210.066 24.5998C209.79 24.5998 209.539 24.668 209.313 24.8046C209.09 24.9412 208.912 25.1251 208.778 25.3565C208.644 25.585 208.578 25.84 208.578 26.1215C208.578 26.4031 208.646 26.6595 208.782 26.8908C208.919 27.1193 209.1 27.3019 209.326 27.4385C209.552 27.5723 209.798 27.6392 210.066 27.6392ZM216.467 24.0312H217.169V28.2119H216.467L216.438 27.5054C216.307 27.7479 216.126 27.9443 215.894 28.0949C215.666 28.2454 215.393 28.3206 215.075 28.3206C214.768 28.3206 214.481 28.2635 214.214 28.1492C213.946 28.0321 213.709 27.8719 213.503 27.6684C213.299 27.4622 213.141 27.2253 213.026 26.9577C212.912 26.6901 212.855 26.4017 212.855 26.0923C212.855 25.7941 212.911 25.5126 213.022 25.2478C213.134 24.983 213.288 24.7517 213.486 24.5538C213.687 24.3531 213.918 24.197 214.18 24.0855C214.442 23.9713 214.724 23.9141 215.025 23.9141C215.354 23.9141 215.642 23.9922 215.89 24.1482C216.138 24.3015 216.339 24.5008 216.492 24.7461L216.467 24.0312ZM215.062 27.6392C215.338 27.6392 215.577 27.5723 215.777 27.4385C215.981 27.3019 216.137 27.118 216.245 26.8866C216.357 26.6553 216.413 26.4003 216.413 26.1215C216.413 25.8373 216.357 25.5808 216.245 25.3523C216.134 25.121 215.977 24.9384 215.773 24.8046C215.572 24.668 215.335 24.5998 215.062 24.5998C214.786 24.5998 214.536 24.668 214.31 24.8046C214.084 24.9412 213.904 25.1251 213.77 25.3565C213.639 25.585 213.574 25.84 213.574 26.1215C213.574 26.4031 213.642 26.6595 213.779 26.8908C213.915 27.1193 214.097 27.3019 214.322 27.4385C214.548 27.5723 214.795 27.6392 215.062 27.6392ZM220.705 24.0312H221.449L219.162 30.3023H218.418L219.175 28.2119L217.674 24.0312H218.443L219.526 27.2462L220.705 24.0312Z" fill="#3D4966"/>
<rect x="6.64678" y="38.6887" width="4.57404" height="4.57404" rx="2.28702" fill="#10B981"/>
<path d="M13.1396 43.9756V38.1226H13.9005L16.8228 42.7046V38.1226H17.5252V43.9756H16.7685L13.842 39.3935V43.9756H13.1396ZM20.3275 44.0843C19.9429 44.0843 19.5917 43.9853 19.274 43.7875C18.959 43.5896 18.7068 43.3248 18.5173 42.9931C18.3305 42.6587 18.2371 42.2894 18.2371 41.8852C18.2371 41.5786 18.2915 41.293 18.4002 41.0282C18.5089 40.7606 18.658 40.5265 18.8475 40.3258C19.0398 40.1223 19.2628 39.9635 19.5165 39.8492C19.7701 39.7349 20.0404 39.6778 20.3275 39.6778C20.7121 39.6778 21.0619 39.7767 21.3769 39.9746C21.6946 40.1725 21.9468 40.4387 22.1336 40.7731C22.3231 41.1076 22.4179 41.4783 22.4179 41.8852C22.4179 42.189 22.3635 42.4733 22.2548 42.7381C22.1461 43.0029 21.9956 43.237 21.8033 43.4405C21.6138 43.6411 21.3922 43.7986 21.1386 43.9129C20.8877 44.0271 20.6174 44.0843 20.3275 44.0843ZM20.3275 43.3819C20.5895 43.3819 20.825 43.3136 21.0341 43.1771C21.2459 43.0377 21.4117 42.8552 21.5316 42.6294C21.6542 42.4008 21.7155 42.1528 21.7155 41.8852C21.7155 41.6121 21.6528 41.3612 21.5274 41.1327C21.4047 40.9041 21.2389 40.7216 21.0299 40.585C20.8208 40.4484 20.5867 40.3802 20.3275 40.3802C20.0655 40.3802 19.83 40.4498 19.621 40.5892C19.4119 40.7258 19.2461 40.9083 19.1235 41.1369C19.0008 41.3654 18.9395 41.6149 18.9395 41.8852C18.9395 42.1639 19.0022 42.4176 19.1276 42.6461C19.2531 42.8719 19.4217 43.0516 19.6335 43.1854C19.8453 43.3164 20.0767 43.3819 20.3275 43.3819ZM23.1097 43.9756V39.7949H23.812V40.3174C23.9597 40.1223 24.1465 39.9677 24.3722 39.8534C24.598 39.7363 24.8433 39.6778 25.108 39.6778C25.2697 39.6778 25.4258 39.6987 25.5763 39.7405L25.292 40.4429C25.1777 40.4066 25.0662 40.3885 24.9575 40.3885C24.7485 40.3885 24.5562 40.4401 24.3806 40.5432C24.2078 40.6435 24.0698 40.7801 23.9667 40.9529C23.8636 41.1257 23.812 41.318 23.812 41.5299V43.9756H23.1097ZM26.1064 43.9756V39.7949H26.8088V40.3174C26.9565 40.1223 27.1418 39.9677 27.3648 39.8534C27.5906 39.7363 27.8358 39.6778 28.1006 39.6778C28.41 39.6778 28.6929 39.753 28.9493 39.9036C29.2057 40.0541 29.4078 40.2533 29.5555 40.5014C29.7032 40.2533 29.9039 40.0541 30.1575 39.9036C30.4139 39.753 30.6954 39.6778 31.002 39.6778C31.317 39.6778 31.6027 39.7544 31.8591 39.9077C32.1155 40.0582 32.319 40.2617 32.4695 40.5181C32.6228 40.7745 32.6994 41.0602 32.6994 41.3752V43.9756H31.997V41.5424C31.997 41.3362 31.9469 41.1452 31.8465 40.9696C31.7462 40.794 31.611 40.6533 31.441 40.5474C31.271 40.4415 31.0829 40.3885 30.8766 40.3885C30.6704 40.3885 30.4822 40.4387 30.3122 40.539C30.1422 40.6366 30.007 40.7731 29.9067 40.9487C29.8063 41.1215 29.7562 41.3194 29.7562 41.5424V43.9756H29.0538V41.5424C29.0538 41.3194 29.0036 41.1215 28.9033 40.9487C28.803 40.7731 28.6664 40.6366 28.4936 40.539C28.3236 40.4387 28.1354 40.3885 27.9292 40.3885C27.7257 40.3885 27.5376 40.4415 27.3648 40.5474C27.1948 40.6533 27.0596 40.794 26.9593 40.9696C26.8589 41.1452 26.8088 41.3362 26.8088 41.5424V43.9756H26.1064ZM36.8166 39.7949H37.519V43.9756H36.8166L36.7874 43.269C36.6564 43.5115 36.4752 43.708 36.2439 43.8585C36.0153 44.009 35.7422 44.0843 35.4245 44.0843C35.1179 44.0843 34.8308 44.0271 34.5632 43.9129C34.2957 43.7958 34.0588 43.6356 33.8525 43.4321C33.649 43.2258 33.4902 42.9889 33.3759 42.7214C33.2616 42.4538 33.2045 42.1653 33.2045 41.856C33.2045 41.5577 33.2602 41.2762 33.3717 41.0114C33.4832 40.7467 33.6379 40.5153 33.8358 40.3174C34.0365 40.1168 34.2678 39.9607 34.5298 39.8492C34.7918 39.7349 35.0733 39.6778 35.3743 39.6778C35.7032 39.6778 35.9916 39.7558 36.2397 39.9119C36.4878 40.0652 36.6884 40.2645 36.8417 40.5098L36.8166 39.7949ZM35.4119 43.4028C35.6878 43.4028 35.9261 43.3359 36.1268 43.2022C36.3303 43.0656 36.4864 42.8816 36.5951 42.6503C36.7065 42.419 36.7623 42.1639 36.7623 41.8852C36.7623 41.6009 36.7065 41.3445 36.5951 41.116C36.4836 40.8846 36.3261 40.7021 36.1226 40.5683C35.922 40.4317 35.6851 40.3634 35.4119 40.3634C35.136 40.3634 34.8851 40.4317 34.6594 40.5683C34.4336 40.7049 34.2539 40.8888 34.1201 41.1201C33.9891 41.3487 33.9236 41.6037 33.9236 41.8852C33.9236 42.1667 33.9919 42.4231 34.1284 42.6545C34.265 42.883 34.4462 43.0656 34.6719 43.2022C34.8977 43.3359 35.1443 43.4028 35.4119 43.4028ZM38.4036 43.9756V37.7045H39.106V43.9756H38.4036Z" fill="#252E49"/>
<rect x="49.1237" y="38.6887" width="4.57404" height="4.57404" rx="2.28702" fill="#F59E0B"/>
<path d="M59.2162 38.1226H59.9185V43.9756H59.2162V41.1912H56.3189V43.9756H55.6166V38.1226H56.3189V40.4889H59.2162V38.1226ZM60.9241 39.7949H61.6265V43.9756H60.9241V39.7949ZM61.2837 39.1134C61.1722 39.1134 61.0788 39.0772 61.0036 39.0047C60.9283 38.9322 60.8907 38.8416 60.8907 38.7329C60.8907 38.6243 60.9283 38.5337 61.0036 38.4612C61.0788 38.3887 61.1708 38.3525 61.2795 38.3525C61.3882 38.3525 61.4802 38.3887 61.5554 38.4612C61.6307 38.5337 61.6683 38.6243 61.6683 38.7329C61.6683 38.8416 61.6307 38.9322 61.5554 39.0047C61.4829 39.0772 61.3924 39.1134 61.2837 39.1134ZM65.8387 39.7949H66.5411V44.1094C66.5411 44.3853 66.4811 44.6417 66.3613 44.8786C66.2442 45.1183 66.0854 45.326 65.8847 45.5016C65.684 45.6799 65.4555 45.8179 65.1991 45.9154C64.9426 46.0158 64.6751 46.066 64.3964 46.066C64.1065 46.066 63.8264 46.0005 63.556 45.8695C63.2857 45.7412 63.0488 45.5684 62.8453 45.351C62.6446 45.1364 62.4997 44.8953 62.4105 44.6278L63.0543 44.3351C63.1073 44.5274 63.2021 44.7002 63.3386 44.8535C63.478 45.0096 63.6396 45.1323 63.8236 45.2214C64.0103 45.3134 64.2013 45.3594 64.3964 45.3594C64.5803 45.3594 64.7573 45.3274 64.9273 45.2633C65.1001 45.1991 65.2548 45.11 65.3914 44.9957C65.5307 44.8842 65.6394 44.7518 65.7175 44.5985C65.7983 44.448 65.8387 44.285 65.8387 44.1094V43.2774C65.6966 43.5171 65.5084 43.7122 65.2743 43.8627C65.043 44.0104 64.7726 44.0843 64.4632 44.0843C64.1678 44.0843 63.8905 44.0271 63.6313 43.9129C63.3721 43.7986 63.1449 43.6411 62.9498 43.4405C62.7547 43.237 62.6014 43.0029 62.4899 42.7381C62.3785 42.4733 62.3227 42.189 62.3227 41.8852C62.3227 41.5814 62.3785 41.2971 62.4899 41.0324C62.6014 40.7648 62.7547 40.5307 62.9498 40.33C63.1449 40.1265 63.3721 39.9677 63.6313 39.8534C63.8905 39.7391 64.1678 39.682 64.4632 39.682C64.7726 39.682 65.043 39.7558 65.2743 39.9036C65.5084 40.0513 65.6966 40.2464 65.8387 40.4889V39.7949ZM64.4674 43.4028C64.7378 43.4028 64.9719 43.3331 65.1698 43.1938C65.3705 43.0544 65.5251 42.8691 65.6338 42.6378C65.7425 42.4064 65.7969 42.1556 65.7969 41.8852C65.7969 41.6065 65.7412 41.3529 65.6297 41.1243C65.521 40.893 65.3663 40.709 65.1656 40.5725C64.9677 40.4331 64.735 40.3634 64.4674 40.3634C64.2054 40.3634 63.9657 40.4317 63.7483 40.5683C63.5309 40.7049 63.3581 40.8888 63.2299 41.1201C63.1045 41.3487 63.0418 41.6037 63.0418 41.8852C63.0418 42.1667 63.1059 42.4231 63.2341 42.6545C63.3651 42.883 63.5379 43.0656 63.7525 43.2022C63.9699 43.3359 64.2082 43.4028 64.4674 43.4028ZM71.2421 41.3752V43.9756H70.5397V41.5299C70.5397 41.318 70.4882 41.1257 70.3851 40.9529C70.2819 40.7801 70.144 40.6435 69.9712 40.5432C69.7984 40.4401 69.606 40.3885 69.3942 40.3885C69.1852 40.3885 68.9929 40.4401 68.8173 40.5432C68.6445 40.6435 68.5065 40.7801 68.4034 40.9529C68.3003 41.1257 68.2487 41.318 68.2487 41.5299V43.9756H67.5463V37.7045H68.2487V40.3174C68.3964 40.1223 68.5832 39.9677 68.8089 39.8534C69.0347 39.7363 69.2799 39.6778 69.5447 39.6778C69.8569 39.6778 70.1412 39.7544 70.3976 39.9077C70.6568 40.0582 70.8617 40.2617 71.0122 40.5181C71.1655 40.7745 71.2421 41.0602 71.2421 41.3752Z" fill="#252E49"/>
<rect x="81.6007" y="38.6887" width="4.57404" height="4.57404" rx="2.28702" fill="#DA1E2E"/>
<path d="M90.8026 44.0843C90.4068 44.0843 90.0348 44.0062 89.6864 43.8502C89.338 43.6913 89.0314 43.4739 88.7666 43.198C88.5046 42.9193 88.2984 42.5959 88.1478 42.228C88.0001 41.8601 87.9263 41.4671 87.9263 41.0491C87.9263 40.631 88.0001 40.238 88.1478 39.8701C88.2984 39.5022 88.5046 39.1803 88.7666 38.9044C89.0314 38.6256 89.338 38.4082 89.6864 38.2522C90.0348 38.0933 90.4068 38.0139 90.8026 38.0139C91.2764 38.0139 91.7126 38.124 92.1112 38.3441C92.5097 38.5643 92.84 38.857 93.102 39.2221L92.4791 39.5566C92.284 39.3001 92.0373 39.0967 91.7391 38.9462C91.4437 38.7929 91.1315 38.7162 90.8026 38.7162C90.4988 38.7162 90.2145 38.7775 89.9497 38.9002C89.6878 39.0228 89.4578 39.1914 89.2599 39.406C89.062 39.6207 88.9073 39.8687 88.7959 40.1502C88.6844 40.4317 88.6286 40.7313 88.6286 41.0491C88.6286 41.3696 88.6844 41.6706 88.7959 41.9521C88.9101 42.2336 89.0662 42.4817 89.2641 42.6963C89.4648 42.9109 89.6961 43.0795 89.9581 43.2022C90.2229 43.322 90.5044 43.3819 90.8026 43.3819C91.1426 43.3819 91.4576 43.3053 91.7475 43.152C92.0401 42.9959 92.284 42.7924 92.4791 42.5416L93.102 42.8802C92.84 43.2454 92.5097 43.538 92.1112 43.7582C91.7126 43.9756 91.2764 44.0843 90.8026 44.0843ZM93.9237 43.9756V39.7949H94.626V40.3174C94.7737 40.1223 94.9605 39.9677 95.1862 39.8534C95.412 39.7363 95.6573 39.6778 95.922 39.6778C96.0837 39.6778 96.2398 39.6987 96.3903 39.7405L96.106 40.4429C95.9917 40.4066 95.8802 40.3885 95.7715 40.3885C95.5625 40.3885 95.3702 40.4401 95.1946 40.5432C95.0218 40.6435 94.8838 40.7801 94.7807 40.9529C94.6776 41.1257 94.626 41.318 94.626 41.5299V43.9756H93.9237ZM96.9041 39.7949H97.6064V43.9756H96.9041V39.7949ZM97.2636 39.1134C97.1521 39.1134 97.0587 39.0772 96.9835 39.0047C96.9082 38.9322 96.8706 38.8416 96.8706 38.7329C96.8706 38.6243 96.9082 38.5337 96.9835 38.4612C97.0587 38.3887 97.1507 38.3525 97.2594 38.3525C97.3681 38.3525 97.4601 38.3887 97.5354 38.4612C97.6106 38.5337 97.6482 38.6243 97.6482 38.7329C97.6482 38.8416 97.6106 38.9322 97.5354 39.0047C97.4629 39.0772 97.3723 39.1134 97.2636 39.1134ZM100.776 40.4972H99.8272L99.8231 43.9756H99.1207L99.1249 40.4972H98.4058V39.7949H99.1249L99.1207 38.4821H99.8231L99.8272 39.7949H100.776V40.4972ZM101.485 39.7949H102.187V43.9756H101.485V39.7949ZM101.844 39.1134C101.733 39.1134 101.64 39.0772 101.564 39.0047C101.489 38.9322 101.451 38.8416 101.451 38.7329C101.451 38.6243 101.489 38.5337 101.564 38.4612C101.64 38.3887 101.732 38.3525 101.84 38.3525C101.949 38.3525 102.041 38.3887 102.116 38.4612C102.191 38.5337 102.229 38.6243 102.229 38.7329C102.229 38.8416 102.191 38.9322 102.116 39.0047C102.044 39.0772 101.953 39.1134 101.844 39.1134ZM106.015 42.8719L106.642 43.2105C106.452 43.4753 106.211 43.6871 105.919 43.846C105.629 44.0049 105.314 44.0843 104.974 44.0843C104.589 44.0843 104.238 43.9853 103.92 43.7875C103.605 43.5896 103.353 43.3248 103.164 42.9931C102.977 42.6587 102.883 42.2894 102.883 41.8852C102.883 41.5786 102.938 41.293 103.047 41.0282C103.155 40.7606 103.304 40.5265 103.494 40.3258C103.686 40.1223 103.909 39.9635 104.163 39.8492C104.416 39.7349 104.687 39.6778 104.974 39.6778C105.314 39.6778 105.629 39.7572 105.919 39.9161C106.211 40.075 106.452 40.2882 106.642 40.5557L106.015 40.8944C105.881 40.7299 105.722 40.6031 105.538 40.5139C105.354 40.4248 105.166 40.3802 104.974 40.3802C104.715 40.3802 104.479 40.4498 104.267 40.5892C104.058 40.7258 103.892 40.9083 103.77 41.1369C103.647 41.3654 103.586 41.6149 103.586 41.8852C103.586 42.1556 103.647 42.405 103.77 42.6336C103.895 42.8593 104.062 43.0405 104.271 43.1771C104.483 43.3136 104.717 43.3819 104.974 43.3819C105.18 43.3819 105.374 43.3345 105.555 43.2398C105.736 43.145 105.889 43.0224 106.015 42.8719ZM110.685 39.7949H111.387V43.9756H110.685L110.655 43.269C110.524 43.5115 110.343 43.708 110.112 43.8585C109.883 44.009 109.61 44.0843 109.292 44.0843C108.986 44.0843 108.699 44.0271 108.431 43.9129C108.164 43.7958 107.927 43.6356 107.72 43.4321C107.517 43.2258 107.358 42.9889 107.244 42.7214C107.13 42.4538 107.072 42.1653 107.072 41.856C107.072 41.5577 107.128 41.2762 107.24 41.0114C107.351 40.7467 107.506 40.5153 107.704 40.3174C107.904 40.1168 108.136 39.9607 108.398 39.8492C108.66 39.7349 108.941 39.6778 109.242 39.6778C109.571 39.6778 109.86 39.7558 110.108 39.9119C110.356 40.0652 110.556 40.2645 110.71 40.5098L110.685 39.7949ZM109.28 43.4028C109.556 43.4028 109.794 43.3359 109.995 43.2022C110.198 43.0656 110.354 42.8816 110.463 42.6503C110.574 42.419 110.63 42.1639 110.63 41.8852C110.63 41.6009 110.574 41.3445 110.463 41.116C110.351 40.8846 110.194 40.7021 109.991 40.5683C109.79 40.4317 109.553 40.3634 109.28 40.3634C109.004 40.3634 108.753 40.4317 108.527 40.5683C108.302 40.7049 108.122 40.8888 107.988 41.1201C107.857 41.3487 107.791 41.6037 107.791 41.8852C107.791 42.1667 107.86 42.4231 107.996 42.6545C108.133 42.883 108.314 43.0656 108.54 43.2022C108.766 43.3359 109.012 43.4028 109.28 43.4028ZM112.272 43.9756V37.7045H112.974V43.9756H112.272Z" fill="#252E49"/>
<path d="M216.356 43.937L216.356 39.495" stroke="#0048CE" stroke-width="1.04518"/>
<rect x="216.849" y="39.0015" width="0.987117" height="0.987117" rx="0.348394" transform="rotate(-180 216.849 39.0015)" fill="#0048CE"/>
<rect x="211.914" y="36.5337" width="8.88405" height="8.88405" rx="4.44203" stroke="#0048CE" stroke-width="1.04518"/>
<path d="M15.6617 56.3533L201.704 56.3533" stroke="#F2F5F9" stroke-width="0.696788" stroke-dasharray="1.39 1.39"/>
<path d="M207.972 59.3533V58.7303C208.187 58.538 208.428 58.3234 208.696 58.0865C208.963 57.8468 209.229 57.5974 209.494 57.3382C209.762 57.0762 210.007 56.817 210.23 56.5605C210.453 56.3041 210.633 56.0616 210.769 55.8331C210.906 55.6018 210.974 55.3997 210.974 55.2269C210.974 55.0206 210.924 54.8325 210.824 54.6625C210.723 54.4897 210.588 54.3517 210.418 54.2486C210.251 54.1455 210.064 54.0939 209.858 54.0939C209.652 54.0939 209.462 54.1455 209.289 54.2486C209.119 54.3517 208.983 54.4897 208.879 54.6625C208.779 54.8325 208.729 55.0206 208.729 55.2269H208.027C208.027 54.8841 208.11 54.5747 208.277 54.2988C208.445 54.0201 208.666 53.7999 208.942 53.6382C209.218 53.4738 209.523 53.3915 209.858 53.3915C210.192 53.3915 210.496 53.4738 210.769 53.6382C211.045 53.8027 211.265 54.0242 211.43 54.3029C211.594 54.5789 211.676 54.8869 211.676 55.2269C211.676 55.422 211.629 55.6324 211.534 55.8582C211.439 56.0812 211.31 56.3111 211.145 56.548C210.981 56.7849 210.794 57.0246 210.585 57.2671C210.376 57.5068 210.156 57.7437 209.925 57.9778C209.693 58.2119 209.463 58.4363 209.235 58.6509H211.752V59.3533H207.972ZM214.543 59.462C214.195 59.462 213.883 59.3839 213.607 59.2278C213.331 59.069 213.094 58.8502 212.896 58.5715C212.698 58.2928 212.548 57.9708 212.445 57.6057C212.341 57.2378 212.29 56.8448 212.29 56.4268C212.29 56.0087 212.341 55.6157 212.445 55.2478C212.548 54.8799 212.698 54.558 212.896 54.282C213.094 54.0033 213.331 53.7859 213.607 53.6299C213.883 53.471 214.195 53.3915 214.543 53.3915C214.889 53.3915 215.2 53.471 215.476 53.6299C215.754 53.7859 215.99 54.0033 216.182 54.282C216.377 54.558 216.526 54.8799 216.629 55.2478C216.735 55.6157 216.788 56.0087 216.788 56.4268C216.788 56.8448 216.735 57.2378 216.629 57.6057C216.526 57.9708 216.377 58.2928 216.182 58.5715C215.99 58.8502 215.754 59.069 215.476 59.2278C215.2 59.3839 214.889 59.462 214.543 59.462ZM214.543 58.7596C214.892 58.7596 215.183 58.6523 215.417 58.4377C215.654 58.2203 215.831 57.9346 215.948 57.5806C216.065 57.2267 216.124 56.842 216.124 56.4268C216.124 55.9892 216.062 55.5948 215.94 55.2436C215.82 54.8896 215.641 54.6095 215.404 54.4033C215.17 54.197 214.883 54.0939 214.543 54.0939C214.276 54.0939 214.042 54.1566 213.841 54.282C213.643 54.4075 213.479 54.5789 213.348 54.7963C213.217 55.0137 213.118 55.2631 213.051 55.5446C212.987 55.8233 212.955 56.1174 212.955 56.4268C212.955 56.842 213.014 57.2281 213.134 57.5848C213.254 57.9388 213.431 58.2231 213.665 58.4377C213.902 58.6523 214.195 58.7596 214.543 58.7596ZM219.426 59.462C219.078 59.462 218.766 59.3839 218.49 59.2278C218.214 59.069 217.977 58.8502 217.779 58.5715C217.581 58.2928 217.431 57.9708 217.327 57.6057C217.224 57.2378 217.173 56.8448 217.173 56.4268C217.173 56.0087 217.224 55.6157 217.327 55.2478C217.431 54.8799 217.581 54.558 217.779 54.282C217.977 54.0033 218.214 53.7859 218.49 53.6299C218.766 53.471 219.078 53.3915 219.426 53.3915C219.772 53.3915 220.083 53.471 220.359 53.6299C220.637 53.7859 220.873 54.0033 221.065 54.282C221.26 54.558 221.409 54.8799 221.512 55.2478C221.618 55.6157 221.671 56.0087 221.671 56.4268C221.671 56.8448 221.618 57.2378 221.512 57.6057C221.409 57.9708 221.26 58.2928 221.065 58.5715C220.873 58.8502 220.637 59.069 220.359 59.2278C220.083 59.3839 219.772 59.462 219.426 59.462ZM219.426 58.7596C219.775 58.7596 220.066 58.6523 220.3 58.4377C220.537 58.2203 220.714 57.9346 220.831 57.5806C220.948 57.2267 221.007 56.842 221.007 56.4268C221.007 55.9892 220.945 55.5948 220.823 55.2436C220.703 54.8896 220.524 54.6095 220.287 54.4033C220.053 54.197 219.766 54.0939 219.426 54.0939C219.159 54.0939 218.925 54.1566 218.724 54.282C218.526 54.4075 218.362 54.5789 218.231 54.7963C218.1 55.0137 218.001 55.2631 217.934 55.5446C217.87 55.8233 217.838 56.1174 217.838 56.4268C217.838 56.842 217.897 57.2281 218.017 57.5848C218.137 57.9388 218.314 58.2231 218.548 58.4377C218.785 58.6523 219.078 58.7596 219.426 58.7596Z" fill="#5D6A85"/>
<path d="M18.6617 83.2634L204.704 83.2634" stroke="#F2F5F9" stroke-width="0.696788" stroke-dasharray="1.39 1.39"/>
<path d="M211.382 86.2634V81.1128H210.726L210.922 80.4104H212.084V86.2634H211.382ZM214.988 86.3721C214.625 86.3721 214.296 86.2843 214.001 86.1087C213.706 85.9332 213.471 85.699 213.299 85.4064C213.129 85.1109 213.044 84.7862 213.044 84.4323H213.746C213.746 84.658 213.802 84.8657 213.913 85.0552C214.025 85.2419 214.174 85.391 214.361 85.5025C214.55 85.614 214.759 85.6698 214.988 85.6698C215.213 85.6698 215.42 85.614 215.606 85.5025C215.793 85.391 215.942 85.2419 216.054 85.0552C216.165 84.8657 216.221 84.658 216.221 84.4323C216.221 84.2065 216.168 83.9989 216.062 83.8093C215.959 83.6198 215.807 83.4693 215.606 83.3578C215.406 83.2435 215.162 83.1864 214.875 83.1864H213.432L214.001 80.4104H216.777V81.1128H214.57L214.298 82.484L214.904 82.4882C215.303 82.4966 215.652 82.5858 215.953 82.7558C216.257 82.923 216.494 83.1516 216.664 83.4414C216.837 83.7285 216.923 84.0588 216.923 84.4323C216.923 84.697 216.873 84.9479 216.773 85.1848C216.673 85.4189 216.533 85.6252 216.355 85.8035C216.176 85.9819 215.97 86.1213 215.736 86.2216C215.505 86.322 215.255 86.3721 214.988 86.3721ZM219.673 86.3721C219.324 86.3721 219.012 86.2941 218.736 86.138C218.46 85.9791 218.223 85.7603 218.026 85.4816C217.828 85.2029 217.677 84.881 217.574 84.5159C217.471 84.148 217.419 83.755 217.419 83.3369C217.419 82.9188 217.471 82.5259 217.574 82.158C217.677 81.79 217.828 81.4681 218.026 81.1922C218.223 80.9135 218.46 80.6961 218.736 80.54C219.012 80.3811 219.324 80.3017 219.673 80.3017C220.018 80.3017 220.329 80.3811 220.605 80.54C220.884 80.6961 221.119 80.9135 221.312 81.1922C221.507 81.4681 221.656 81.79 221.759 82.158C221.865 82.5259 221.918 82.9188 221.918 83.3369C221.918 83.755 221.865 84.148 221.759 84.5159C221.656 84.881 221.507 85.2029 221.312 85.4816C221.119 85.7603 220.884 85.9791 220.605 86.138C220.329 86.2941 220.018 86.3721 219.673 86.3721ZM219.673 85.6698C220.021 85.6698 220.312 85.5625 220.547 85.3478C220.783 85.1304 220.96 84.8448 221.078 84.4908C221.195 84.1368 221.253 83.7522 221.253 83.3369C221.253 82.8993 221.192 82.505 221.069 82.1538C220.949 81.7998 220.771 81.5197 220.534 81.3134C220.3 81.1072 220.013 81.0041 219.673 81.0041C219.405 81.0041 219.171 81.0668 218.97 81.1922C218.773 81.3176 218.608 81.489 218.477 81.7064C218.346 81.9238 218.247 82.1733 218.18 82.4548C218.116 82.7335 218.084 83.0275 218.084 83.3369C218.084 83.7522 218.144 84.1382 218.264 84.495C218.384 84.8489 218.561 85.1332 218.795 85.3478C219.032 85.5625 219.324 85.6698 219.673 85.6698Z" fill="#5D6A85"/>
<g clip-path="url(#clip0_1_4652)">
<mask id="path-20-outside-1_1_4652" maskUnits="userSpaceOnUse" x="6.84344" y="52.9939" width="195" height="101" fill="black">
<rect fill="white" x="6.84344" y="52.9939" width="195" height="101"/>
<path d="M6.84344 152.994H201.191V53.3532H6.84344V152.994Z"/>
</mask>
<path d="M9.63091 88.3966L13.4514 79.3895L21.4397 66.9182L31.5119 93.593L42.626 84.5859L47.1411 70.3824L74.5792 83.893L80.1363 72.8074L88.4719 68.3039L103.406 82.5073L158.977 56.8718L167.313 64.4932L187.11 76.2717L228.791 92.2073L231.48 82.5073L240.891 69.6896L250.303 97.7501L266.438 84.9323L281.228 63.4539L294.673 87.3573L310.807 78.0038L343.076 87.3573L351.143 70.036L380.723 60.3361L388.791 67.9575L408.959 79.0431L450.639 89.0894L470.807 78.0038L478.875 70.036L508.454 79.7359L516.522 97.4037L547.446 88.0502L564.925 97.4037L590.471 91.168L607.95 81.8145L638.875 91.168L648.286 73.1538L676.522 63.4539L684.589 71.4217L706.101 82.8538V88.3966L771.806 75.5788L817.8 85.6252L876.934 66.2253V93.593L909.786 79.0431L982.061 90.4751L1041.2 60.3361L1051.05 79.7359L1060.91 99.1358L1139.75 83.893L1212.03 97.7501L1244.88 79.7359L1330.3 95.6715L1382.86 70.036V87.3573L1422.28 82.5073L1448.57 89.0894L1487.99 81.8145L1514.27 90.4751L1540.55 79.7359L1579.97 90.4751L1599.69 76.9645L1632.54 66.9182L1645.68 83.893V97.4037L1704.81 89.0894L1724.53 82.8538L1744.24 92.2073L1777.09 82.8538L1796.8 88.0502L1823.08 97.7501L1849.36 81.8145L1895.36 90.4751L1934.78 103.639L1974.2 88.0502L2039.91 97.7501L2066.19 81.8145L2099.04 88.3966L2125.32 78.0038L2158.18 89.0894L2223.88 99.1358L2250.16 90.4751L2302.73 99.1358L2329.01 84.9323L2381.57 88.3966L2407.85 76.9645L2453.85 82.8538L2486.7 70.3824L2565.55 93.593L2598.4 84.9323L2644.39 97.4037L2670.67 87.0109L2769.23 106.757L2808.65 91.168L2861.22 103.639L2920.35 84.9323L2959.77 105.025L2992.63 95.6715L3045.19 112.646L3091.18 92.2073L3150.32 105.025L3209.45 114.032V106.757L3275.16 116.457L3301.44 103.293L3360.57 116.457L3386.86 94.2858L3413.14 110.221L3465.7 118.189" stroke="#5D6A85" stroke-width="0.696788"/>
<path d="M9.64975 85.5566L12.6207 90.7024H6.67882L9.64975 85.5566Z" fill="#10B981"/>
<rect x="11.6341" y="76.8823" width="4.57404" height="4.57404" fill="#10B981"/>
<rect x="21.5863" y="63.3931" width="4.57404" height="4.57404" transform="rotate(45 21.5863 63.3931)" fill="#F59E0B"/>
<path d="M43.096 82.0723L46.067 87.2181H40.1251L43.096 82.0723Z" fill="#10B981"/>
<rect x="45.0804" y="68.521" width="4.57404" height="4.57404" rx="2.28702" fill="#F59E0B"/>
<path d="M75.1488 81.376L78.1197 86.5218H72.1779L75.1488 81.376Z" fill="#10B981"/>
<rect x="80.8137" y="69.6636" width="4.57404" height="4.57404" transform="rotate(45 80.8137 69.6636)" fill="#F59E0B"/>
<rect x="89.175" y="65.4819" width="4.57404" height="4.57404" transform="rotate(45 89.175 65.4819)" fill="#F59E0B"/>
<path d="M104.413 79.2852L107.384 84.431H101.442L104.413 79.2852Z" fill="#10B981"/>
<rect x="157.961" y="54.5845" width="4.57404" height="4.57404" rx="2.28702" fill="#DA1E2E"/>
<rect x="165.624" y="62.2505" width="4.57404" height="4.57404" fill="#DA1E2E"/>
<path d="M191.511 74.4082L194.482 79.554H188.54L191.511 74.4082Z" fill="#10B981"/>
</g>
<path d="M6.84344 152.994V152.297H201.191V152.994V153.691H6.84344V152.994Z" fill="#DCE1E8" mask="url(#path-20-outside-1_1_4652)"/>
<defs>
<clipPath id="clip0_1_4652">
<path d="M6.84344 152.994H201.191V53.3532H6.84344V152.994Z" fill="white"/>
</clipPath>
</defs>
</svg>
