<svg width="10" height="18" viewBox="0 0 10 18" fill="none" xmlns="http://www.w3.org/2000/svg">
<path d="M6.20902 12.2843H3.12717C3.12717 13.0374 3.13472 13.7113 3.14983 14.3045C3.16493 14.8993 3.32356 15.4832 3.6257 16.0578C3.95806 16.6711 4.443 17.1153 5.08203 17.3917C5.71955 17.6681 6.4462 17.8141 7.25746 17.8343C8.07022 17.8529 8.89809 17.7815 9.74409 17.6184V14.9863C9.01895 15.0872 8.35726 15.1183 7.76204 15.0794C7.1653 15.0406 6.73022 14.7999 6.4598 14.3573C6.31628 14.1244 6.23924 13.8123 6.22715 13.4194C6.21506 13.0281 6.21053 12.7733 6.21053 12.2842L6.20902 12.2843Z" fill="#252E49"/>
<path d="M6.2168 3.90234H9.31836V7.09473H6.2168V10.2725H3.10059V7.09473H0V3.90234H3.10059V0.724609H6.2168V3.90234Z" fill="#2563EB"/>
</svg>
