<svg width="48" height="11" viewBox="0 0 48 11" fill="none" xmlns="http://www.w3.org/2000/svg">
<path d="M24.4761 3.61267C24.3745 3.3922 24.2407 3.19533 24.0754 3.0234C23.9094 2.85148 23.7081 2.71461 23.4706 2.61348C23.2325 2.51234 22.9551 2.46178 22.637 2.46178C22.2041 2.46178 21.8204 2.55954 21.4859 2.75506C21.2333 2.90272 21.0215 3.10363 20.8516 3.35714V0.777588H20.197V8.05912H20.9251V5.14651C20.9251 4.83637 20.9592 4.55994 21.028 4.31722C21.0969 4.0745 21.1979 3.86819 21.3304 3.69762C21.4629 3.52771 21.6269 3.39692 21.8223 3.3059C22.0171 3.21488 22.2428 3.16903 22.4986 3.16903C22.7773 3.16903 23.0141 3.22162 23.2096 3.32612C23.4044 3.43063 23.5638 3.57828 23.6871 3.76841C23.8104 3.95854 23.8996 4.18103 23.9553 4.43588C24.0111 4.69074 24.0393 4.96919 24.0393 5.27258V8.05845H24.7674V5.05481C24.7674 4.80873 24.7444 4.56196 24.6985 4.31385C24.6526 4.06574 24.5785 3.83179 24.4768 3.61064L24.4761 3.61267Z" fill="#252E49"/>
<path d="M29.604 2.82047C29.2334 2.57236 28.7855 2.44897 28.2614 2.44897C27.7373 2.44897 27.3064 2.56696 26.9305 2.80294C26.5547 3.03891 26.2641 3.374 26.0575 3.80954C25.8509 4.24441 25.7473 4.76019 25.7473 5.35687C25.7473 5.95355 25.8522 6.43561 26.0621 6.86374C26.272 7.29187 26.5665 7.62426 26.945 7.86023C27.3241 8.09621 27.7721 8.2142 28.2902 8.2142C28.8084 8.2142 29.2669 8.0834 29.6749 7.82248C30.0828 7.56155 30.3924 7.19276 30.6023 6.71743L29.9287 6.44977C29.7647 6.79025 29.5411 7.0505 29.2571 7.23119C28.973 7.41188 28.6412 7.50155 28.2607 7.50155C27.7032 7.50155 27.2729 7.31209 26.9692 6.93251C26.697 6.59271 26.5481 6.12749 26.5199 5.53958H30.7053C30.7217 4.89907 30.6345 4.34757 30.4442 3.88573C30.254 3.42389 29.974 3.06925 29.6027 2.82114L29.604 2.82047ZM26.9699 3.70234C27.2729 3.32141 27.7104 3.13128 28.2811 3.13128C28.8517 3.13128 29.2393 3.31197 29.5234 3.67267C29.7569 3.96933 29.8985 4.38465 29.9484 4.9166H26.5357C26.5855 4.41094 26.7292 4.00506 26.9699 3.70301V3.70234Z" fill="#252E49"/>
<path d="M35.7251 3.54121C35.584 3.18724 35.344 2.91688 35.0042 2.72945C34.6645 2.54269 34.2525 2.44897 33.7672 2.44897C33.1801 2.44897 32.7026 2.58382 32.336 2.8535C31.9687 3.12319 31.724 3.50277 31.6027 3.99158L32.3058 4.20396C32.4075 3.83988 32.5839 3.57357 32.8345 3.40501C33.0857 3.23646 33.3926 3.15218 33.7567 3.15218C34.2847 3.15218 34.6553 3.28231 34.8684 3.54188C35.0646 3.78123 35.1656 4.14058 35.1721 4.61658C34.999 4.64153 34.8114 4.66647 34.6048 4.69209C34.2912 4.73052 33.9718 4.77637 33.6458 4.82828C33.3198 4.88087 33.0221 4.9402 32.7531 5.00762C32.4875 5.07842 32.254 5.1809 32.052 5.31574C31.8499 5.45058 31.6912 5.62318 31.5745 5.83421C31.4577 6.04457 31.4 6.29875 31.4 6.5954C31.4 6.89206 31.4669 7.15365 31.6014 7.39974C31.7358 7.64583 31.9385 7.8427 32.2087 7.9917C32.479 8.14003 32.8148 8.2142 33.2149 8.2142C33.7462 8.2142 34.202 8.09081 34.5825 7.8454C34.8507 7.67212 35.0678 7.44222 35.2371 7.1577V8.0625H35.8812V4.66984C35.8812 4.46758 35.8713 4.26868 35.8516 4.07316C35.832 3.87764 35.7893 3.70032 35.7237 3.54188L35.7251 3.54121ZM35.0954 6.13559C35.0495 6.40864 34.9498 6.65406 34.7956 6.87116C34.6415 7.08826 34.4382 7.25951 34.1856 7.38424C33.9331 7.50897 33.638 7.57099 33.3002 7.57099C33.0148 7.57099 32.7859 7.52245 32.6141 7.42469C32.4422 7.32693 32.317 7.20355 32.2402 7.05589C32.1628 6.90757 32.1248 6.75452 32.1248 6.5954C32.1248 6.39988 32.17 6.23672 32.2599 6.10457C32.3498 5.9731 32.4658 5.86793 32.6069 5.78837C32.7479 5.70948 32.8935 5.64745 33.0444 5.60363C33.2674 5.54295 33.5173 5.49036 33.7947 5.44654C34.0715 5.40272 34.3542 5.36428 34.6408 5.33057C34.8238 5.309 34.9977 5.28743 35.1636 5.26585C35.1629 5.34743 35.1616 5.44384 35.1597 5.55509C35.1564 5.76544 35.1347 5.95894 35.096 6.13424L35.0954 6.13559Z" fill="#252E49"/>
<path d="M37.9833 0.625H37.2605V8.05823H37.9833V0.625Z" fill="#252E49"/>
<path d="M40.7227 1.08447H40.0045V2.60146H38.8678V3.23859H40.0045V6.08513C40.0045 6.35145 40.0084 6.5881 40.017 6.79576C40.0248 7.00274 40.0766 7.2077 40.1717 7.40997C40.2898 7.65268 40.463 7.83135 40.6906 7.94597C40.9182 8.06059 41.1779 8.12463 41.4678 8.13812C41.7577 8.1516 42.0522 8.12598 42.3507 8.06261V7.41064C41.9702 7.47469 41.6515 7.48481 41.3937 7.44098C41.1359 7.39716 40.9483 7.26231 40.8303 7.03645C40.768 6.91846 40.7345 6.78294 40.7293 6.62922C40.724 6.4755 40.7221 6.2847 40.7221 6.05546V3.23927H42.35V2.60213H40.7221V1.08515L40.7227 1.08447Z" fill="#252E49"/>
<path d="M47.8945 4.31588C47.8486 4.06776 47.7745 3.83381 47.6728 3.61267C47.5711 3.3922 47.4373 3.19533 47.272 3.0234C47.1061 2.85148 46.9047 2.71461 46.6673 2.61348C46.4292 2.51235 46.1517 2.46178 45.8336 2.46178C45.4007 2.46178 45.017 2.55954 44.6825 2.75506C44.43 2.90272 44.2181 3.10363 44.0482 3.35714V0.777588H43.3936V8.05912H44.1217V5.14651C44.1217 4.83637 44.1558 4.55994 44.2247 4.31722C44.2936 4.0745 44.3946 3.86819 44.5271 3.69762C44.6596 3.52771 44.8235 3.39692 45.019 3.3059C45.2138 3.21488 45.4394 3.16903 45.6952 3.16903C45.974 3.16903 46.2108 3.22162 46.4062 3.32613C46.601 3.43063 46.7604 3.57828 46.8837 3.76841C47.007 3.95854 47.0962 4.18103 47.152 4.43588C47.2078 4.69074 47.236 4.96919 47.236 5.27259V8.05845H47.964V5.05481C47.964 4.80873 47.9411 4.56196 47.8951 4.31385L47.8945 4.31588Z" fill="#252E49"/>
<path d="M9.57873 3.44007C9.3918 3.076 9.11632 2.81979 8.75229 2.67147C8.38826 2.52314 7.97175 2.44897 7.50278 2.44897C6.86327 2.44897 6.35822 2.59056 5.98763 2.87373C5.61704 3.1569 5.36452 3.52435 5.23006 3.97608L6.44021 4.37049C6.52548 4.12103 6.67437 3.94776 6.88819 3.85C7.10136 3.75224 7.30666 3.70301 7.50344 3.70301C7.85763 3.70301 8.11015 3.77853 8.26101 3.9309C8.37907 4.04956 8.45057 4.22216 8.47615 4.44735C8.25052 4.48241 8.03538 4.51477 7.83336 4.54578C7.48901 4.59837 7.18073 4.65299 6.90853 4.71029C6.63632 4.7676 6.40216 4.83367 6.20539 4.90784C5.92007 5.01571 5.69313 5.14988 5.5239 5.30967C5.35468 5.47014 5.23268 5.6542 5.15725 5.8632C5.08182 6.07221 5.04443 6.30347 5.04443 6.5563C5.04443 6.85969 5.11265 7.1368 5.24842 7.38828C5.38419 7.63976 5.58425 7.84 5.84858 7.98968C6.11225 8.13936 6.43496 8.21487 6.81539 8.21487C7.27452 8.21487 7.65429 8.13329 7.95405 7.96945C8.19083 7.84068 8.41449 7.64718 8.6257 7.39165V8.06317H9.79649V4.7258C9.79649 4.47634 9.78665 4.25048 9.76698 4.04821C9.7473 3.84595 9.68499 3.64368 9.58004 3.44142L9.57873 3.44007ZM8.32922 6.40325C8.29315 6.48079 8.22494 6.5772 8.12524 6.69181C8.02554 6.80643 7.89108 6.90824 7.72185 6.99791C7.55263 7.08758 7.34536 7.13208 7.0994 7.13208C6.94526 7.13208 6.81211 7.10848 6.7006 7.06128C6.5891 7.01409 6.50317 6.94599 6.44218 6.85632C6.38118 6.76733 6.351 6.66013 6.351 6.5354C6.351 6.44438 6.37003 6.36212 6.40741 6.28796C6.4448 6.2138 6.50383 6.1457 6.58451 6.083C6.66453 6.0203 6.77079 5.96231 6.90197 5.90838C7.01675 5.86455 7.14925 5.8241 7.3001 5.78702C7.45096 5.74994 7.6497 5.70881 7.89567 5.66296C8.05374 5.63397 8.2433 5.60026 8.46369 5.56183C8.46106 5.65824 8.45647 5.76477 8.44926 5.88545C8.43745 6.083 8.39744 6.2556 8.32857 6.40392L8.32922 6.40325Z" fill="#252E49"/>
<path d="M14.9432 2.82316C14.566 2.5737 14.1233 2.44897 13.615 2.44897C13.1066 2.44897 12.6849 2.57573 12.3405 2.82788C12.3084 2.85148 12.2776 2.87643 12.2474 2.90205V2.60067H11.0668V10.489H12.4147V7.86967C12.7597 8.09823 13.1821 8.21352 13.6838 8.21352C14.1856 8.21352 14.6002 8.08677 14.9681 7.83461C15.3354 7.58178 15.6214 7.23793 15.8267 6.80306C16.0313 6.36819 16.1343 5.87736 16.1343 5.33125C16.1343 4.78513 16.03 4.28014 15.8221 3.8473C15.6135 3.41445 15.321 3.07262 14.9438 2.82316H14.9432ZM14.5838 6.16795C14.4952 6.41943 14.3588 6.619 14.1751 6.76733C13.9915 6.91565 13.7553 6.98982 13.4667 6.98982C13.1781 6.98982 12.9296 6.92105 12.7511 6.78284C12.5721 6.64462 12.4435 6.45112 12.3648 6.20166C12.2861 5.9522 12.2468 5.66229 12.2468 5.33192C12.2468 5.00156 12.2861 4.71164 12.3648 4.46218C12.4435 4.21272 12.5688 4.01922 12.7413 3.88101C12.9132 3.74279 13.1388 3.67402 13.4176 3.67402C13.716 3.67402 13.9613 3.74886 14.1528 3.89921C14.3443 4.04889 14.4867 4.24981 14.5785 4.50061C14.6703 4.7521 14.7162 5.0292 14.7162 5.3326C14.7162 5.63599 14.6723 5.91849 14.5838 6.1693V6.16795Z" fill="#252E49"/>
<path d="M18.6274 6.81055H17.412V8.05987H18.6274V6.81055Z" fill="#252E49"/>
<path d="M2.66782 5.9036H1.34364C1.34364 6.2272 1.34689 6.51677 1.35338 6.77165C1.35987 7.0272 1.42803 7.27807 1.55785 7.52495C1.70065 7.7885 1.90901 7.97932 2.18358 8.09809C2.45751 8.21685 2.76973 8.27958 3.11829 8.28825C3.46751 8.29626 3.82322 8.26556 4.18672 8.1955V7.06456C3.87515 7.10793 3.59084 7.12128 3.3351 7.1046C3.0787 7.08792 2.89176 6.98449 2.77557 6.79434C2.7139 6.69425 2.6808 6.56014 2.67561 6.39134C2.67041 6.2232 2.66847 6.11374 2.66847 5.90356L2.66782 5.9036Z" fill="#252E49"/>
<path d="M2.6709 2.30225H4.00391V3.67432H2.6709V5.03955H1.33203V3.67432H0V2.30225H1.33203V0.937012H2.6709V2.30225Z" fill="#2563EB"/>
</svg>
